<svg xmlns="http://www.w3.org/2000/svg" version="1.1" viewBox="0.00 0.00 529.00 528.00" width="529.00" height="528.00">
<path fill="#442a76" d="&#10;  M 174.25 69.92&#10;  A 1.63 1.62 -15.6 0 0 175.28 68.10&#10;  Q 173.20 56.74 178.26 44.75&#10;  C 181.68 36.63 190.13 29.56 197.72 25.41&#10;  Q 215.43 15.72 235.73 15.17&#10;  Q 246.13 14.89 255.18 16.32&#10;  Q 280.79 20.38 298.30 26.54&#10;  Q 314.14 32.11 330.84 38.39&#10;  Q 352.19 46.42 378.63 50.60&#10;  Q 385.08 51.62 390.93 51.70&#10;  C 412.36 52.01 433.58 49.85 454.15 44.88&#10;  Q 463.42 42.65 473.48 39.12&#10;  Q 484.62 35.23 495.43 30.29&#10;  A 0.42 0.42 0.0 0 1 496.02 30.73&#10;  L 494.04 45.59&#10;  A 1.40 1.38 76.4 0 1 493.46 46.55&#10;  Q 479.66 56.18 464.11 62.85&#10;  Q 459.68 64.75 455.10 66.08&#10;  C 450.96 67.29 446.95 68.89 442.78 69.75&#10;  Q 425.33 73.36 417.71 74.00&#10;  Q 394.03 76.01 373.80 74.05&#10;  Q 358.44 72.55 341.51 67.59&#10;  Q 332.54 64.97 321.79 60.46&#10;  C 307.58 54.50 293.10 49.16 278.24 45.41&#10;  C 263.52 41.70 250.46 40.47 235.97 41.54&#10;  C 228.27 42.11 218.84 45.68 214.17 51.82&#10;  C 208.21 59.65 206.84 72.33 215.32 79.17&#10;  Q 222.18 84.70 232.58 85.05&#10;  C 238.65 85.25 250.28 84.65 252.48 77.41&#10;  Q 253.93 72.64 250.81 68.35&#10;  Q 250.43 67.82 250.95 67.44&#10;  Q 254.85 64.59 258.92 61.85&#10;  Q 261.41 60.18 263.52 61.98&#10;  C 268.10 65.91 271.01 72.83 271.15 78.33&#10;  Q 271.55 93.53 260.46 102.01&#10;  Q 253.78 107.10 245.19 108.49&#10;  Q 236.70 109.85 228.84 109.40&#10;  Q 217.95 108.78 210.73 106.77&#10;  C 198.37 103.34 186.04 100.21 173.80 96.72&#10;  Q 168.39 95.17 163.15 93.91&#10;  C 157.40 92.52 151.49 90.81 145.77 89.92&#10;  C 128.07 87.16 110.88 87.48 93.65 87.71&#10;  Q 78.42 87.90 63.25 84.52&#10;  C 46.11 80.70 31.99 67.74 33.09 49.19&#10;  Q 33.67 39.53 38.93 31.67&#10;  Q 48.53 17.32 66.40 17.52&#10;  Q 76.20 17.63 83.75 24.18&#10;  C 87.21 27.19 90.88 31.04 92.53 35.41&#10;  Q 92.71 35.88 92.56 36.37&#10;  Q 92.11 37.90 91.01 39.12&#10;  Q 87.11 43.44 83.51 47.77&#10;  A 0.67 0.66 49.4 0 1 82.42 47.68&#10;  Q 79.18 42.16 75.30 39.29&#10;  Q 73.05 37.61 68.66 37.88&#10;  C 60.58 38.38 58.02 47.54 61.89 53.67&#10;  Q 67.49 62.56 78.98 64.42&#10;  C 89.17 66.07 100.49 64.86 110.80 64.03&#10;  Q 120.65 63.24 132.74 64.32&#10;  C 146.77 65.57 158.58 66.95 170.70 70.13&#10;  Q 172.45 70.59 174.25 69.92&#10;  Z"/>
<path fill="#442a76" d="&#10;  M 469.69 249.78&#10;  Q 468.11 249.38 466.51 249.68&#10;  Q 456.32 251.60 445.28 254.06&#10;  C 439.80 255.28 434.32 257.07 428.81 258.42&#10;  Q 425.36 259.26 422.25 260.20&#10;  Q 403.10 266.00 382.80 271.70&#10;  Q 372.98 274.45 363.63 277.40&#10;  Q 331.08 287.68 299.88 299.61&#10;  C 287.92 304.18 276.04 310.60 263.12 312.19&#10;  Q 257.07 312.94 248.89 311.06&#10;  Q 238.45 308.64 230.49 305.53&#10;  Q 214.74 299.38 197.93 293.04&#10;  Q 191.74 290.71 185.78 288.27&#10;  Q 179.75 285.79 173.47 283.73&#10;  Q 159.32 279.07 146.01 274.91&#10;  C 139.32 272.82 132.85 270.53 126.21 268.62&#10;  Q 111.08 264.26 96.63 260.34&#10;  C 90.92 258.78 85.14 257.65 79.43 255.99&#10;  Q 76.08 255.02 72.51 254.23&#10;  Q 48.30 248.94 23.93 244.92&#10;  A 1.18 1.18 0.0 0 1 22.95 243.60&#10;  Q 25.54 224.19 34.94 206.67&#10;  C 43.95 189.89 58.20 177.84 76.30 171.79&#10;  C 84.14 169.17 92.70 167.10 100.96 166.38&#10;  Q 117.57 164.93 129.50 166.51&#10;  Q 137.70 167.60 149.67 169.58&#10;  Q 157.84 170.93 165.35 173.43&#10;  C 185.89 180.23 206.45 188.89 226.41 198.47&#10;  C 238.53 204.28 249.89 207.85 262.41 210.32&#10;  C 289.27 215.62 318.92 210.68 341.36 194.37&#10;  Q 348.79 188.97 355.05 179.89&#10;  C 359.13 173.96 360.57 166.73 361.35 159.54&#10;  C 362.18 151.79 360.12 142.38 354.08 137.04&#10;  C 345.88 129.79 335.27 130.11 327.74 137.97&#10;  Q 317.02 149.15 303.20 157.79&#10;  Q 297.10 161.60 287.65 164.52&#10;  C 266.51 171.06 241.95 172.00 220.50 165.51&#10;  Q 206.24 161.19 198.00 157.48&#10;  Q 187.85 152.92 178.02 148.89&#10;  Q 158.86 141.03 138.24 135.87&#10;  C 124.90 132.53 110.83 128.98 97.29 132.77&#10;  Q 93.53 133.83 91.12 136.20&#10;  C 87.61 139.66 89.75 146.35 92.27 149.78&#10;  Q 92.60 150.23 92.09 150.46&#10;  Q 88.09 152.27 83.99 154.48&#10;  C 82.29 155.40 80.34 155.56 78.57 154.77&#10;  Q 70.38 151.15 63.66 145.04&#10;  Q 56.05 138.13 56.87 127.75&#10;  C 57.43 120.58 63.20 116.21 69.52 113.85&#10;  Q 75.67 111.55 80.26 110.86&#10;  Q 115.79 105.56 150.00 114.29&#10;  Q 174.13 120.46 201.53 131.63&#10;  Q 205.08 133.07 217.42 137.12&#10;  Q 235.67 143.09 254.40 142.29&#10;  Q 265.05 141.83 274.06 138.29&#10;  C 284.00 134.39 293.60 128.54 300.36 120.57&#10;  C 311.69 107.22 325.18 98.57 342.65 99.92&#10;  Q 348.42 100.37 356.83 102.52&#10;  Q 369.76 105.82 384.26 107.20&#10;  Q 399.53 108.66 414.10 107.22&#10;  Q 423.30 106.31 433.74 104.71&#10;  Q 440.71 103.64 455.14 98.89&#10;  Q 467.43 94.84 482.27 88.57&#10;  Q 482.68 88.40 482.64 88.85&#10;  Q 481.93 96.81 481.02 105.76&#10;  Q 480.81 107.81 478.87 109.28&#10;  Q 469.17 116.66 462.64 119.88&#10;  C 457.73 122.31 452.13 124.72 446.88 126.74&#10;  C 429.48 133.43 409.97 136.58 391.06 137.04&#10;  A 1.47 1.46 -84.2 0 0 389.66 138.19&#10;  Q 389.29 139.81 389.63 141.67&#10;  Q 391.65 152.76 391.09 164.74&#10;  Q 391.01 166.46 391.40 168.14&#10;  A 0.93 0.93 0.0 0 0 392.06 168.84&#10;  Q 393.76 169.35 395.20 169.39&#10;  Q 412.49 169.90 425.37 168.06&#10;  Q 435.80 166.58 446.67 164.43&#10;  C 466.55 160.50 484.05 150.92 500.14 138.71&#10;  Q 501.02 138.04 500.91 139.14&#10;  Q 499.96 148.46 500.05 158.99&#10;  Q 500.07 162.21 497.83 164.29&#10;  Q 480.77 180.16 459.25 188.76&#10;  Q 451.29 191.94 440.29 194.46&#10;  C 420.63 198.97 400.76 200.51 380.25 201.32&#10;  C 378.04 201.41 375.97 202.19 374.51 203.90&#10;  Q 369.32 209.98 362.25 215.26&#10;  Q 322.56 244.85 273.55 241.71&#10;  Q 269.56 241.45 258.57 239.81&#10;  Q 253.18 239.01 248.24 237.53&#10;  C 243.63 236.15 238.92 235.20 234.42 233.46&#10;  Q 220.00 227.85 210.11 222.86&#10;  Q 201.74 218.64 192.55 213.82&#10;  Q 176.28 205.29 157.76 198.50&#10;  Q 154.80 197.42 146.46 194.88&#10;  C 132.21 190.55 116.43 190.12 101.87 192.73&#10;  C 88.91 195.04 77.63 204.28 70.35 215.06&#10;  C 68.97 217.11 67.00 221.57 70.77 222.61&#10;  Q 79.97 225.15 88.51 226.86&#10;  Q 94.52 228.07 100.37 229.57&#10;  C 105.68 230.94 111.07 232.03 116.42 233.50&#10;  Q 145.11 241.39 174.51 251.76&#10;  C 181.66 254.29 188.89 256.32 196.27 258.96&#10;  Q 209.86 263.80 226.42 268.47&#10;  Q 230.61 269.66 235.27 270.49&#10;  C 239.28 271.21 243.07 272.56 247.19 273.07&#10;  Q 260.17 274.65 272.45 272.28&#10;  C 289.16 269.06 304.10 264.40 319.75 259.27&#10;  Q 363.01 245.10 388.28 238.32&#10;  Q 403.80 234.16 419.43 230.34&#10;  Q 426.56 228.60 433.61 227.02&#10;  C 439.94 225.60 446.33 223.81 452.49 222.40&#10;  Q 476.01 217.01 499.06 212.01&#10;  A 0.67 0.67 0.0 0 1 499.87 212.67&#10;  Q 499.47 310.90 499.61 391.00&#10;  Q 499.63 404.31 499.40 417.50&#10;  Q 499.37 419.73 498.77 421.14&#10;  Q 498.57 421.63 498.05 421.74&#10;  Q 471.20 427.94 450.56 433.90&#10;  C 404.81 447.11 359.47 464.84 315.20 484.18&#10;  Q 297.27 492.02 279.96 500.49&#10;  C 270.86 504.94 262.83 507.57 253.95 507.22&#10;  Q 249.88 507.06 244.01 504.99&#10;  C 237.73 502.78 232.32 499.70 226.39 497.09&#10;  Q 203.36 486.93 179.98 477.48&#10;  Q 155.19 467.47 130.08 457.14&#10;  Q 121.48 453.60 111.44 449.94&#10;  Q 76.65 437.24 46.72 429.87&#10;  Q 35.63 427.14 22.88 423.96&#10;  A 0.90 0.90 0.0 0 1 22.19 423.06&#10;  C 23.08 383.77 22.36 344.84 22.72 306.04&#10;  A 0.49 0.49 0.0 0 1 23.33 305.56&#10;  Q 59.94 314.51 96.94 325.63&#10;  Q 106.51 328.51 116.09 331.39&#10;  Q 156.04 343.37 195.27 357.40&#10;  Q 198.67 358.62 201.67 359.53&#10;  C 204.64 360.44 207.36 361.85 210.27 362.85&#10;  C 218.60 365.71 227.01 369.45 235.64 371.18&#10;  Q 244.83 373.02 255.95 373.52&#10;  Q 268.15 374.07 276.59 371.93&#10;  C 283.97 370.06 291.67 367.60 298.92 364.92&#10;  Q 328.92 353.82 360.01 342.99&#10;  C 368.01 340.20 376.15 337.83 384.07 335.31&#10;  A 0.45 0.44 -8.1 0 1 384.65 335.74&#10;  L 384.47 359.04&#10;  A 1.72 1.71 -9.5 0 1 383.32 360.64&#10;  Q 354.09 370.77 325.19 382.81&#10;  C 319.25 385.29 313.00 387.14 307.19 389.46&#10;  Q 294.28 394.62 281.63 398.62&#10;  C 275.55 400.54 268.58 402.25 262.18 402.29&#10;  C 248.99 402.37 235.13 398.03 222.70 393.32&#10;  Q 207.25 387.47 191.75 381.72&#10;  C 184.02 378.85 176.35 376.37 168.46 373.52&#10;  C 156.18 369.09 143.27 364.56 130.87 360.95&#10;  Q 111.16 355.22 90.49 349.37&#10;  Q 72.62 344.32 55.62 341.48&#10;  A 2.00 1.99 8.3 0 0 53.31 343.19&#10;  Q 52.77 347.52 52.75 351.76&#10;  Q 52.67 371.02 52.60 390.29&#10;  Q 52.59 393.62 52.93 397.26&#10;  Q 53.17 399.85 55.59 400.46&#10;  Q 95.91 410.61 115.89 416.68&#10;  Q 127.35 420.17 148.30 427.45&#10;  Q 157.78 430.74 167.06 434.31&#10;  Q 187.00 441.96 207.98 450.49&#10;  Q 215.98 453.74 224.98 457.93&#10;  C 233.34 461.82 242.26 464.24 251.09 466.01&#10;  C 258.02 467.40 265.53 467.01 272.29 464.64&#10;  C 275.19 463.63 278.16 463.00 281.05 461.87&#10;  Q 302.60 453.40 324.74 444.98&#10;  Q 357.58 432.49 391.04 421.33&#10;  Q 409.22 415.27 438.43 406.51&#10;  C 448.27 403.56 457.84 401.31 468.05 398.34&#10;  Q 471.15 397.44 471.15 394.35&#10;  Q 471.10 325.67 470.97 254.28&#10;  Q 470.96 252.28 470.37 250.42&#10;  Q 470.20 249.91 469.69 249.78&#10;  Z"/>
</svg>