<svg xmlns="http://www.w3.org/2000/svg" version="1.1" viewBox="0.00 0.00 569.00 500.00" width="569.00" height="500.00">
<g stroke-width="2.00" fill="none" stroke-linecap="butt">
<path stroke="#f0c67c" d="&#10;  M 297.73 150.94&#10;  L 311.09 59.20&#10;  A 0.98 0.98 0.0 0 0 310.26 58.09&#10;  Q 284.22 54.53 258.14 58.09&#10;  A 1.03 1.03 0.0 0 0 257.26 59.25&#10;  L 270.67 151.13&#10;  A 0.52 0.51 81.5 0 0 271.25 151.56&#10;  Q 284.01 149.57 296.88 151.57&#10;  A 0.75 0.74 -81.2 0 0 297.73 150.94"/>
<path stroke="#f0c67c" d="&#10;  M 226.77 170.15&#10;  C 233.50 165.14 240.90 160.77 248.62 157.58&#10;  A 1.05 1.05 0.0 0 0 249.19 156.22&#10;  L 215.14 70.74&#10;  A 1.19 1.18 -21.8 0 0 213.59 70.08&#10;  Q 189.14 80.09 168.65 96.10&#10;  A 0.96 0.95 51.9 0 0 168.49 97.45&#10;  L 225.72 170.01&#10;  A 0.76 0.76 0.0 0 0 226.77 170.15"/>
<path stroke="#f0c67c" d="&#10;  M 399.20 95.65&#10;  C 385.05 84.85 370.25 76.31 354.25 69.93&#10;  A 0.69 0.69 0.0 0 0 353.36 70.32&#10;  L 319.26 156.04&#10;  A 1.22 1.21 -67.8 0 0 319.92 157.61&#10;  Q 331.55 162.54 341.25 170.10&#10;  A 1.05 1.03 -51.6 0 0 342.71 169.92&#10;  L 399.50 97.97&#10;  Q 400.53 96.66 399.20 95.65"/>
<path stroke="#f0c67c" d="&#10;  M 198.81 205.94&#10;  Q 203.71 195.30 210.64 186.35&#10;  A 0.41 0.40 -53.4 0 0 210.56 185.78&#10;  Q 205.03 181.70 198.89 176.83&#10;  Q 167.75 152.16 137.41 128.25&#10;  A 0.76 0.76 0.0 0 0 136.35 128.38&#10;  Q 120.77 148.17 110.76 172.13&#10;  Q 110.31 173.22 110.34 174.39&#10;  Q 110.36 174.84 110.77 175.01&#10;  L 196.52 209.17&#10;  A 0.90 0.89 -68.9 0 0 197.70 208.64&#10;  Q 198.20 207.26 198.81 205.94"/>
<path stroke="#f0c67c" d="&#10;  M 371.69 209.21&#10;  L 457.31 175.13&#10;  Q 458.61 174.61 458.09 173.32&#10;  Q 448.50 149.61 431.99 128.33&#10;  A 0.73 0.72 52.0 0 0 430.97 128.20&#10;  L 358.36 185.58&#10;  A 0.94 0.94 0.0 0 0 358.19 186.89&#10;  Q 365.89 197.14 370.82 208.84&#10;  Q 371.08 209.45 371.69 209.21"/>
<path stroke="#f0c67c" d="&#10;  M 305.96 168.48&#10;  C 266.33 157.65 226.28 177.27 210.09 214.75&#10;  Q 207.71 220.24 206.44 225.76&#10;  Q 206.29 226.39 206.89 226.63&#10;  C 240.18 240.27 267.52 261.85 283.75 293.98&#10;  A 0.43 0.43 0.0 0 0 284.52 293.98&#10;  C 300.70 262.07 327.78 240.55 361.61 226.54&#10;  A 0.78 0.76 70.9 0 0 362.05 225.61&#10;  Q 352.52 192.76 324.36 176.34&#10;  Q 315.24 171.02 305.96 168.48"/>
<path stroke="#b1a596" d="&#10;  M 274.81 295.46&#10;  L 274.81 295.45&#10;  Q 274.92 295.40 274.87 295.29&#10;  Q 265.51 275.48 249.65 260.37&#10;  C 227.80 239.57 198.93 226.76 169.15 220.28&#10;  Q 131.55 212.10 91.34 214.12&#10;  Q 91.18 214.12 91.18 214.28&#10;  L 91.18 214.29&#10;  Q 91.18 214.45 91.35 214.46&#10;  Q 100.65 215.06 109.99 215.73&#10;  Q 141.04 217.95 170.89 225.36&#10;  C 212.86 235.77 252.08 257.08 274.52 295.38&#10;  Q 274.63 295.55 274.81 295.46"/>
<path stroke="#b1a596" d="&#10;  M 293.85 295.19&#10;  C 331.09 232.11 409.92 217.78 476.82 214.53&#10;  Q 476.86 214.52 476.86 214.48&#10;  L 476.86 214.23&#10;  Q 476.86 214.04 476.67 214.03&#10;  C 408.61 211.27 326.66 227.46 293.49 295.07&#10;  Q 293.43 295.20 293.55 295.27&#10;  L 293.56 295.27&#10;  Q 293.74 295.37 293.85 295.19"/>
<path stroke="#b1a596" d="&#10;  M 177.50 242.83&#10;  C 205.44 249.39 233.24 260.59 255.65 279.03&#10;  C 259.06 281.84 262.30 285.30 265.56 288.38&#10;  Q 265.71 288.53 265.87 288.38&#10;  L 265.87 288.38&#10;  Q 266.01 288.25 265.90 288.10&#10;  C 249.04 267.13 226.62 253.62 201.07 244.81&#10;  C 165.88 232.67 127.32 228.70 90.12 230.77&#10;  Q 89.94 230.78 89.94 230.96&#10;  L 89.94 230.97&#10;  Q 89.94 231.10 90.06 231.10&#10;  Q 102.94 231.88 115.48 232.95&#10;  Q 146.94 235.65 177.50 242.83"/>
<path stroke="#b1a596" d="&#10;  M 356.95 253.46&#10;  Q 384.25 242.79 417.71 237.37&#10;  Q 448.06 232.46 478.36 231.27&#10;  Q 478.39 231.27 478.39 231.24&#10;  L 478.39 230.99&#10;  Q 478.39 230.74 478.15 230.73&#10;  Q 441.86 228.80 406.31 234.83&#10;  C 367.52 241.41 327.45 256.55 302.53 288.10&#10;  Q 302.42 288.24 302.55 288.35&#10;  L 302.56 288.35&#10;  Q 302.71 288.48 302.84 288.34&#10;  C 317.74 272.64 336.76 261.34 356.95 253.46"/>
<path stroke="#b1a596" d="&#10;  M 202.52 262.87&#10;  C 219.45 267.10 237.02 272.97 252.32 281.89&#10;  Q 252.39 281.93 252.43 281.86&#10;  L 252.57 281.65&#10;  Q 252.63 281.55 252.54 281.48&#10;  C 235.54 269.19 214.93 261.33 194.25 256.31&#10;  Q 140.82 243.35 84.62 247.35&#10;  Q 84.43 247.37 84.43 247.55&#10;  L 84.43 247.56&#10;  Q 84.44 247.68 84.55 247.68&#10;  C 123.86 249.30 165.34 253.58 202.52 262.87"/>
<path stroke="#b1a596" d="&#10;  M 479.87 247.86&#10;  Q 481.52 247.78 483.29 247.64&#10;  Q 483.44 247.63 483.43 247.48&#10;  L 483.43 247.47&#10;  Q 483.43 247.32 483.28 247.31&#10;  Q 426.98 243.41 373.66 256.42&#10;  C 353.21 261.41 332.86 269.30 315.85 281.42&#10;  Q 315.73 281.51 315.78 281.65&#10;  L 315.88 281.91&#10;  Q 315.90 281.96 316.00 281.90&#10;  Q 324.04 277.12 332.09 273.86&#10;  Q 356.08 264.14 385.46 258.45&#10;  C 416.63 252.40 447.81 249.42 479.87 247.86"/>
<path stroke="#b1a596" d="&#10;  M 89.19 262.87&#10;  Q 82.70 263.24 76.29 263.91&#10;  Q 76.18 263.92 76.18 264.03&#10;  L 76.18 264.04&#10;  Q 76.19 264.17 76.32 264.18&#10;  C 82.26 264.58 88.13 264.46 94.13 264.72&#10;  Q 105.60 265.21 117.47 265.77&#10;  Q 165.00 267.98 210.23 274.26&#10;  Q 219.22 275.50 238.45 279.81&#10;  Q 238.54 279.83 238.57 279.74&#10;  L 238.63 279.45&#10;  Q 238.67 279.26 238.49 279.20&#10;  Q 213.26 270.66 186.47 266.84&#10;  Q 138.64 260.03 89.19 262.87"/>
<path stroke="#b1a596" d="&#10;  M 492.32 264.05&#10;  Q 492.32 263.87 492.14 263.86&#10;  Q 441.05 259.32 389.06 265.87&#10;  C 369.21 268.37 348.78 272.35 329.83 279.39&#10;  Q 329.75 279.42 329.77 279.51&#10;  L 329.77 279.52&#10;  Q 329.80 279.62 329.91 279.60&#10;  Q 366.63 271.92 404.98 268.82&#10;  Q 451.00 265.10 492.11 264.26&#10;  Q 492.31 264.26 492.32 264.06&#10;  L 492.32 264.05"/>
<path stroke="#b1a596" d="&#10;  M 233.56 283.04&#10;  Q 206.42 279.10 179.01 277.80&#10;  C 147.74 276.31 116.56 276.36 85.79 278.65&#10;  Q 74.02 279.53 64.18 281.04&#10;  Q 64.12 281.05 64.08 280.99&#10;  Q 64.07 280.99 64.11 281.12&#10;  Q 64.13 281.19 64.22 281.19&#10;  Q 136.74 280.99 209.22 282.66&#10;  C 217.13 282.85 225.38 283.47 233.42 283.43&#10;  Q 233.54 283.43 233.55 283.30&#10;  L 233.57 283.05&#10;  Q 233.57 283.04 233.56 283.04"/>
<path stroke="#b1a596" d="&#10;  M 503.27 281.09&#10;  Q 499.01 280.08 494.51 279.66&#10;  C 455.85 276.00 417.33 275.95 377.57 278.51&#10;  Q 355.51 279.93 334.45 283.13&#10;  A 0.04 0.04 0.0 0 0 334.45 283.21&#10;  Q 336.02 283.60 337.74 283.51&#10;  Q 347.16 283.01 356.00 282.79&#10;  Q 429.08 280.94 503.86 281.19&#10;  Q 503.89 281.19 503.90 281.17&#10;  Q 503.92 281.10 503.85 281.11&#10;  Q 503.80 281.11 503.75 281.11&#10;  Q 503.50 281.14 503.27 281.09"/>
<path stroke="#b1a596" d="&#10;  M 308.98 298.46&#10;  C 307.91 301.72 303.71 302.41 300.68 302.39&#10;  Q 284.85 302.32 269.68 302.39&#10;  C 265.78 302.41 259.69 302.55 259.10 297.19&#10;  C 258.52 291.86 256.26 287.51 250.10 287.51&#10;  Q 156.02 287.52 65.50 287.50&#10;  Q 61.00 287.50 58.36 290.36&#10;  C 54.79 294.24 55.67 300.48 59.96 303.35&#10;  Q 62.12 304.79 65.47 304.79&#10;  Q 153.15 304.73 236.84 304.78&#10;  C 242.76 304.78 240.98 310.77 242.36 314.11&#10;  Q 244.65 319.64 250.90 319.64&#10;  Q 284.99 319.64 317.66 319.65&#10;  Q 323.09 319.65 325.63 314.90&#10;  C 327.65 311.12 325.13 304.76 331.96 304.76&#10;  Q 417.22 304.76 503.13 304.77&#10;  C 515.28 304.77 515.38 287.48 502.58 287.49&#10;  Q 411.00 287.56 319.23 287.48&#10;  C 314.99 287.48 311.51 289.00 309.96 293.20&#10;  C 309.33 294.92 309.54 296.75 308.98 298.46"/>
<path stroke="#f0c67c" d="&#10;  M 167.9191 349.3836&#10;  A 12.98 12.98 0.0 0 0 154.9618 336.3810&#10;  L 153.8818 336.3791&#10;  A 12.98 12.98 0.0 0 0 140.8792 349.3364&#10;  L 140.8009 394.1964&#10;  A 12.98 12.98 0.0 0 0 153.7582 407.1990&#10;  L 154.8382 407.2009&#10;  A 12.98 12.98 0.0 0 0 167.8408 394.2436&#10;  L 167.9191 349.3836"/>
<path stroke="#f0c67c" d="&#10;  M 359.34 348.77&#10;  C 360.50 344.14 364.79 345.09 365.82 349.14&#10;  Q 366.53 351.93 366.54 354.49&#10;  Q 366.54 355.69 367.74 355.58&#10;  L 375.28 354.89&#10;  Q 376.52 354.78 376.49 353.53&#10;  C 376.39 347.69 374.77 339.91 368.51 337.41&#10;  Q 361.48 334.61 355.71 338.16&#10;  C 345.44 344.47 348.50 359.56 354.29 368.17&#10;  Q 359.29 375.59 363.94 382.79&#10;  Q 367.64 388.51 365.99 394.98&#10;  C 365.11 398.46 360.57 398.92 359.00 395.81&#10;  Q 357.60 393.05 357.41 386.44&#10;  Q 357.40 386.18 357.14 386.20&#10;  L 347.81 387.09&#10;  Q 347.54 387.12 347.53 387.39&#10;  C 347.19 396.25 349.35 406.04 359.87 407.21&#10;  C 367.78 408.09 374.04 404.87 375.82 396.71&#10;  Q 377.76 387.86 374.23 380.39&#10;  C 371.13 373.85 365.90 366.91 361.68 360.32&#10;  Q 357.92 354.46 359.34 348.77"/>
<path stroke="#f0c67c" d="&#10;  M 137.20 397.91&#10;  A 0.81 0.81 0.0 0 0 136.38 397.11&#10;  L 124.43 397.18&#10;  A 0.81 0.81 0.0 0 1 123.61 396.37&#10;  L 123.59 337.75&#10;  A 0.81 0.81 0.0 0 0 122.78 336.94&#10;  L 114.34 336.98&#10;  A 0.81 0.81 0.0 0 0 113.53 337.79&#10;  L 113.51 405.71&#10;  A 0.81 0.81 0.0 0 0 114.32 406.52&#10;  L 136.45 406.58&#10;  A 0.81 0.81 0.0 0 0 137.26 405.76&#10;  L 137.20 397.91"/>
<path stroke="#f0c67c" d="&#10;  M 266.60 360.57&#10;  Q 266.88 360.51 266.88 360.80&#10;  L 266.83 406.18&#10;  Q 266.83 406.52 267.18 406.53&#10;  L 275.98 406.63&#10;  A 0.36 0.36 0.0 0 0 276.34 406.27&#10;  L 276.36 338.05&#10;  A 1.07 1.06 90.0 0 0 275.30 336.98&#10;  L 264.16 336.99&#10;  A 0.41 0.40 5.1 0 0 263.76 337.32&#10;  L 257.35 371.47&#10;  Q 257.19 372.31 257.03 371.47&#10;  L 250.79 338.06&#10;  A 1.26 1.26 0.0 0 0 249.56 337.03&#10;  L 238.46 336.95&#10;  Q 238.12 336.95 238.12 337.29&#10;  L 238.11 405.94&#10;  A 0.58 0.57 0.0 0 0 238.69 406.51&#10;  L 246.92 406.57&#10;  A 0.59 0.59 0.0 0 0 247.52 405.98&#10;  L 247.54 360.40&#10;  A 0.30 0.30 0.0 0 1 247.82 360.10&#10;  L 248.12 360.08&#10;  Q 248.29 360.07 248.32 360.24&#10;  Q 251.41 382.62 254.66 405.02&#10;  Q 254.88 406.53 256.75 406.68&#10;  Q 259.42 406.89 259.74 404.74&#10;  Q 262.87 383.41 266.18 360.76&#10;  Q 266.20 360.65 266.31 360.63&#10;  L 266.60 360.57"/>
<path stroke="#f0c67c" d="&#10;  M 308.71 337.34&#10;  A 0.38 0.38 0.0 0 0 308.33 336.96&#10;  L 298.87 336.96&#10;  A 0.38 0.38 0.0 0 0 298.49 337.34&#10;  L 298.49 406.20&#10;  A 0.38 0.38 0.0 0 0 298.87 406.58&#10;  L 308.33 406.58&#10;  A 0.38 0.38 0.0 0 0 308.71 406.20&#10;  L 308.71 337.34"/>
<path stroke="#f0c67c" d="&#10;  M 326.50 379.50&#10;  Q 326.50 378.63 327.36 378.63&#10;  C 336.93 378.56 343.13 371.84 344.16 362.68&#10;  C 345.19 353.52 343.76 341.92 333.71 338.27&#10;  C 328.54 336.40 322.15 337.13 316.61 336.94&#10;  A 0.34 0.34 0.0 0 0 316.25 337.28&#10;  L 316.26 405.94&#10;  A 0.69 0.68 -90.0 0 0 316.94 406.63&#10;  L 325.56 406.64&#10;  A 0.95 0.94 90.0 0 0 326.50 405.69&#10;  L 326.50 379.50"/>
<path stroke="#f0c67c" d="&#10;  M 397.32 396.73&#10;  Q 396.40 397.69 395.48 397.50&#10;  Q 392.20 396.80 392.20 392.80&#10;  Q 392.17 363.28 392.22 338.02&#10;  A 1.08 1.08 0.0 0 0 391.14 336.94&#10;  L 382.41 336.98&#10;  A 0.42 0.42 0.0 0 0 381.99 337.40&#10;  Q 381.87 364.70 381.94 391.35&#10;  C 381.97 399.10 385.34 406.41 393.91 407.25&#10;  Q 404.03 408.24 407.94 398.85&#10;  Q 409.17 395.87 409.18 392.74&#10;  Q 409.29 363.82 409.17 337.63&#10;  A 0.67 0.66 0.0 0 0 408.50 336.97&#10;  L 399.49 337.01&#10;  Q 399.00 337.01 399.00 337.51&#10;  L 398.99 392.56&#10;  Q 398.99 394.98 397.32 396.73"/>
<path stroke="#f0c67c" d="&#10;  M 435.55 370.98&#10;  L 429.41 337.99&#10;  A 1.20 1.20 0.0 0 0 428.23 337.01&#10;  L 417.33 337.01&#10;  Q 416.67 337.01 416.67 337.67&#10;  L 416.69 405.83&#10;  Q 416.69 406.71 417.57 406.70&#10;  L 425.22 406.61&#10;  A 0.88 0.88 0.0 0 0 426.09 405.74&#10;  Q 426.37 383.00 426.10 361.38&#10;  Q 426.10 360.81 426.41 360.38&#10;  A 0.32 0.32 0.0 0 1 426.98 360.51&#10;  C 427.31 362.07 427.15 363.58 427.39 365.15&#10;  Q 430.42 385.06 433.52 405.90&#10;  A 1.00 0.99 -5.9 0 0 434.57 406.75&#10;  L 437.18 406.57&#10;  A 1.05 1.04 2.0 0 0 438.14 405.68&#10;  L 444.84 360.21&#10;  Q 444.85 360.15 444.91 360.16&#10;  L 445.19 360.18&#10;  Q 445.49 360.20 445.49 360.51&#10;  L 445.53 406.26&#10;  A 0.42 0.41 88.7 0 0 445.96 406.68&#10;  L 454.68 406.45&#10;  A 0.27 0.27 0.0 0 0 454.94 406.18&#10;  L 454.88 337.63&#10;  A 0.63 0.63 0.0 0 0 454.26 337.00&#10;  L 443.28 336.96&#10;  A 1.05 1.05 0.0 0 0 442.25 337.80&#10;  L 435.98 370.98&#10;  Q 435.76 372.13 435.55 370.98"/>
<path stroke="#f0c67c" d="&#10;  M 186.01 376.89&#10;  Q 187.75 376.92 188.05 378.58&#10;  Q 190.58 392.23 192.96 405.87&#10;  Q 193.07 406.51 193.72 406.51&#10;  L 203.00 406.55&#10;  A 0.30 0.30 0.0 0 0 203.29 406.19&#10;  Q 200.36 391.23 197.45 376.76&#10;  Q 197.15 375.24 197.18 373.50&#10;  Q 197.19 372.89 197.59 372.44&#10;  C 202.61 366.78 203.11 358.90 202.04 351.24&#10;  C 199.87 335.75 187.31 336.71 175.30 337.04&#10;  A 0.45 0.45 0.0 0 0 174.86 337.49&#10;  L 174.88 405.84&#10;  A 0.71 0.71 0.0 0 0 175.59 406.55&#10;  L 184.29 406.58&#10;  A 0.76 0.75 -0.4 0 0 185.05 405.82&#10;  Q 184.97 394.35 185.09 382.31&#10;  Q 185.11 380.02 185.31 377.53&#10;  A 0.69 0.69 0.0 0 1 186.01 376.89"/>
<path stroke="#f0c67c" d="&#10;  M 219.86 365.73&#10;  A 0.73 0.73 0.0 0 1 219.14 365.00&#10;  L 219.16 348.30&#10;  A 0.73 0.73 0.0 0 1 219.89 347.57&#10;  L 231.67 347.57&#10;  A 0.73 0.73 0.0 0 0 232.40 346.84&#10;  L 232.36 337.75&#10;  A 0.73 0.73 0.0 0 0 231.63 337.02&#10;  L 209.79 336.98&#10;  A 0.73 0.73 0.0 0 0 209.06 337.71&#10;  L 209.03 405.78&#10;  A 0.73 0.73 0.0 0 0 209.76 406.51&#10;  L 231.64 406.55&#10;  A 0.73 0.73 0.0 0 0 232.37 405.82&#10;  L 232.34 396.72&#10;  A 0.73 0.73 0.0 0 0 231.60 395.99&#10;  L 219.95 396.10&#10;  A 0.73 0.73 0.0 0 1 219.21 395.37&#10;  L 219.19 377.67&#10;  A 0.73 0.73 0.0 0 1 219.93 376.94&#10;  L 227.98 377.00&#10;  A 0.73 0.73 0.0 0 0 228.72 376.27&#10;  L 228.71 366.63&#10;  A 0.73 0.73 0.0 0 0 228.00 365.90&#10;  L 219.86 365.73"/>
<path stroke="#b1a596" d="&#10;  M 167.59 429.70&#10;  C 162.93 425.07 155.54 427.11 152.97 432.96&#10;  C 150.95 437.56 151.35 443.48 154.85 447.20&#10;  C 158.32 450.90 164.64 450.77 167.80 446.75&#10;  Q 168.71 445.60 168.71 447.06&#10;  Q 168.71 447.74 168.62 448.42&#10;  A 0.90 0.90 0.0 0 0 169.51 449.43&#10;  L 171.52 449.45&#10;  Q 172.25 449.45 172.24 448.73&#10;  L 172.20 418.50&#10;  Q 172.20 417.55 171.25 417.53&#10;  L 169.19 417.49&#10;  Q 168.10 417.47 168.11 418.56&#10;  L 168.15 429.47&#10;  Q 168.16 430.27 167.59 429.70"/>
<path stroke="#b1a596" d="&#10;  M 207.26 418.09&#10;  A 0.55 0.55 0.0 0 0 206.71 417.54&#10;  L 203.79 417.54&#10;  A 0.55 0.55 0.0 0 0 203.24 418.09&#10;  L 203.24 448.83&#10;  A 0.55 0.55 0.0 0 0 203.79 449.38&#10;  L 206.71 449.38&#10;  A 0.55 0.55 0.0 0 0 207.26 448.83&#10;  L 207.26 418.09"/>
<path stroke="#b1a596" d="&#10;  M 284.75 421.59&#10;  A 2.44 2.44 0.0 0 0 282.31 419.15&#10;  A 2.44 2.44 0.0 0 0 279.87 421.59&#10;  A 2.44 2.44 0.0 0 0 282.31 424.03&#10;  A 2.44 2.44 0.0 0 0 284.75 421.59"/>
<path stroke="#b1a596" d="&#10;  M 410.78 427.25&#10;  L 410.86 422.23&#10;  Q 410.88 421.28 409.98 421.57&#10;  L 407.83 422.26&#10;  Q 406.98 422.53 406.99 423.41&#10;  L 407.03 427.12&#10;  Q 407.04 427.78 406.38 427.74&#10;  L 404.49 427.62&#10;  Q 403.85 427.58 403.71 428.21&#10;  Q 403.48 429.25 403.67 430.28&#10;  Q 403.76 430.76 404.25 430.75&#10;  L 406.31 430.70&#10;  Q 406.95 430.69 406.98 431.33&#10;  Q 407.15 436.05 406.97 440.92&#10;  C 406.75 446.84 408.49 451.20 415.59 449.47&#10;  Q 416.35 449.29 416.32 448.50&#10;  L 416.27 447.25&#10;  Q 416.24 446.42 415.43 446.57&#10;  Q 411.07 447.39 410.94 443.13&#10;  Q 410.78 437.72 410.83 431.31&#10;  Q 410.84 430.72 411.43 430.72&#10;  L 415.78 430.73&#10;  Q 416.78 430.73 416.74 429.72&#10;  L 416.70 428.81&#10;  Q 416.65 427.71 415.56 427.72&#10;  L 411.25 427.73&#10;  Q 410.77 427.74 410.78 427.25"/>
<path stroke="#b1a596" d="&#10;  M 291.26 427.75&#10;  L 289.24 427.66&#10;  A 0.87 0.87 0.0 0 0 288.33 428.50&#10;  L 288.30 429.72&#10;  Q 288.27 430.68 289.22 430.71&#10;  L 291.07 430.77&#10;  Q 291.76 430.79 291.75 431.48&#10;  Q 291.68 437.30 291.70 443.09&#10;  C 291.71 448.87 295.02 450.49 300.28 449.54&#10;  Q 300.75 449.45 300.89 448.99&#10;  Q 301.13 448.22 301.08 447.29&#10;  Q 301.04 446.69 300.44 446.66&#10;  L 297.95 446.56&#10;  A 2.38 2.37 1.1 0 1 295.68 444.20&#10;  L 295.60 431.31&#10;  Q 295.60 430.72 296.19 430.72&#10;  L 300.42 430.73&#10;  Q 301.33 430.74 301.28 429.83&#10;  L 301.21 428.55&#10;  Q 301.17 427.69 300.30 427.69&#10;  L 296.04 427.73&#10;  Q 295.60 427.73 295.61 427.29&#10;  L 295.70 422.70&#10;  Q 295.72 421.37 294.44 421.71&#10;  L 292.74 422.15&#10;  A 1.37 1.37 0.0 0 0 291.73 423.50&#10;  L 291.79 427.24&#10;  Q 291.79 427.77 291.26 427.75"/>
<path stroke="#b1a596" d="&#10;  M 186.8200 449.9562&#10;  A 11.47 10.72 94.4 0 0 198.3884 439.3424&#10;  A 11.47 10.72 94.4 0 0 188.5800 427.0838&#10;  A 11.47 10.72 94.4 0 0 177.0116 437.6976&#10;  A 11.47 10.72 94.4 0 0 186.8200 449.9562"/>
<path stroke="#b1a596" d="&#10;  M 221.7996 449.9591&#10;  A 11.48 10.74 95.4 0 0 233.5723 439.5407&#10;  A 11.48 10.74 95.4 0 0 223.9604 427.1009&#10;  A 11.48 10.74 95.4 0 0 212.1877 437.5193&#10;  A 11.48 10.74 95.4 0 0 221.7996 449.9591"/>
<path stroke="#b1a596" d="&#10;  M 241.70 430.81&#10;  L 241.76 428.43&#10;  Q 241.78 427.58 240.93 427.58&#10;  L 239.17 427.56&#10;  Q 238.40 427.56 238.40 428.33&#10;  L 238.54 448.74&#10;  Q 238.54 449.43 239.24 449.42&#10;  L 241.77 449.37&#10;  Q 242.45 449.36 242.44 448.67&#10;  Q 242.24 440.46 242.46 437.26&#10;  Q 242.91 430.77 248.92 430.81&#10;  Q 249.34 430.81 249.32 430.39&#10;  L 249.20 427.80&#10;  Q 249.19 427.40 248.79 427.34&#10;  C 245.47 426.86 244.05 428.64 242.32 431.02&#10;  Q 241.67 431.91 241.70 430.81"/>
<path stroke="#b1a596" d="&#10;  M 265.65 432.30&#10;  Q 267.15 428.63 273.34 431.24&#10;  A 0.60 0.60 0.0 0 0 274.17 430.73&#10;  L 274.29 429.02&#10;  Q 274.33 428.42 273.77 428.18&#10;  C 269.93 426.53 264.41 426.76 262.31 430.98&#10;  C 259.73 436.19 264.89 438.76 268.75 440.25&#10;  C 271.06 441.15 272.51 443.32 270.85 445.66&#10;  A 2.11 2.07 -80.6 0 1 269.77 446.45&#10;  Q 266.17 447.53 262.86 445.73&#10;  Q 261.94 445.23 261.69 446.25&#10;  L 261.35 447.67&#10;  Q 261.12 448.61 262.03 448.93&#10;  C 265.94 450.28 272.13 450.53 274.50 446.39&#10;  Q 275.69 444.31 275.13 441.95&#10;  C 274.22 438.08 270.26 437.17 267.21 435.66&#10;  Q 264.77 434.45 265.65 432.30"/>
<path stroke="#b1a596" d="&#10;  M 327.01 447.53&#10;  L 327.24 448.78&#10;  A 0.77 0.77 0.0 0 0 327.96 449.41&#10;  L 330.00 449.51&#10;  Q 330.77 449.55 330.70 448.79&#10;  Q 330.29 444.34 330.51 439.25&#10;  C 330.81 432.10 329.22 426.19 320.25 427.37&#10;  Q 317.74 427.70 315.58 428.79&#10;  Q 314.91 429.13 315.18 429.84&#10;  L 315.70 431.22&#10;  Q 315.91 431.77 316.42 431.48&#10;  Q 319.76 429.60 323.38 430.32&#10;  A 3.70 3.70 0.0 0 1 326.23 432.92&#10;  L 326.43 433.63&#10;  Q 327.03 435.71 324.86 435.71&#10;  C 321.12 435.71 316.58 436.69 314.44 440.10&#10;  C 312.47 443.23 313.55 447.70 317.03 449.18&#10;  Q 321.91 451.26 326.32 447.29&#10;  Q 326.88 446.79 327.01 447.53"/>
<path stroke="#b1a596" d="&#10;  M 349.52 430.45&#10;  L 349.55 428.25&#10;  Q 349.57 427.43 348.75 427.50&#10;  L 347.06 427.63&#10;  Q 346.32 427.69 346.32 428.44&#10;  L 346.37 448.93&#10;  Q 346.37 449.24 346.68 449.26&#10;  L 349.72 449.46&#10;  A 0.44 0.44 0.0 0 0 350.19 449.03&#10;  Q 350.28 443.06 350.18 436.87&#10;  C 350.05 429.21 359.82 427.78 359.86 435.88&#10;  Q 359.89 442.74 359.81 448.79&#10;  Q 359.80 449.36 360.37 449.37&#10;  L 363.25 449.43&#10;  Q 363.80 449.43 363.79 448.88&#10;  Q 363.58 441.88 363.84 435.48&#10;  C 364.03 430.57 371.26 428.16 372.86 433.27&#10;  Q 373.57 435.54 373.56 438.26&#10;  Q 373.53 443.54 373.46 448.62&#10;  Q 373.45 449.44 374.27 449.44&#10;  L 376.82 449.44&#10;  Q 377.26 449.44 377.26 449.00&#10;  Q 377.33 442.65 377.22 435.77&#10;  C 377.12 429.99 373.39 425.67 367.18 427.72&#10;  C 365.69 428.21 364.36 429.49 363.51 430.78&#10;  Q 363.06 431.44 362.62 430.78&#10;  Q 358.99 425.30 352.81 428.15&#10;  C 351.76 428.64 350.91 429.81 350.16 430.69&#10;  Q 349.50 431.47 349.52 430.45"/>
<path stroke="#b1a596" d="&#10;  M 388.03 439.32&#10;  L 400.49 439.30&#10;  A 0.72 0.71 -87.4 0 0 401.20 438.65&#10;  C 401.83 431.74 397.67 425.91 390.00 427.50&#10;  C 381.85 429.19 379.57 441.64 385.22 447.09&#10;  C 388.75 450.50 394.38 450.20 398.81 449.00&#10;  Q 400.19 448.63 399.89 447.23&#10;  L 399.83 446.94&#10;  Q 399.56 445.70 398.35 446.06&#10;  Q 394.69 447.15 391.03 446.53&#10;  A 5.55 5.54 -7.0 0 1 386.87 443.28&#10;  L 386.29 441.98&#10;  Q 385.13 439.32 388.03 439.32"/>
<path stroke="#b1a596" d="&#10;  M 284.3341 428.2330&#10;  A 0.61 0.61 0.0 0 0 283.7220 427.6252&#10;  L 280.9220 427.6350&#10;  A 0.61 0.61 0.0 0 0 280.3142 428.2471&#10;  L 280.3859 448.7870&#10;  A 0.61 0.61 0.0 0 0 280.9980 449.3948&#10;  L 283.7980 449.3850&#10;  A 0.61 0.61 0.0 0 0 284.4058 448.7729&#10;  L 284.3341 428.2330"/>
<path stroke="#f0c67c" d="&#10;  M 157.69 349.68&#10;  A 3.36 3.36 0.0 0 0 154.33 346.32&#10;  L 154.21 346.32&#10;  A 3.36 3.36 0.0 0 0 150.85 349.68&#10;  L 150.85 394.00&#10;  A 3.36 3.36 0.0 0 0 154.21 397.36&#10;  L 154.33 397.36&#10;  A 3.36 3.36 0.0 0 0 157.69 394.00&#10;  L 157.69 349.68"/>
<path stroke="#f0c67c" d="&#10;  M 326.49 348.06&#10;  L 326.45 367.82&#10;  A 0.69 0.69 0.0 0 0 327.14 368.51&#10;  L 327.51 368.52&#10;  A 6.89 6.62 -89.9 0 0 334.14 361.64&#10;  L 334.16 354.28&#10;  A 6.89 6.62 -89.9 0 0 327.55 347.38&#10;  L 327.18 347.37&#10;  A 0.69 0.69 0.0 0 0 326.49 348.06"/>
<path stroke="#f0c67c" d="&#10;  M 185.03 347.21&#10;  L 185.07 367.69&#10;  A 0.19 0.19 0.0 0 0 185.26 367.88&#10;  L 185.41 367.88&#10;  A 7.79 7.14 89.9 0 0 192.53 360.07&#10;  L 192.53 354.79&#10;  A 7.79 7.14 89.9 0 0 185.37 347.02&#10;  L 185.22 347.02&#10;  A 0.19 0.19 0.0 0 0 185.03 347.21"/>
<path stroke="#b1a596" d="&#10;  M 161.8717 446.8771&#10;  A 8.34 6.36 91.5 0 0 168.4478 438.7065&#10;  A 8.34 6.36 91.5 0 0 162.3083 430.2029&#10;  A 8.34 6.36 91.5 0 0 155.7322 438.3735&#10;  A 8.34 6.36 91.5 0 0 161.8717 446.8771"/>
<path stroke="#b1a596" d="&#10;  M 187.5270 447.0090&#10;  A 8.47 6.64 90.9 0 0 194.2992 438.6443&#10;  A 8.47 6.64 90.9 0 0 187.7930 430.0710&#10;  A 8.47 6.64 90.9 0 0 181.0208 438.4357&#10;  A 8.47 6.64 90.9 0 0 187.5270 447.0090"/>
<path stroke="#b1a596" d="&#10;  M 222.8600 446.9600&#10;  A 8.43 6.64 90.0 0 0 229.5000 438.5300&#10;  A 8.43 6.64 90.0 0 0 222.8600 430.1000&#10;  A 8.43 6.64 90.0 0 0 216.2200 438.5300&#10;  A 8.43 6.64 90.0 0 0 222.8600 446.9600"/>
<path stroke="#b1a596" d="&#10;  M 326.52 438.88&#10;  Q 326.43 438.36 325.91 438.36&#10;  Q 322.92 438.34 320.42 439.17&#10;  C 315.14 440.91 317.34 448.93 323.22 446.59&#10;  Q 327.53 444.88 326.52 438.88"/>
<path stroke="#b1a596" d="&#10;  M 386.45 436.52&#10;  L 397.27 436.38&#10;  A 0.26 0.26 0.0 0 0 397.53 436.12&#10;  L 397.52 435.75&#10;  A 5.75 5.67 89.3 0 0 391.78 430.07&#10;  L 391.78 430.07&#10;  A 5.75 5.67 89.3 0 0 386.18 435.89&#10;  L 386.19 436.26&#10;  A 0.26 0.26 0.0 0 0 386.45 436.52"/>
</g>
<path fill="#f6f6f6" d="&#10;  M 0.00 0.00&#10;  L 569.00 0.00&#10;  L 569.00 500.00&#10;  L 0.00 500.00&#10;  L 0.00 0.00&#10;  Z&#10;  M 297.73 150.94&#10;  L 311.09 59.20&#10;  A 0.98 0.98 0.0 0 0 310.26 58.09&#10;  Q 284.22 54.53 258.14 58.09&#10;  A 1.03 1.03 0.0 0 0 257.26 59.25&#10;  L 270.67 151.13&#10;  A 0.52 0.51 81.5 0 0 271.25 151.56&#10;  Q 284.01 149.57 296.88 151.57&#10;  A 0.75 0.74 -81.2 0 0 297.73 150.94&#10;  Z&#10;  M 226.77 170.15&#10;  C 233.50 165.14 240.90 160.77 248.62 157.58&#10;  A 1.05 1.05 0.0 0 0 249.19 156.22&#10;  L 215.14 70.74&#10;  A 1.19 1.18 -21.8 0 0 213.59 70.08&#10;  Q 189.14 80.09 168.65 96.10&#10;  A 0.96 0.95 51.9 0 0 168.49 97.45&#10;  L 225.72 170.01&#10;  A 0.76 0.76 0.0 0 0 226.77 170.15&#10;  Z&#10;  M 399.20 95.65&#10;  C 385.05 84.85 370.25 76.31 354.25 69.93&#10;  A 0.69 0.69 0.0 0 0 353.36 70.32&#10;  L 319.26 156.04&#10;  A 1.22 1.21 -67.8 0 0 319.92 157.61&#10;  Q 331.55 162.54 341.25 170.10&#10;  A 1.05 1.03 -51.6 0 0 342.71 169.92&#10;  L 399.50 97.97&#10;  Q 400.53 96.66 399.20 95.65&#10;  Z&#10;  M 198.81 205.94&#10;  Q 203.71 195.30 210.64 186.35&#10;  A 0.41 0.40 -53.4 0 0 210.56 185.78&#10;  Q 205.03 181.70 198.89 176.83&#10;  Q 167.75 152.16 137.41 128.25&#10;  A 0.76 0.76 0.0 0 0 136.35 128.38&#10;  Q 120.77 148.17 110.76 172.13&#10;  Q 110.31 173.22 110.34 174.39&#10;  Q 110.36 174.84 110.77 175.01&#10;  L 196.52 209.17&#10;  A 0.90 0.89 -68.9 0 0 197.70 208.64&#10;  Q 198.20 207.26 198.81 205.94&#10;  Z&#10;  M 371.69 209.21&#10;  L 457.31 175.13&#10;  Q 458.61 174.61 458.09 173.32&#10;  Q 448.50 149.61 431.99 128.33&#10;  A 0.73 0.72 52.0 0 0 430.97 128.20&#10;  L 358.36 185.58&#10;  A 0.94 0.94 0.0 0 0 358.19 186.89&#10;  Q 365.89 197.14 370.82 208.84&#10;  Q 371.08 209.45 371.69 209.21&#10;  Z&#10;  M 305.96 168.48&#10;  C 266.33 157.65 226.28 177.27 210.09 214.75&#10;  Q 207.71 220.24 206.44 225.76&#10;  Q 206.29 226.39 206.89 226.63&#10;  C 240.18 240.27 267.52 261.85 283.75 293.98&#10;  A 0.43 0.43 0.0 0 0 284.52 293.98&#10;  C 300.70 262.07 327.78 240.55 361.61 226.54&#10;  A 0.78 0.76 70.9 0 0 362.05 225.61&#10;  Q 352.52 192.76 324.36 176.34&#10;  Q 315.24 171.02 305.96 168.48&#10;  Z&#10;  M 274.81 295.46&#10;  L 274.81 295.45&#10;  Q 274.92 295.40 274.87 295.29&#10;  Q 265.51 275.48 249.65 260.37&#10;  C 227.80 239.57 198.93 226.76 169.15 220.28&#10;  Q 131.55 212.10 91.34 214.12&#10;  Q 91.18 214.12 91.18 214.28&#10;  L 91.18 214.29&#10;  Q 91.18 214.45 91.35 214.46&#10;  Q 100.65 215.06 109.99 215.73&#10;  Q 141.04 217.95 170.89 225.36&#10;  C 212.86 235.77 252.08 257.08 274.52 295.38&#10;  Q 274.63 295.55 274.81 295.46&#10;  Z&#10;  M 293.85 295.19&#10;  C 331.09 232.11 409.92 217.78 476.82 214.53&#10;  Q 476.86 214.52 476.86 214.48&#10;  L 476.86 214.23&#10;  Q 476.86 214.04 476.67 214.03&#10;  C 408.61 211.27 326.66 227.46 293.49 295.07&#10;  Q 293.43 295.20 293.55 295.27&#10;  L 293.56 295.27&#10;  Q 293.74 295.37 293.85 295.19&#10;  Z&#10;  M 177.50 242.83&#10;  C 205.44 249.39 233.24 260.59 255.65 279.03&#10;  C 259.06 281.84 262.30 285.30 265.56 288.38&#10;  Q 265.71 288.53 265.87 288.38&#10;  L 265.87 288.38&#10;  Q 266.01 288.25 265.90 288.10&#10;  C 249.04 267.13 226.62 253.62 201.07 244.81&#10;  C 165.88 232.67 127.32 228.70 90.12 230.77&#10;  Q 89.94 230.78 89.94 230.96&#10;  L 89.94 230.97&#10;  Q 89.94 231.10 90.06 231.10&#10;  Q 102.94 231.88 115.48 232.95&#10;  Q 146.94 235.65 177.50 242.83&#10;  Z&#10;  M 356.95 253.46&#10;  Q 384.25 242.79 417.71 237.37&#10;  Q 448.06 232.46 478.36 231.27&#10;  Q 478.39 231.27 478.39 231.24&#10;  L 478.39 230.99&#10;  Q 478.39 230.74 478.15 230.73&#10;  Q 441.86 228.80 406.31 234.83&#10;  C 367.52 241.41 327.45 256.55 302.53 288.10&#10;  Q 302.42 288.24 302.55 288.35&#10;  L 302.56 288.35&#10;  Q 302.71 288.48 302.84 288.34&#10;  C 317.74 272.64 336.76 261.34 356.95 253.46&#10;  Z&#10;  M 202.52 262.87&#10;  C 219.45 267.10 237.02 272.97 252.32 281.89&#10;  Q 252.39 281.93 252.43 281.86&#10;  L 252.57 281.65&#10;  Q 252.63 281.55 252.54 281.48&#10;  C 235.54 269.19 214.93 261.33 194.25 256.31&#10;  Q 140.82 243.35 84.62 247.35&#10;  Q 84.43 247.37 84.43 247.55&#10;  L 84.43 247.56&#10;  Q 84.44 247.68 84.55 247.68&#10;  C 123.86 249.30 165.34 253.58 202.52 262.87&#10;  Z&#10;  M 479.87 247.86&#10;  Q 481.52 247.78 483.29 247.64&#10;  Q 483.44 247.63 483.43 247.48&#10;  L 483.43 247.47&#10;  Q 483.43 247.32 483.28 247.31&#10;  Q 426.98 243.41 373.66 256.42&#10;  C 353.21 261.41 332.86 269.30 315.85 281.42&#10;  Q 315.73 281.51 315.78 281.65&#10;  L 315.88 281.91&#10;  Q 315.90 281.96 316.00 281.90&#10;  Q 324.04 277.12 332.09 273.86&#10;  Q 356.08 264.14 385.46 258.45&#10;  C 416.63 252.40 447.81 249.42 479.87 247.86&#10;  Z&#10;  M 89.19 262.87&#10;  Q 82.70 263.24 76.29 263.91&#10;  Q 76.18 263.92 76.18 264.03&#10;  L 76.18 264.04&#10;  Q 76.19 264.17 76.32 264.18&#10;  C 82.26 264.58 88.13 264.46 94.13 264.72&#10;  Q 105.60 265.21 117.47 265.77&#10;  Q 165.00 267.98 210.23 274.26&#10;  Q 219.22 275.50 238.45 279.81&#10;  Q 238.54 279.83 238.57 279.74&#10;  L 238.63 279.45&#10;  Q 238.67 279.26 238.49 279.20&#10;  Q 213.26 270.66 186.47 266.84&#10;  Q 138.64 260.03 89.19 262.87&#10;  Z&#10;  M 492.32 264.05&#10;  Q 492.32 263.87 492.14 263.86&#10;  Q 441.05 259.32 389.06 265.87&#10;  C 369.21 268.37 348.78 272.35 329.83 279.39&#10;  Q 329.75 279.42 329.77 279.51&#10;  L 329.77 279.52&#10;  Q 329.80 279.62 329.91 279.60&#10;  Q 366.63 271.92 404.98 268.82&#10;  Q 451.00 265.10 492.11 264.26&#10;  Q 492.31 264.26 492.32 264.06&#10;  L 492.32 264.05&#10;  Z&#10;  M 233.56 283.04&#10;  Q 206.42 279.10 179.01 277.80&#10;  C 147.74 276.31 116.56 276.36 85.79 278.65&#10;  Q 74.02 279.53 64.18 281.04&#10;  Q 64.12 281.05 64.08 280.99&#10;  Q 64.07 280.99 64.11 281.12&#10;  Q 64.13 281.19 64.22 281.19&#10;  Q 136.74 280.99 209.22 282.66&#10;  C 217.13 282.85 225.38 283.47 233.42 283.43&#10;  Q 233.54 283.43 233.55 283.30&#10;  L 233.57 283.05&#10;  Q 233.57 283.04 233.56 283.04&#10;  Z&#10;  M 503.27 281.09&#10;  Q 499.01 280.08 494.51 279.66&#10;  C 455.85 276.00 417.33 275.95 377.57 278.51&#10;  Q 355.51 279.93 334.45 283.13&#10;  A 0.04 0.04 0.0 0 0 334.45 283.21&#10;  Q 336.02 283.60 337.74 283.51&#10;  Q 347.16 283.01 356.00 282.79&#10;  Q 429.08 280.94 503.86 281.19&#10;  Q 503.89 281.19 503.90 281.17&#10;  Q 503.92 281.10 503.85 281.11&#10;  Q 503.80 281.11 503.75 281.11&#10;  Q 503.50 281.14 503.27 281.09&#10;  Z&#10;  M 308.98 298.46&#10;  C 307.91 301.72 303.71 302.41 300.68 302.39&#10;  Q 284.85 302.32 269.68 302.39&#10;  C 265.78 302.41 259.69 302.55 259.10 297.19&#10;  C 258.52 291.86 256.26 287.51 250.10 287.51&#10;  Q 156.02 287.52 65.50 287.50&#10;  Q 61.00 287.50 58.36 290.36&#10;  C 54.79 294.24 55.67 300.48 59.96 303.35&#10;  Q 62.12 304.79 65.47 304.79&#10;  Q 153.15 304.73 236.84 304.78&#10;  C 242.76 304.78 240.98 310.77 242.36 314.11&#10;  Q 244.65 319.64 250.90 319.64&#10;  Q 284.99 319.64 317.66 319.65&#10;  Q 323.09 319.65 325.63 314.90&#10;  C 327.65 311.12 325.13 304.76 331.96 304.76&#10;  Q 417.22 304.76 503.13 304.77&#10;  C 515.28 304.77 515.38 287.48 502.58 287.49&#10;  Q 411.00 287.56 319.23 287.48&#10;  C 314.99 287.48 311.51 289.00 309.96 293.20&#10;  C 309.33 294.92 309.54 296.75 308.98 298.46&#10;  Z&#10;  M 167.9191 349.3836&#10;  A 12.98 12.98 0.0 0 0 154.9618 336.3810&#10;  L 153.8818 336.3791&#10;  A 12.98 12.98 0.0 0 0 140.8792 349.3364&#10;  L 140.8009 394.1964&#10;  A 12.98 12.98 0.0 0 0 153.7582 407.1990&#10;  L 154.8382 407.2009&#10;  A 12.98 12.98 0.0 0 0 167.8408 394.2436&#10;  L 167.9191 349.3836&#10;  Z&#10;  M 359.34 348.77&#10;  C 360.50 344.14 364.79 345.09 365.82 349.14&#10;  Q 366.53 351.93 366.54 354.49&#10;  Q 366.54 355.69 367.74 355.58&#10;  L 375.28 354.89&#10;  Q 376.52 354.78 376.49 353.53&#10;  C 376.39 347.69 374.77 339.91 368.51 337.41&#10;  Q 361.48 334.61 355.71 338.16&#10;  C 345.44 344.47 348.50 359.56 354.29 368.17&#10;  Q 359.29 375.59 363.94 382.79&#10;  Q 367.64 388.51 365.99 394.98&#10;  C 365.11 398.46 360.57 398.92 359.00 395.81&#10;  Q 357.60 393.05 357.41 386.44&#10;  Q 357.40 386.18 357.14 386.20&#10;  L 347.81 387.09&#10;  Q 347.54 387.12 347.53 387.39&#10;  C 347.19 396.25 349.35 406.04 359.87 407.21&#10;  C 367.78 408.09 374.04 404.87 375.82 396.71&#10;  Q 377.76 387.86 374.23 380.39&#10;  C 371.13 373.85 365.90 366.91 361.68 360.32&#10;  Q 357.92 354.46 359.34 348.77&#10;  Z&#10;  M 137.20 397.91&#10;  A 0.81 0.81 0.0 0 0 136.38 397.11&#10;  L 124.43 397.18&#10;  A 0.81 0.81 0.0 0 1 123.61 396.37&#10;  L 123.59 337.75&#10;  A 0.81 0.81 0.0 0 0 122.78 336.94&#10;  L 114.34 336.98&#10;  A 0.81 0.81 0.0 0 0 113.53 337.79&#10;  L 113.51 405.71&#10;  A 0.81 0.81 0.0 0 0 114.32 406.52&#10;  L 136.45 406.58&#10;  A 0.81 0.81 0.0 0 0 137.26 405.76&#10;  L 137.20 397.91&#10;  Z&#10;  M 266.60 360.57&#10;  Q 266.88 360.51 266.88 360.80&#10;  L 266.83 406.18&#10;  Q 266.83 406.52 267.18 406.53&#10;  L 275.98 406.63&#10;  A 0.36 0.36 0.0 0 0 276.34 406.27&#10;  L 276.36 338.05&#10;  A 1.07 1.06 90.0 0 0 275.30 336.98&#10;  L 264.16 336.99&#10;  A 0.41 0.40 5.1 0 0 263.76 337.32&#10;  L 257.35 371.47&#10;  Q 257.19 372.31 257.03 371.47&#10;  L 250.79 338.06&#10;  A 1.26 1.26 0.0 0 0 249.56 337.03&#10;  L 238.46 336.95&#10;  Q 238.12 336.95 238.12 337.29&#10;  L 238.11 405.94&#10;  A 0.58 0.57 0.0 0 0 238.69 406.51&#10;  L 246.92 406.57&#10;  A 0.59 0.59 0.0 0 0 247.52 405.98&#10;  L 247.54 360.40&#10;  A 0.30 0.30 0.0 0 1 247.82 360.10&#10;  L 248.12 360.08&#10;  Q 248.29 360.07 248.32 360.24&#10;  Q 251.41 382.62 254.66 405.02&#10;  Q 254.88 406.53 256.75 406.68&#10;  Q 259.42 406.89 259.74 404.74&#10;  Q 262.87 383.41 266.18 360.76&#10;  Q 266.20 360.65 266.31 360.63&#10;  L 266.60 360.57&#10;  Z&#10;  M 308.71 337.34&#10;  A 0.38 0.38 0.0 0 0 308.33 336.96&#10;  L 298.87 336.96&#10;  A 0.38 0.38 0.0 0 0 298.49 337.34&#10;  L 298.49 406.20&#10;  A 0.38 0.38 0.0 0 0 298.87 406.58&#10;  L 308.33 406.58&#10;  A 0.38 0.38 0.0 0 0 308.71 406.20&#10;  L 308.71 337.34&#10;  Z&#10;  M 326.50 379.50&#10;  Q 326.50 378.63 327.36 378.63&#10;  C 336.93 378.56 343.13 371.84 344.16 362.68&#10;  C 345.19 353.52 343.76 341.92 333.71 338.27&#10;  C 328.54 336.40 322.15 337.13 316.61 336.94&#10;  A 0.34 0.34 0.0 0 0 316.25 337.28&#10;  L 316.26 405.94&#10;  A 0.69 0.68 -90.0 0 0 316.94 406.63&#10;  L 325.56 406.64&#10;  A 0.95 0.94 90.0 0 0 326.50 405.69&#10;  L 326.50 379.50&#10;  Z&#10;  M 397.32 396.73&#10;  Q 396.40 397.69 395.48 397.50&#10;  Q 392.20 396.80 392.20 392.80&#10;  Q 392.17 363.28 392.22 338.02&#10;  A 1.08 1.08 0.0 0 0 391.14 336.94&#10;  L 382.41 336.98&#10;  A 0.42 0.42 0.0 0 0 381.99 337.40&#10;  Q 381.87 364.70 381.94 391.35&#10;  C 381.97 399.10 385.34 406.41 393.91 407.25&#10;  Q 404.03 408.24 407.94 398.85&#10;  Q 409.17 395.87 409.18 392.74&#10;  Q 409.29 363.82 409.17 337.63&#10;  A 0.67 0.66 0.0 0 0 408.50 336.97&#10;  L 399.49 337.01&#10;  Q 399.00 337.01 399.00 337.51&#10;  L 398.99 392.56&#10;  Q 398.99 394.98 397.32 396.73&#10;  Z&#10;  M 435.55 370.98&#10;  L 429.41 337.99&#10;  A 1.20 1.20 0.0 0 0 428.23 337.01&#10;  L 417.33 337.01&#10;  Q 416.67 337.01 416.67 337.67&#10;  L 416.69 405.83&#10;  Q 416.69 406.71 417.57 406.70&#10;  L 425.22 406.61&#10;  A 0.88 0.88 0.0 0 0 426.09 405.74&#10;  Q 426.37 383.00 426.10 361.38&#10;  Q 426.10 360.81 426.41 360.38&#10;  A 0.32 0.32 0.0 0 1 426.98 360.51&#10;  C 427.31 362.07 427.15 363.58 427.39 365.15&#10;  Q 430.42 385.06 433.52 405.90&#10;  A 1.00 0.99 -5.9 0 0 434.57 406.75&#10;  L 437.18 406.57&#10;  A 1.05 1.04 2.0 0 0 438.14 405.68&#10;  L 444.84 360.21&#10;  Q 444.85 360.15 444.91 360.16&#10;  L 445.19 360.18&#10;  Q 445.49 360.20 445.49 360.51&#10;  L 445.53 406.26&#10;  A 0.42 0.41 88.7 0 0 445.96 406.68&#10;  L 454.68 406.45&#10;  A 0.27 0.27 0.0 0 0 454.94 406.18&#10;  L 454.88 337.63&#10;  A 0.63 0.63 0.0 0 0 454.26 337.00&#10;  L 443.28 336.96&#10;  A 1.05 1.05 0.0 0 0 442.25 337.80&#10;  L 435.98 370.98&#10;  Q 435.76 372.13 435.55 370.98&#10;  Z&#10;  M 186.01 376.89&#10;  Q 187.75 376.92 188.05 378.58&#10;  Q 190.58 392.23 192.96 405.87&#10;  Q 193.07 406.51 193.72 406.51&#10;  L 203.00 406.55&#10;  A 0.30 0.30 0.0 0 0 203.29 406.19&#10;  Q 200.36 391.23 197.45 376.76&#10;  Q 197.15 375.24 197.18 373.50&#10;  Q 197.19 372.89 197.59 372.44&#10;  C 202.61 366.78 203.11 358.90 202.04 351.24&#10;  C 199.87 335.75 187.31 336.71 175.30 337.04&#10;  A 0.45 0.45 0.0 0 0 174.86 337.49&#10;  L 174.88 405.84&#10;  A 0.71 0.71 0.0 0 0 175.59 406.55&#10;  L 184.29 406.58&#10;  A 0.76 0.75 -0.4 0 0 185.05 405.82&#10;  Q 184.97 394.35 185.09 382.31&#10;  Q 185.11 380.02 185.31 377.53&#10;  A 0.69 0.69 0.0 0 1 186.01 376.89&#10;  Z&#10;  M 219.86 365.73&#10;  A 0.73 0.73 0.0 0 1 219.14 365.00&#10;  L 219.16 348.30&#10;  A 0.73 0.73 0.0 0 1 219.89 347.57&#10;  L 231.67 347.57&#10;  A 0.73 0.73 0.0 0 0 232.40 346.84&#10;  L 232.36 337.75&#10;  A 0.73 0.73 0.0 0 0 231.63 337.02&#10;  L 209.79 336.98&#10;  A 0.73 0.73 0.0 0 0 209.06 337.71&#10;  L 209.03 405.78&#10;  A 0.73 0.73 0.0 0 0 209.76 406.51&#10;  L 231.64 406.55&#10;  A 0.73 0.73 0.0 0 0 232.37 405.82&#10;  L 232.34 396.72&#10;  A 0.73 0.73 0.0 0 0 231.60 395.99&#10;  L 219.95 396.10&#10;  A 0.73 0.73 0.0 0 1 219.21 395.37&#10;  L 219.19 377.67&#10;  A 0.73 0.73 0.0 0 1 219.93 376.94&#10;  L 227.98 377.00&#10;  A 0.73 0.73 0.0 0 0 228.72 376.27&#10;  L 228.71 366.63&#10;  A 0.73 0.73 0.0 0 0 228.00 365.90&#10;  L 219.86 365.73&#10;  Z&#10;  M 167.59 429.70&#10;  C 162.93 425.07 155.54 427.11 152.97 432.96&#10;  C 150.95 437.56 151.35 443.48 154.85 447.20&#10;  C 158.32 450.90 164.64 450.77 167.80 446.75&#10;  Q 168.71 445.60 168.71 447.06&#10;  Q 168.71 447.74 168.62 448.42&#10;  A 0.90 0.90 0.0 0 0 169.51 449.43&#10;  L 171.52 449.45&#10;  Q 172.25 449.45 172.24 448.73&#10;  L 172.20 418.50&#10;  Q 172.20 417.55 171.25 417.53&#10;  L 169.19 417.49&#10;  Q 168.10 417.47 168.11 418.56&#10;  L 168.15 429.47&#10;  Q 168.16 430.27 167.59 429.70&#10;  Z&#10;  M 207.26 418.09&#10;  A 0.55 0.55 0.0 0 0 206.71 417.54&#10;  L 203.79 417.54&#10;  A 0.55 0.55 0.0 0 0 203.24 418.09&#10;  L 203.24 448.83&#10;  A 0.55 0.55 0.0 0 0 203.79 449.38&#10;  L 206.71 449.38&#10;  A 0.55 0.55 0.0 0 0 207.26 448.83&#10;  L 207.26 418.09&#10;  Z&#10;  M 284.75 421.59&#10;  A 2.44 2.44 0.0 0 0 282.31 419.15&#10;  A 2.44 2.44 0.0 0 0 279.87 421.59&#10;  A 2.44 2.44 0.0 0 0 282.31 424.03&#10;  A 2.44 2.44 0.0 0 0 284.75 421.59&#10;  Z&#10;  M 410.78 427.25&#10;  L 410.86 422.23&#10;  Q 410.88 421.28 409.98 421.57&#10;  L 407.83 422.26&#10;  Q 406.98 422.53 406.99 423.41&#10;  L 407.03 427.12&#10;  Q 407.04 427.78 406.38 427.74&#10;  L 404.49 427.62&#10;  Q 403.85 427.58 403.71 428.21&#10;  Q 403.48 429.25 403.67 430.28&#10;  Q 403.76 430.76 404.25 430.75&#10;  L 406.31 430.70&#10;  Q 406.95 430.69 406.98 431.33&#10;  Q 407.15 436.05 406.97 440.92&#10;  C 406.75 446.84 408.49 451.20 415.59 449.47&#10;  Q 416.35 449.29 416.32 448.50&#10;  L 416.27 447.25&#10;  Q 416.24 446.42 415.43 446.57&#10;  Q 411.07 447.39 410.94 443.13&#10;  Q 410.78 437.72 410.83 431.31&#10;  Q 410.84 430.72 411.43 430.72&#10;  L 415.78 430.73&#10;  Q 416.78 430.73 416.74 429.72&#10;  L 416.70 428.81&#10;  Q 416.65 427.71 415.56 427.72&#10;  L 411.25 427.73&#10;  Q 410.77 427.74 410.78 427.25&#10;  Z&#10;  M 291.26 427.75&#10;  L 289.24 427.66&#10;  A 0.87 0.87 0.0 0 0 288.33 428.50&#10;  L 288.30 429.72&#10;  Q 288.27 430.68 289.22 430.71&#10;  L 291.07 430.77&#10;  Q 291.76 430.79 291.75 431.48&#10;  Q 291.68 437.30 291.70 443.09&#10;  C 291.71 448.87 295.02 450.49 300.28 449.54&#10;  Q 300.75 449.45 300.89 448.99&#10;  Q 301.13 448.22 301.08 447.29&#10;  Q 301.04 446.69 300.44 446.66&#10;  L 297.95 446.56&#10;  A 2.38 2.37 1.1 0 1 295.68 444.20&#10;  L 295.60 431.31&#10;  Q 295.60 430.72 296.19 430.72&#10;  L 300.42 430.73&#10;  Q 301.33 430.74 301.28 429.83&#10;  L 301.21 428.55&#10;  Q 301.17 427.69 300.30 427.69&#10;  L 296.04 427.73&#10;  Q 295.60 427.73 295.61 427.29&#10;  L 295.70 422.70&#10;  Q 295.72 421.37 294.44 421.71&#10;  L 292.74 422.15&#10;  A 1.37 1.37 0.0 0 0 291.73 423.50&#10;  L 291.79 427.24&#10;  Q 291.79 427.77 291.26 427.75&#10;  Z&#10;  M 186.8200 449.9562&#10;  A 11.47 10.72 94.4 0 0 198.3884 439.3424&#10;  A 11.47 10.72 94.4 0 0 188.5800 427.0838&#10;  A 11.47 10.72 94.4 0 0 177.0116 437.6976&#10;  A 11.47 10.72 94.4 0 0 186.8200 449.9562&#10;  Z&#10;  M 221.7996 449.9591&#10;  A 11.48 10.74 95.4 0 0 233.5723 439.5407&#10;  A 11.48 10.74 95.4 0 0 223.9604 427.1009&#10;  A 11.48 10.74 95.4 0 0 212.1877 437.5193&#10;  A 11.48 10.74 95.4 0 0 221.7996 449.9591&#10;  Z&#10;  M 241.70 430.81&#10;  L 241.76 428.43&#10;  Q 241.78 427.58 240.93 427.58&#10;  L 239.17 427.56&#10;  Q 238.40 427.56 238.40 428.33&#10;  L 238.54 448.74&#10;  Q 238.54 449.43 239.24 449.42&#10;  L 241.77 449.37&#10;  Q 242.45 449.36 242.44 448.67&#10;  Q 242.24 440.46 242.46 437.26&#10;  Q 242.91 430.77 248.92 430.81&#10;  Q 249.34 430.81 249.32 430.39&#10;  L 249.20 427.80&#10;  Q 249.19 427.40 248.79 427.34&#10;  C 245.47 426.86 244.05 428.64 242.32 431.02&#10;  Q 241.67 431.91 241.70 430.81&#10;  Z&#10;  M 265.65 432.30&#10;  Q 267.15 428.63 273.34 431.24&#10;  A 0.60 0.60 0.0 0 0 274.17 430.73&#10;  L 274.29 429.02&#10;  Q 274.33 428.42 273.77 428.18&#10;  C 269.93 426.53 264.41 426.76 262.31 430.98&#10;  C 259.73 436.19 264.89 438.76 268.75 440.25&#10;  C 271.06 441.15 272.51 443.32 270.85 445.66&#10;  A 2.11 2.07 -80.6 0 1 269.77 446.45&#10;  Q 266.17 447.53 262.86 445.73&#10;  Q 261.94 445.23 261.69 446.25&#10;  L 261.35 447.67&#10;  Q 261.12 448.61 262.03 448.93&#10;  C 265.94 450.28 272.13 450.53 274.50 446.39&#10;  Q 275.69 444.31 275.13 441.95&#10;  C 274.22 438.08 270.26 437.17 267.21 435.66&#10;  Q 264.77 434.45 265.65 432.30&#10;  Z&#10;  M 327.01 447.53&#10;  L 327.24 448.78&#10;  A 0.77 0.77 0.0 0 0 327.96 449.41&#10;  L 330.00 449.51&#10;  Q 330.77 449.55 330.70 448.79&#10;  Q 330.29 444.34 330.51 439.25&#10;  C 330.81 432.10 329.22 426.19 320.25 427.37&#10;  Q 317.74 427.70 315.58 428.79&#10;  Q 314.91 429.13 315.18 429.84&#10;  L 315.70 431.22&#10;  Q 315.91 431.77 316.42 431.48&#10;  Q 319.76 429.60 323.38 430.32&#10;  A 3.70 3.70 0.0 0 1 326.23 432.92&#10;  L 326.43 433.63&#10;  Q 327.03 435.71 324.86 435.71&#10;  C 321.12 435.71 316.58 436.69 314.44 440.10&#10;  C 312.47 443.23 313.55 447.70 317.03 449.18&#10;  Q 321.91 451.26 326.32 447.29&#10;  Q 326.88 446.79 327.01 447.53&#10;  Z&#10;  M 349.52 430.45&#10;  L 349.55 428.25&#10;  Q 349.57 427.43 348.75 427.50&#10;  L 347.06 427.63&#10;  Q 346.32 427.69 346.32 428.44&#10;  L 346.37 448.93&#10;  Q 346.37 449.24 346.68 449.26&#10;  L 349.72 449.46&#10;  A 0.44 0.44 0.0 0 0 350.19 449.03&#10;  Q 350.28 443.06 350.18 436.87&#10;  C 350.05 429.21 359.82 427.78 359.86 435.88&#10;  Q 359.89 442.74 359.81 448.79&#10;  Q 359.80 449.36 360.37 449.37&#10;  L 363.25 449.43&#10;  Q 363.80 449.43 363.79 448.88&#10;  Q 363.58 441.88 363.84 435.48&#10;  C 364.03 430.57 371.26 428.16 372.86 433.27&#10;  Q 373.57 435.54 373.56 438.26&#10;  Q 373.53 443.54 373.46 448.62&#10;  Q 373.45 449.44 374.27 449.44&#10;  L 376.82 449.44&#10;  Q 377.26 449.44 377.26 449.00&#10;  Q 377.33 442.65 377.22 435.77&#10;  C 377.12 429.99 373.39 425.67 367.18 427.72&#10;  C 365.69 428.21 364.36 429.49 363.51 430.78&#10;  Q 363.06 431.44 362.62 430.78&#10;  Q 358.99 425.30 352.81 428.15&#10;  C 351.76 428.64 350.91 429.81 350.16 430.69&#10;  Q 349.50 431.47 349.52 430.45&#10;  Z&#10;  M 388.03 439.32&#10;  L 400.49 439.30&#10;  A 0.72 0.71 -87.4 0 0 401.20 438.65&#10;  C 401.83 431.74 397.67 425.91 390.00 427.50&#10;  C 381.85 429.19 379.57 441.64 385.22 447.09&#10;  C 388.75 450.50 394.38 450.20 398.81 449.00&#10;  Q 400.19 448.63 399.89 447.23&#10;  L 399.83 446.94&#10;  Q 399.56 445.70 398.35 446.06&#10;  Q 394.69 447.15 391.03 446.53&#10;  A 5.55 5.54 -7.0 0 1 386.87 443.28&#10;  L 386.29 441.98&#10;  Q 385.13 439.32 388.03 439.32&#10;  Z&#10;  M 284.3341 428.2330&#10;  A 0.61 0.61 0.0 0 0 283.7220 427.6252&#10;  L 280.9220 427.6350&#10;  A 0.61 0.61 0.0 0 0 280.3142 428.2471&#10;  L 280.3859 448.7870&#10;  A 0.61 0.61 0.0 0 0 280.9980 449.3948&#10;  L 283.7980 449.3850&#10;  A 0.61 0.61 0.0 0 0 284.4058 448.7729&#10;  L 284.3341 428.2330&#10;  Z"/>
<path fill="#ea9602" d="&#10;  M 311.09 59.20&#10;  L 297.73 150.94&#10;  A 0.75 0.74 -81.2 0 1 296.88 151.57&#10;  Q 284.01 149.57 271.25 151.56&#10;  A 0.52 0.51 81.5 0 1 270.67 151.13&#10;  L 257.26 59.25&#10;  A 1.03 1.03 0.0 0 1 258.14 58.09&#10;  Q 284.22 54.53 310.26 58.09&#10;  A 0.98 0.98 0.0 0 1 311.09 59.20&#10;  Z"/>
<path fill="#ea9602" d="&#10;  M 248.62 157.58&#10;  C 240.90 160.77 233.50 165.14 226.77 170.15&#10;  A 0.76 0.76 0.0 0 1 225.72 170.01&#10;  L 168.49 97.45&#10;  A 0.96 0.95 51.9 0 1 168.65 96.10&#10;  Q 189.14 80.09 213.59 70.08&#10;  A 1.19 1.18 -21.8 0 1 215.14 70.74&#10;  L 249.19 156.22&#10;  A 1.05 1.05 0.0 0 1 248.62 157.58&#10;  Z"/>
<path fill="#ea9602" d="&#10;  M 354.25 69.93&#10;  C 370.25 76.31 385.05 84.85 399.20 95.65&#10;  Q 400.53 96.66 399.50 97.97&#10;  L 342.71 169.92&#10;  A 1.05 1.03 -51.6 0 1 341.25 170.10&#10;  Q 331.55 162.54 319.92 157.61&#10;  A 1.22 1.21 -67.8 0 1 319.26 156.04&#10;  L 353.36 70.32&#10;  A 0.69 0.69 0.0 0 1 354.25 69.93&#10;  Z"/>
<path fill="#ea9602" d="&#10;  M 198.81 205.94&#10;  Q 198.20 207.26 197.70 208.64&#10;  A 0.90 0.89 -68.9 0 1 196.52 209.17&#10;  L 110.77 175.01&#10;  Q 110.36 174.84 110.34 174.39&#10;  Q 110.31 173.22 110.76 172.13&#10;  Q 120.77 148.17 136.35 128.38&#10;  A 0.76 0.76 0.0 0 1 137.41 128.25&#10;  Q 167.75 152.16 198.89 176.83&#10;  Q 205.03 181.70 210.56 185.78&#10;  A 0.41 0.40 -53.4 0 1 210.64 186.35&#10;  Q 203.71 195.30 198.81 205.94&#10;  Z"/>
<path fill="#ea9602" d="&#10;  M 457.31 175.13&#10;  L 371.69 209.21&#10;  Q 371.08 209.45 370.82 208.84&#10;  Q 365.89 197.14 358.19 186.89&#10;  A 0.94 0.94 0.0 0 1 358.36 185.58&#10;  L 430.97 128.20&#10;  A 0.73 0.72 52.0 0 1 431.99 128.33&#10;  Q 448.50 149.61 458.09 173.32&#10;  Q 458.61 174.61 457.31 175.13&#10;  Z"/>
<path fill="#ea9602" d="&#10;  M 324.36 176.34&#10;  Q 352.52 192.76 362.05 225.61&#10;  A 0.78 0.76 70.9 0 1 361.61 226.54&#10;  C 327.78 240.55 300.70 262.07 284.52 293.98&#10;  A 0.43 0.43 0.0 0 1 283.75 293.98&#10;  C 267.52 261.85 240.18 240.27 206.89 226.63&#10;  Q 206.29 226.39 206.44 225.76&#10;  Q 207.71 220.24 210.09 214.75&#10;  C 226.28 177.27 266.33 157.65 305.96 168.48&#10;  Q 315.24 171.02 324.36 176.34&#10;  Z"/>
<path fill="#6b5435" d="&#10;  M 274.52 295.38&#10;  C 252.08 257.08 212.86 235.77 170.89 225.36&#10;  Q 141.04 217.95 109.99 215.73&#10;  Q 100.65 215.06 91.35 214.46&#10;  Q 91.18 214.45 91.18 214.29&#10;  L 91.18 214.28&#10;  Q 91.18 214.12 91.34 214.12&#10;  Q 131.55 212.10 169.15 220.28&#10;  C 198.93 226.76 227.80 239.57 249.65 260.37&#10;  Q 265.51 275.48 274.87 295.29&#10;  Q 274.92 295.40 274.81 295.45&#10;  L 274.81 295.46&#10;  Q 274.63 295.55 274.52 295.38&#10;  Z"/>
<path fill="#6b5435" d="&#10;  M 293.85 295.19&#10;  Q 293.74 295.37 293.56 295.27&#10;  L 293.55 295.27&#10;  Q 293.43 295.20 293.49 295.07&#10;  C 326.66 227.46 408.61 211.27 476.67 214.03&#10;  Q 476.86 214.04 476.86 214.23&#10;  L 476.86 214.48&#10;  Q 476.86 214.52 476.82 214.53&#10;  C 409.92 217.78 331.09 232.11 293.85 295.19&#10;  Z"/>
<path fill="#6b5435" d="&#10;  M 255.65 279.03&#10;  C 233.24 260.59 205.44 249.39 177.50 242.83&#10;  Q 146.94 235.65 115.48 232.95&#10;  Q 102.94 231.88 90.06 231.10&#10;  Q 89.94 231.10 89.94 230.97&#10;  L 89.94 230.96&#10;  Q 89.94 230.78 90.12 230.77&#10;  C 127.32 228.70 165.88 232.67 201.07 244.81&#10;  C 226.62 253.62 249.04 267.13 265.90 288.10&#10;  Q 266.01 288.25 265.87 288.38&#10;  L 265.87 288.38&#10;  Q 265.71 288.53 265.56 288.38&#10;  C 262.30 285.30 259.06 281.84 255.65 279.03&#10;  Z"/>
<path fill="#6b5435" d="&#10;  M 356.95 253.46&#10;  C 336.76 261.34 317.74 272.64 302.84 288.34&#10;  Q 302.71 288.48 302.56 288.35&#10;  L 302.55 288.35&#10;  Q 302.42 288.24 302.53 288.10&#10;  C 327.45 256.55 367.52 241.41 406.31 234.83&#10;  Q 441.86 228.80 478.15 230.73&#10;  Q 478.39 230.74 478.39 230.99&#10;  L 478.39 231.24&#10;  Q 478.39 231.27 478.36 231.27&#10;  Q 448.06 232.46 417.71 237.37&#10;  Q 384.25 242.79 356.95 253.46&#10;  Z"/>
<path fill="#6b5435" d="&#10;  M 252.32 281.89&#10;  C 237.02 272.97 219.45 267.10 202.52 262.87&#10;  C 165.34 253.58 123.86 249.30 84.55 247.68&#10;  Q 84.44 247.68 84.43 247.56&#10;  L 84.43 247.55&#10;  Q 84.43 247.37 84.62 247.35&#10;  Q 140.82 243.35 194.25 256.31&#10;  C 214.93 261.33 235.54 269.19 252.54 281.48&#10;  Q 252.63 281.55 252.57 281.65&#10;  L 252.43 281.86&#10;  Q 252.39 281.93 252.32 281.89&#10;  Z"/>
<path fill="#6b5435" d="&#10;  M 479.87 247.86&#10;  C 447.81 249.42 416.63 252.40 385.46 258.45&#10;  Q 356.08 264.14 332.09 273.86&#10;  Q 324.04 277.12 316.00 281.90&#10;  Q 315.90 281.96 315.88 281.91&#10;  L 315.78 281.65&#10;  Q 315.73 281.51 315.85 281.42&#10;  C 332.86 269.30 353.21 261.41 373.66 256.42&#10;  Q 426.98 243.41 483.28 247.31&#10;  Q 483.43 247.32 483.43 247.47&#10;  L 483.43 247.48&#10;  Q 483.44 247.63 483.29 247.64&#10;  Q 481.52 247.78 479.87 247.86&#10;  Z"/>
<path fill="#6b5435" d="&#10;  M 89.19 262.87&#10;  Q 138.64 260.03 186.47 266.84&#10;  Q 213.26 270.66 238.49 279.20&#10;  Q 238.67 279.26 238.63 279.45&#10;  L 238.57 279.74&#10;  Q 238.54 279.83 238.45 279.81&#10;  Q 219.22 275.50 210.23 274.26&#10;  Q 165.00 267.98 117.47 265.77&#10;  Q 105.60 265.21 94.13 264.72&#10;  C 88.13 264.46 82.26 264.58 76.32 264.18&#10;  Q 76.19 264.17 76.18 264.04&#10;  L 76.18 264.03&#10;  Q 76.18 263.92 76.29 263.91&#10;  Q 82.70 263.24 89.19 262.87&#10;  Z"/>
<path fill="#6b5435" d="&#10;  M 492.32 264.05&#10;  L 492.32 264.06&#10;  Q 492.31 264.26 492.11 264.26&#10;  Q 451.00 265.10 404.98 268.82&#10;  Q 366.63 271.92 329.91 279.60&#10;  Q 329.80 279.62 329.77 279.52&#10;  L 329.77 279.51&#10;  Q 329.75 279.42 329.83 279.39&#10;  C 348.78 272.35 369.21 268.37 389.06 265.87&#10;  Q 441.05 259.32 492.14 263.86&#10;  Q 492.32 263.87 492.32 264.05&#10;  Z"/>
<path fill="#6b5435" d="&#10;  M 233.56 283.04&#10;  Q 233.57 283.04 233.57 283.05&#10;  L 233.55 283.30&#10;  Q 233.54 283.43 233.42 283.43&#10;  C 225.38 283.47 217.13 282.85 209.22 282.66&#10;  Q 136.74 280.99 64.22 281.19&#10;  Q 64.13 281.19 64.11 281.12&#10;  Q 64.07 280.99 64.08 280.99&#10;  Q 64.12 281.05 64.18 281.04&#10;  Q 74.02 279.53 85.79 278.65&#10;  C 116.56 276.36 147.74 276.31 179.01 277.80&#10;  Q 206.42 279.10 233.56 283.04&#10;  Z"/>
<path fill="#6b5435" d="&#10;  M 503.27 281.09&#10;  Q 503.50 281.14 503.75 281.11&#10;  Q 503.80 281.11 503.85 281.11&#10;  Q 503.92 281.10 503.90 281.17&#10;  Q 503.89 281.19 503.86 281.19&#10;  Q 429.08 280.94 356.00 282.79&#10;  Q 347.16 283.01 337.74 283.51&#10;  Q 336.02 283.60 334.45 283.21&#10;  A 0.04 0.04 0.0 0 1 334.45 283.13&#10;  Q 355.51 279.93 377.57 278.51&#10;  C 417.33 275.95 455.85 276.00 494.51 279.66&#10;  Q 499.01 280.08 503.27 281.09&#10;  Z"/>
<path fill="#6b5435" d="&#10;  M 300.68 302.39&#10;  C 303.71 302.41 307.91 301.72 308.98 298.46&#10;  C 309.54 296.75 309.33 294.92 309.96 293.20&#10;  C 311.51 289.00 314.99 287.48 319.23 287.48&#10;  Q 411.00 287.56 502.58 287.49&#10;  C 515.38 287.48 515.28 304.77 503.13 304.77&#10;  Q 417.22 304.76 331.96 304.76&#10;  C 325.13 304.76 327.65 311.12 325.63 314.90&#10;  Q 323.09 319.65 317.66 319.65&#10;  Q 284.99 319.64 250.90 319.64&#10;  Q 244.65 319.64 242.36 314.11&#10;  C 240.98 310.77 242.76 304.78 236.84 304.78&#10;  Q 153.15 304.73 65.47 304.79&#10;  Q 62.12 304.79 59.96 303.35&#10;  C 55.67 300.48 54.79 294.24 58.36 290.36&#10;  Q 61.00 287.50 65.50 287.50&#10;  Q 156.02 287.52 250.10 287.51&#10;  C 256.26 287.51 258.52 291.86 259.10 297.19&#10;  C 259.69 302.55 265.78 302.41 269.68 302.39&#10;  Q 284.85 302.32 300.68 302.39&#10;  Z"/>
<path fill="#ea9602" d="&#10;  M 167.8408 394.2436&#10;  A 12.98 12.98 0.0 0 1 154.8382 407.2009&#10;  L 153.7582 407.1990&#10;  A 12.98 12.98 0.0 0 1 140.8009 394.1964&#10;  L 140.8792 349.3364&#10;  A 12.98 12.98 0.0 0 1 153.8818 336.3791&#10;  L 154.9618 336.3810&#10;  A 12.98 12.98 0.0 0 1 167.9191 349.3836&#10;  L 167.8408 394.2436&#10;  Z&#10;  M 157.69 349.68&#10;  A 3.36 3.36 0.0 0 0 154.33 346.32&#10;  L 154.21 346.32&#10;  A 3.36 3.36 0.0 0 0 150.85 349.68&#10;  L 150.85 394.00&#10;  A 3.36 3.36 0.0 0 0 154.21 397.36&#10;  L 154.33 397.36&#10;  A 3.36 3.36 0.0 0 0 157.69 394.00&#10;  L 157.69 349.68&#10;  Z"/>
<path fill="#ea9602" d="&#10;  M 365.82 349.14&#10;  C 364.79 345.09 360.50 344.14 359.34 348.77&#10;  Q 357.92 354.46 361.68 360.32&#10;  C 365.90 366.91 371.13 373.85 374.23 380.39&#10;  Q 377.76 387.86 375.82 396.71&#10;  C 374.04 404.87 367.78 408.09 359.87 407.21&#10;  C 349.35 406.04 347.19 396.25 347.53 387.39&#10;  Q 347.54 387.12 347.81 387.09&#10;  L 357.14 386.20&#10;  Q 357.40 386.18 357.41 386.44&#10;  Q 357.60 393.05 359.00 395.81&#10;  C 360.57 398.92 365.11 398.46 365.99 394.98&#10;  Q 367.64 388.51 363.94 382.79&#10;  Q 359.29 375.59 354.29 368.17&#10;  C 348.50 359.56 345.44 344.47 355.71 338.16&#10;  Q 361.48 334.61 368.51 337.41&#10;  C 374.77 339.91 376.39 347.69 376.49 353.53&#10;  Q 376.52 354.78 375.28 354.89&#10;  L 367.74 355.58&#10;  Q 366.54 355.69 366.54 354.49&#10;  Q 366.53 351.93 365.82 349.14&#10;  Z"/>
<path fill="#ea9602" d="&#10;  M 137.20 397.91&#10;  L 137.26 405.76&#10;  A 0.81 0.81 0.0 0 1 136.45 406.58&#10;  L 114.32 406.52&#10;  A 0.81 0.81 0.0 0 1 113.51 405.71&#10;  L 113.53 337.79&#10;  A 0.81 0.81 0.0 0 1 114.34 336.98&#10;  L 122.78 336.94&#10;  A 0.81 0.81 0.0 0 1 123.59 337.75&#10;  L 123.61 396.37&#10;  A 0.81 0.81 0.0 0 0 124.43 397.18&#10;  L 136.38 397.11&#10;  A 0.81 0.81 0.0 0 1 137.20 397.91&#10;  Z"/>
<path fill="#ea9602" d="&#10;  M 266.60 360.57&#10;  L 266.31 360.63&#10;  Q 266.20 360.65 266.18 360.76&#10;  Q 262.87 383.41 259.74 404.74&#10;  Q 259.42 406.89 256.75 406.68&#10;  Q 254.88 406.53 254.66 405.02&#10;  Q 251.41 382.62 248.32 360.24&#10;  Q 248.29 360.07 248.12 360.08&#10;  L 247.82 360.10&#10;  A 0.30 0.30 0.0 0 0 247.54 360.40&#10;  L 247.52 405.98&#10;  A 0.59 0.59 0.0 0 1 246.92 406.57&#10;  L 238.69 406.51&#10;  A 0.58 0.57 0.0 0 1 238.11 405.94&#10;  L 238.12 337.29&#10;  Q 238.12 336.95 238.46 336.95&#10;  L 249.56 337.03&#10;  A 1.26 1.26 0.0 0 1 250.79 338.06&#10;  L 257.03 371.47&#10;  Q 257.19 372.31 257.35 371.47&#10;  L 263.76 337.32&#10;  A 0.41 0.40 5.1 0 1 264.16 336.99&#10;  L 275.30 336.98&#10;  A 1.07 1.06 90.0 0 1 276.36 338.05&#10;  L 276.34 406.27&#10;  A 0.36 0.36 0.0 0 1 275.98 406.63&#10;  L 267.18 406.53&#10;  Q 266.83 406.52 266.83 406.18&#10;  L 266.88 360.80&#10;  Q 266.88 360.51 266.60 360.57&#10;  Z"/>
<rect fill="#ea9602" x="298.49" y="336.96" width="10.22" height="69.62" rx="0.38"/>
<path fill="#ea9602" d="&#10;  M 326.50 379.50&#10;  L 326.50 405.69&#10;  A 0.95 0.94 90.0 0 1 325.56 406.64&#10;  L 316.94 406.63&#10;  A 0.69 0.68 -90.0 0 1 316.26 405.94&#10;  L 316.25 337.28&#10;  A 0.34 0.34 0.0 0 1 316.61 336.94&#10;  C 322.15 337.13 328.54 336.40 333.71 338.27&#10;  C 343.76 341.92 345.19 353.52 344.16 362.68&#10;  C 343.13 371.84 336.93 378.56 327.36 378.63&#10;  Q 326.50 378.63 326.50 379.50&#10;  Z&#10;  M 326.49 348.06&#10;  L 326.45 367.82&#10;  A 0.69 0.69 0.0 0 0 327.14 368.51&#10;  L 327.51 368.52&#10;  A 6.89 6.62 -89.9 0 0 334.14 361.64&#10;  L 334.16 354.28&#10;  A 6.89 6.62 -89.9 0 0 327.55 347.38&#10;  L 327.18 347.37&#10;  A 0.69 0.69 0.0 0 0 326.49 348.06&#10;  Z"/>
<path fill="#ea9602" d="&#10;  M 397.32 396.73&#10;  Q 398.99 394.98 398.99 392.56&#10;  L 399.00 337.51&#10;  Q 399.00 337.01 399.49 337.01&#10;  L 408.50 336.97&#10;  A 0.67 0.66 -0.0 0 1 409.17 337.63&#10;  Q 409.29 363.82 409.18 392.74&#10;  Q 409.17 395.87 407.94 398.85&#10;  Q 404.03 408.24 393.91 407.25&#10;  C 385.34 406.41 381.97 399.10 381.94 391.35&#10;  Q 381.87 364.70 381.99 337.40&#10;  A 0.42 0.42 0.0 0 1 382.41 336.98&#10;  L 391.14 336.94&#10;  A 1.08 1.08 0.0 0 1 392.22 338.02&#10;  Q 392.17 363.28 392.20 392.80&#10;  Q 392.20 396.80 395.48 397.50&#10;  Q 396.40 397.69 397.32 396.73&#10;  Z"/>
<path fill="#ea9602" d="&#10;  M 435.55 370.98&#10;  Q 435.76 372.13 435.98 370.98&#10;  L 442.25 337.80&#10;  A 1.05 1.05 0.0 0 1 443.28 336.96&#10;  L 454.26 337.00&#10;  A 0.63 0.63 0.0 0 1 454.88 337.63&#10;  L 454.94 406.18&#10;  A 0.27 0.27 0.0 0 1 454.68 406.45&#10;  L 445.96 406.68&#10;  A 0.42 0.41 88.7 0 1 445.53 406.26&#10;  L 445.49 360.51&#10;  Q 445.49 360.20 445.19 360.18&#10;  L 444.91 360.16&#10;  Q 444.85 360.15 444.84 360.21&#10;  L 438.14 405.68&#10;  A 1.05 1.04 2.0 0 1 437.18 406.57&#10;  L 434.57 406.75&#10;  A 1.00 0.99 -5.9 0 1 433.52 405.90&#10;  Q 430.42 385.06 427.39 365.15&#10;  C 427.15 363.58 427.31 362.07 426.98 360.51&#10;  A 0.32 0.32 0.0 0 0 426.41 360.38&#10;  Q 426.10 360.81 426.10 361.38&#10;  Q 426.37 383.00 426.09 405.74&#10;  A 0.88 0.88 0.0 0 1 425.22 406.61&#10;  L 417.57 406.70&#10;  Q 416.69 406.71 416.69 405.83&#10;  L 416.67 337.67&#10;  Q 416.67 337.01 417.33 337.01&#10;  L 428.23 337.01&#10;  A 1.20 1.20 0.0 0 1 429.41 337.99&#10;  L 435.55 370.98&#10;  Z"/>
<path fill="#ea9602" d="&#10;  M 186.01 376.89&#10;  A 0.69 0.69 0.0 0 0 185.31 377.53&#10;  Q 185.11 380.02 185.09 382.31&#10;  Q 184.97 394.35 185.05 405.82&#10;  A 0.76 0.75 -0.4 0 1 184.29 406.58&#10;  L 175.59 406.55&#10;  A 0.71 0.71 0.0 0 1 174.88 405.84&#10;  L 174.86 337.49&#10;  A 0.45 0.45 0.0 0 1 175.30 337.04&#10;  C 187.31 336.71 199.87 335.75 202.04 351.24&#10;  C 203.11 358.90 202.61 366.78 197.59 372.44&#10;  Q 197.19 372.89 197.18 373.50&#10;  Q 197.15 375.24 197.45 376.76&#10;  Q 200.36 391.23 203.29 406.19&#10;  A 0.30 0.30 0.0 0 1 203.00 406.55&#10;  L 193.72 406.51&#10;  Q 193.07 406.51 192.96 405.87&#10;  Q 190.58 392.23 188.05 378.58&#10;  Q 187.75 376.92 186.01 376.89&#10;  Z&#10;  M 185.03 347.21&#10;  L 185.07 367.69&#10;  A 0.19 0.19 0.0 0 0 185.26 367.88&#10;  L 185.41 367.88&#10;  A 7.79 7.14 89.9 0 0 192.53 360.07&#10;  L 192.53 354.79&#10;  A 7.79 7.14 89.9 0 0 185.37 347.02&#10;  L 185.22 347.02&#10;  A 0.19 0.19 0.0 0 0 185.03 347.21&#10;  Z"/>
<path fill="#ea9602" d="&#10;  M 219.86 365.73&#10;  L 228.00 365.90&#10;  A 0.73 0.73 0.0 0 1 228.71 366.63&#10;  L 228.72 376.27&#10;  A 0.73 0.73 0.0 0 1 227.98 377.00&#10;  L 219.93 376.94&#10;  A 0.73 0.73 0.0 0 0 219.19 377.67&#10;  L 219.21 395.37&#10;  A 0.73 0.73 0.0 0 0 219.95 396.10&#10;  L 231.60 395.99&#10;  A 0.73 0.73 0.0 0 1 232.34 396.72&#10;  L 232.37 405.82&#10;  A 0.73 0.73 0.0 0 1 231.64 406.55&#10;  L 209.76 406.51&#10;  A 0.73 0.73 0.0 0 1 209.03 405.78&#10;  L 209.06 337.71&#10;  A 0.73 0.73 0.0 0 1 209.79 336.98&#10;  L 231.63 337.02&#10;  A 0.73 0.73 0.0 0 1 232.36 337.75&#10;  L 232.40 346.84&#10;  A 0.73 0.73 0.0 0 1 231.67 347.57&#10;  L 219.89 347.57&#10;  A 0.73 0.73 0.0 0 0 219.16 348.30&#10;  L 219.14 365.00&#10;  A 0.73 0.73 0.0 0 0 219.86 365.73&#10;  Z"/>
<rect fill="#f6f6f6" x="150.85" y="346.32" width="6.84" height="51.04" rx="3.36"/>
<path fill="#f6f6f6" d="&#10;  M 185.03 347.21&#10;  A 0.19 0.19 0.0 0 1 185.22 347.02&#10;  L 185.37 347.02&#10;  A 7.79 7.14 89.9 0 1 192.53 354.79&#10;  L 192.53 360.07&#10;  A 7.79 7.14 89.9 0 1 185.41 367.88&#10;  L 185.26 367.88&#10;  A 0.19 0.19 0.0 0 1 185.07 367.69&#10;  L 185.03 347.21&#10;  Z"/>
<path fill="#f6f6f6" d="&#10;  M 326.49 348.06&#10;  A 0.69 0.69 0.0 0 1 327.18 347.37&#10;  L 327.55 347.38&#10;  A 6.89 6.62 -89.9 0 1 334.16 354.28&#10;  L 334.14 361.64&#10;  A 6.89 6.62 -89.9 0 1 327.51 368.52&#10;  L 327.14 368.51&#10;  A 0.69 0.69 0.0 0 1 326.45 367.82&#10;  L 326.49 348.06&#10;  Z"/>
<path fill="#6b5435" d="&#10;  M 168.15 429.47&#10;  L 168.11 418.56&#10;  Q 168.10 417.47 169.19 417.49&#10;  L 171.25 417.53&#10;  Q 172.20 417.55 172.20 418.50&#10;  L 172.24 448.73&#10;  Q 172.25 449.45 171.52 449.45&#10;  L 169.51 449.43&#10;  A 0.90 0.90 0.0 0 1 168.62 448.42&#10;  Q 168.71 447.74 168.71 447.06&#10;  Q 168.71 445.60 167.80 446.75&#10;  C 164.64 450.77 158.32 450.90 154.85 447.20&#10;  C 151.35 443.48 150.95 437.56 152.97 432.96&#10;  C 155.54 427.11 162.93 425.07 167.59 429.70&#10;  Q 168.16 430.27 168.15 429.47&#10;  Z&#10;  M 161.8717 446.8771&#10;  A 8.34 6.36 91.5 0 0 168.4478 438.7065&#10;  A 8.34 6.36 91.5 0 0 162.3083 430.2029&#10;  A 8.34 6.36 91.5 0 0 155.7322 438.3735&#10;  A 8.34 6.36 91.5 0 0 161.8717 446.8771&#10;  Z"/>
<rect fill="#6b5435" x="203.24" y="417.54" width="4.02" height="31.84" rx="0.55"/>
<circle fill="#6b5435" cx="282.31" cy="421.59" r="2.44"/>
<path fill="#6b5435" d="&#10;  M 411.25 427.73&#10;  L 415.56 427.72&#10;  Q 416.65 427.71 416.70 428.81&#10;  L 416.74 429.72&#10;  Q 416.78 430.73 415.78 430.73&#10;  L 411.43 430.72&#10;  Q 410.84 430.72 410.83 431.31&#10;  Q 410.78 437.72 410.94 443.13&#10;  Q 411.07 447.39 415.43 446.57&#10;  Q 416.24 446.42 416.27 447.25&#10;  L 416.32 448.50&#10;  Q 416.35 449.29 415.59 449.47&#10;  C 408.49 451.20 406.75 446.84 406.97 440.92&#10;  Q 407.15 436.05 406.98 431.33&#10;  Q 406.95 430.69 406.31 430.70&#10;  L 404.25 430.75&#10;  Q 403.76 430.76 403.67 430.28&#10;  Q 403.48 429.25 403.71 428.21&#10;  Q 403.85 427.58 404.49 427.62&#10;  L 406.38 427.74&#10;  Q 407.04 427.78 407.03 427.12&#10;  L 406.99 423.41&#10;  Q 406.98 422.53 407.83 422.26&#10;  L 409.98 421.57&#10;  Q 410.88 421.28 410.86 422.23&#10;  L 410.78 427.25&#10;  Q 410.77 427.74 411.25 427.73&#10;  Z"/>
<path fill="#6b5435" d="&#10;  M 291.79 427.24&#10;  L 291.73 423.50&#10;  A 1.37 1.37 0.0 0 1 292.74 422.15&#10;  L 294.44 421.71&#10;  Q 295.72 421.37 295.70 422.70&#10;  L 295.61 427.29&#10;  Q 295.60 427.73 296.04 427.73&#10;  L 300.30 427.69&#10;  Q 301.17 427.69 301.21 428.55&#10;  L 301.28 429.83&#10;  Q 301.33 430.74 300.42 430.73&#10;  L 296.19 430.72&#10;  Q 295.60 430.72 295.60 431.31&#10;  L 295.68 444.20&#10;  A 2.38 2.37 1.1 0 0 297.95 446.56&#10;  L 300.44 446.66&#10;  Q 301.04 446.69 301.08 447.29&#10;  Q 301.13 448.22 300.89 448.99&#10;  Q 300.75 449.45 300.28 449.54&#10;  C 295.02 450.49 291.71 448.87 291.70 443.09&#10;  Q 291.68 437.30 291.75 431.48&#10;  Q 291.76 430.79 291.07 430.77&#10;  L 289.22 430.71&#10;  Q 288.27 430.68 288.30 429.72&#10;  L 288.33 428.50&#10;  A 0.87 0.87 0.0 0 1 289.24 427.66&#10;  L 291.26 427.75&#10;  Q 291.79 427.77 291.79 427.24&#10;  Z"/>
<path fill="#6b5435" d="&#10;  M 186.8200 449.9562&#10;  A 11.47 10.72 94.4 0 1 177.0116 437.6976&#10;  A 11.47 10.72 94.4 0 1 188.5800 427.0838&#10;  A 11.47 10.72 94.4 0 1 198.3884 439.3424&#10;  A 11.47 10.72 94.4 0 1 186.8200 449.9562&#10;  Z&#10;  M 187.5270 447.0090&#10;  A 8.47 6.64 90.9 0 0 194.2992 438.6443&#10;  A 8.47 6.64 90.9 0 0 187.7930 430.0710&#10;  A 8.47 6.64 90.9 0 0 181.0208 438.4357&#10;  A 8.47 6.64 90.9 0 0 187.5270 447.0090&#10;  Z"/>
<path fill="#6b5435" d="&#10;  M 221.7996 449.9591&#10;  A 11.48 10.74 95.4 0 1 212.1877 437.5193&#10;  A 11.48 10.74 95.4 0 1 223.9604 427.1009&#10;  A 11.48 10.74 95.4 0 1 233.5723 439.5407&#10;  A 11.48 10.74 95.4 0 1 221.7996 449.9591&#10;  Z&#10;  M 222.8600 446.9600&#10;  A 8.43 6.64 90.0 0 0 229.5000 438.5300&#10;  A 8.43 6.64 90.0 0 0 222.8600 430.1000&#10;  A 8.43 6.64 90.0 0 0 216.2200 438.5300&#10;  A 8.43 6.64 90.0 0 0 222.8600 446.9600&#10;  Z"/>
<path fill="#6b5435" d="&#10;  M 242.32 431.02&#10;  C 244.05 428.64 245.47 426.86 248.79 427.34&#10;  Q 249.19 427.40 249.20 427.80&#10;  L 249.32 430.39&#10;  Q 249.34 430.81 248.92 430.81&#10;  Q 242.91 430.77 242.46 437.26&#10;  Q 242.24 440.46 242.44 448.67&#10;  Q 242.45 449.36 241.77 449.37&#10;  L 239.24 449.42&#10;  Q 238.54 449.43 238.54 448.74&#10;  L 238.40 428.33&#10;  Q 238.40 427.56 239.17 427.56&#10;  L 240.93 427.58&#10;  Q 241.78 427.58 241.76 428.43&#10;  L 241.70 430.81&#10;  Q 241.67 431.91 242.32 431.02&#10;  Z"/>
<path fill="#6b5435" d="&#10;  M 265.65 432.30&#10;  Q 264.77 434.45 267.21 435.66&#10;  C 270.26 437.17 274.22 438.08 275.13 441.95&#10;  Q 275.69 444.31 274.50 446.39&#10;  C 272.13 450.53 265.94 450.28 262.03 448.93&#10;  Q 261.12 448.61 261.35 447.67&#10;  L 261.69 446.25&#10;  Q 261.94 445.23 262.86 445.73&#10;  Q 266.17 447.53 269.77 446.45&#10;  A 2.11 2.07 -80.6 0 0 270.85 445.66&#10;  C 272.51 443.32 271.06 441.15 268.75 440.25&#10;  C 264.89 438.76 259.73 436.19 262.31 430.98&#10;  C 264.41 426.76 269.93 426.53 273.77 428.18&#10;  Q 274.33 428.42 274.29 429.02&#10;  L 274.17 430.73&#10;  A 0.60 0.60 0.0 0 1 273.34 431.24&#10;  Q 267.15 428.63 265.65 432.30&#10;  Z"/>
<path fill="#6b5435" d="&#10;  M 327.01 447.53&#10;  Q 326.88 446.79 326.32 447.29&#10;  Q 321.91 451.26 317.03 449.18&#10;  C 313.55 447.70 312.47 443.23 314.44 440.10&#10;  C 316.58 436.69 321.12 435.71 324.86 435.71&#10;  Q 327.03 435.71 326.43 433.63&#10;  L 326.23 432.92&#10;  A 3.70 3.70 0.0 0 0 323.38 430.32&#10;  Q 319.76 429.60 316.42 431.48&#10;  Q 315.91 431.77 315.70 431.22&#10;  L 315.18 429.84&#10;  Q 314.91 429.13 315.58 428.79&#10;  Q 317.74 427.70 320.25 427.37&#10;  C 329.22 426.19 330.81 432.10 330.51 439.25&#10;  Q 330.29 444.34 330.70 448.79&#10;  Q 330.77 449.55 330.00 449.51&#10;  L 327.96 449.41&#10;  A 0.77 0.77 0.0 0 1 327.24 448.78&#10;  L 327.01 447.53&#10;  Z&#10;  M 326.52 438.88&#10;  Q 326.43 438.36 325.91 438.36&#10;  Q 322.92 438.34 320.42 439.17&#10;  C 315.14 440.91 317.34 448.93 323.22 446.59&#10;  Q 327.53 444.88 326.52 438.88&#10;  Z"/>
<path fill="#6b5435" d="&#10;  M 350.16 430.69&#10;  C 350.91 429.81 351.76 428.64 352.81 428.15&#10;  Q 358.99 425.30 362.62 430.78&#10;  Q 363.06 431.44 363.51 430.78&#10;  C 364.36 429.49 365.69 428.21 367.18 427.72&#10;  C 373.39 425.67 377.12 429.99 377.22 435.77&#10;  Q 377.33 442.65 377.26 449.00&#10;  Q 377.26 449.44 376.82 449.44&#10;  L 374.27 449.44&#10;  Q 373.45 449.44 373.46 448.62&#10;  Q 373.53 443.54 373.56 438.26&#10;  Q 373.57 435.54 372.86 433.27&#10;  C 371.26 428.16 364.03 430.57 363.84 435.48&#10;  Q 363.58 441.88 363.79 448.88&#10;  Q 363.80 449.43 363.25 449.43&#10;  L 360.37 449.37&#10;  Q 359.80 449.36 359.81 448.79&#10;  Q 359.89 442.74 359.86 435.88&#10;  C 359.82 427.78 350.05 429.21 350.18 436.87&#10;  Q 350.28 443.06 350.19 449.03&#10;  A 0.44 0.44 0.0 0 1 349.72 449.46&#10;  L 346.68 449.26&#10;  Q 346.37 449.24 346.37 448.93&#10;  L 346.32 428.44&#10;  Q 346.32 427.69 347.06 427.63&#10;  L 348.75 427.50&#10;  Q 349.57 427.43 349.55 428.25&#10;  L 349.52 430.45&#10;  Q 349.50 431.47 350.16 430.69&#10;  Z"/>
<path fill="#6b5435" d="&#10;  M 388.03 439.32&#10;  Q 385.13 439.32 386.29 441.98&#10;  L 386.87 443.28&#10;  A 5.55 5.54 -7.0 0 0 391.03 446.53&#10;  Q 394.69 447.15 398.35 446.06&#10;  Q 399.56 445.70 399.83 446.94&#10;  L 399.89 447.23&#10;  Q 400.19 448.63 398.81 449.00&#10;  C 394.38 450.20 388.75 450.50 385.22 447.09&#10;  C 379.57 441.64 381.85 429.19 390.00 427.50&#10;  C 397.67 425.91 401.83 431.74 401.20 438.65&#10;  A 0.72 0.71 -87.4 0 1 400.49 439.30&#10;  L 388.03 439.32&#10;  Z&#10;  M 386.45 436.52&#10;  L 397.27 436.38&#10;  A 0.26 0.26 0.0 0 0 397.53 436.12&#10;  L 397.52 435.75&#10;  A 5.75 5.67 89.3 0 0 391.78 430.07&#10;  L 391.78 430.07&#10;  A 5.75 5.67 89.3 0 0 386.18 435.89&#10;  L 386.19 436.26&#10;  A 0.26 0.26 0.0 0 0 386.45 436.52&#10;  Z"/>
<rect fill="#6b5435" x="-2.01" y="-10.88" transform="translate(282.36,438.51) rotate(-0.2)" width="4.02" height="21.76" rx="0.61"/>
<path fill="#f6f6f6" d="&#10;  M 386.45 436.52&#10;  A 0.26 0.26 0.0 0 1 386.19 436.26&#10;  L 386.18 435.89&#10;  A 5.75 5.67 89.3 0 1 391.78 430.07&#10;  L 391.78 430.07&#10;  A 5.75 5.67 89.3 0 1 397.52 435.75&#10;  L 397.53 436.12&#10;  A 0.26 0.26 0.0 0 1 397.27 436.38&#10;  L 386.45 436.52&#10;  Z"/>
<ellipse fill="#f6f6f6" cx="0.00" cy="0.00" transform="translate(162.09,438.54) rotate(91.5)" rx="8.34" ry="6.36"/>
<ellipse fill="#f6f6f6" cx="0.00" cy="0.00" transform="translate(187.66,438.54) rotate(90.9)" rx="8.47" ry="6.64"/>
<ellipse fill="#f6f6f6" cx="0.00" cy="0.00" transform="translate(222.86,438.53) rotate(90.0)" rx="8.43" ry="6.64"/>
<path fill="#f6f6f6" d="&#10;  M 326.52 438.88&#10;  Q 327.53 444.88 323.22 446.59&#10;  C 317.34 448.93 315.14 440.91 320.42 439.17&#10;  Q 322.92 438.34 325.91 438.36&#10;  Q 326.43 438.36 326.52 438.88&#10;  Z"/>
</svg>