<svg xmlns="http://www.w3.org/2000/svg" version="1.1" viewBox="0.00 0.00 206.00 55.00" width="206.00" height="55.00">
<path fill="#002b58" d="&#10;  M 17.20 0.00&#10;  L 20.08 0.00&#10;  Q 21.91 1.16 22.73 3.17&#10;  A 1.07 1.06 87.5 0 0 23.40 3.79&#10;  Q 24.92 4.27 26.16 3.45&#10;  Q 26.49 3.22 26.79 3.50&#10;  C 28.11 4.74 31.02 6.52 33.05 6.54&#10;  Q 34.18 6.55 34.23 7.73&#10;  Q 34.25 8.19 34.54 8.55&#10;  Q 36.35 10.80 38.52 12.27&#10;  Q 38.81 12.47 38.81 12.82&#10;  Q 38.83 16.35 41.13 18.76&#10;  Q 41.49 19.14 41.34 19.65&#10;  C 40.89 21.19 40.99 24.48 42.23 25.99&#10;  Q 42.85 26.74 42.03 27.30&#10;  A 1.21 1.21 0.0 0 0 41.50 28.30&#10;  L 41.50 32.29&#10;  Q 41.50 32.71 41.83 32.97&#10;  L 42.08 33.16&#10;  Q 42.51 33.49 42.14 33.90&#10;  L 41.45 34.67&#10;  Q 41.13 35.02 41.05 35.48&#10;  L 40.36 39.14&#10;  Q 40.25 39.76 40.87 39.76&#10;  L 43.00 39.75&#10;  Q 43.25 39.75 43.25 40.00&#10;  L 43.25 42.00&#10;  Q 43.25 42.25 43.00 42.25&#10;  L 8.00 42.25&#10;  Q 7.75 42.25 7.75 42.00&#10;  L 7.76 40.11&#10;  Q 7.76 39.72 8.14 39.73&#10;  L 10.20 39.79&#10;  Q 10.68 39.80 10.74 39.33&#10;  C 11.52 33.38 17.54 29.37 21.30 25.08&#10;  A 0.34 0.33 21.8 0 0 21.06 24.53&#10;  Q 19.75 24.47 18.44 24.49&#10;  C 15.41 24.55 12.87 29.86 12.29 32.28&#10;  Q 12.18 32.75 11.69 32.75&#10;  L 7.24 32.75&#10;  A 0.59 0.59 0.0 0 1 6.70 31.91&#10;  Q 6.79 31.73 6.80 31.52&#10;  Q 6.85 30.54 6.13 31.21&#10;  Q 5.78 31.54 5.35 31.67&#10;  Q 4.79 31.85 4.41 31.41&#10;  L 0.00 26.35&#10;  L 0.00 25.05&#10;  Q 3.55 20.52 6.83 15.91&#10;  C 7.87 14.45 8.18 13.10 8.72 11.47&#10;  A 1.17 1.14 0.7 0 1 9.51 10.72&#10;  C 11.40 10.19 13.14 7.94 12.79 5.93&#10;  Q 12.51 4.25 12.27 2.66&#10;  A 0.55 0.54 78.0 0 1 12.66 2.05&#10;  Q 14.83 1.41 16.62 2.48&#10;  Q 17.17 2.81 17.18 2.17&#10;  L 17.20 0.00&#10;  Z&#10;  M 20.96 9.13&#10;  Q 21.09 6.20 20.16 3.66&#10;  Q 19.74 2.54 19.58 3.72&#10;  L 19.08 7.25&#10;  Q 18.98 7.93 18.30 7.95&#10;  C 16.73 8.01 16.45 5.96 15.78 4.96&#10;  Q 15.42 4.43 15.28 5.06&#10;  Q 15.06 6.10 15.45 7.09&#10;  Q 15.69 7.70 15.32 8.25&#10;  L 14.63 9.30&#10;  Q 14.35 9.72 14.47 10.21&#10;  L 14.71 11.17&#10;  A 0.59 0.59 0.0 0 1 14.31 11.87&#10;  L 11.39 12.80&#10;  A 0.97 0.94 6.0 0 0 10.88 13.20&#10;  C 10.09 14.42 10.03 15.75 9.15 16.99&#10;  Q 6.30 21.00 3.34 24.93&#10;  Q 2.79 25.66 3.39 26.35&#10;  L 4.91 28.11&#10;  A 0.76 0.76 0.0 0 0 6.11 28.05&#10;  Q 6.95 26.85 8.25 26.40&#10;  Q 8.95 26.16 8.98 26.90&#10;  Q 9.03 28.25 8.98 29.51&#10;  Q 8.97 29.81 9.15 30.05&#10;  Q 9.42 30.41 9.87 30.32&#10;  Q 10.26 30.25 10.40 29.88&#10;  Q 11.85 26.15 14.57 23.64&#10;  Q 15.03 23.23 14.59 22.79&#10;  Q 14.36 22.55 14.23 22.25&#10;  Q 13.97 21.63 14.54 21.27&#10;  L 15.48 20.67&#10;  Q 15.92 20.39 16.26 20.79&#10;  L 17.10 21.79&#10;  Q 17.48 22.25 18.08 22.25&#10;  L 22.45 22.25&#10;  A 0.71 0.70 -78.7 0 0 23.10 21.81&#10;  Q 24.19 19.03 24.25 16.26&#10;  Q 24.26 15.75 24.78 15.75&#10;  L 26.22 15.76&#10;  Q 26.77 15.76 26.75 16.31&#10;  Q 26.53 24.52 19.75 30.57&#10;  C 17.14 32.91 14.09 35.76 13.26 39.07&#10;  Q 13.09 39.75 13.79 39.75&#10;  L 37.02 39.75&#10;  Q 37.66 39.75 37.81 39.13&#10;  Q 40.47 28.42 38.09 19.75&#10;  Q 34.97 8.38 23.78 6.29&#10;  Q 23.25 6.19 23.25 6.73&#10;  L 23.25 9.54&#10;  A 0.26 0.25 4.8 0 1 22.95 9.79&#10;  L 21.29 9.54&#10;  Q 20.94 9.48 20.96 9.13&#10;  Z"/>
<path fill="#002b58" d="&#10;  M 74.08 20.71&#10;  C 73.35 18.38 72.49 16.37 69.96 15.52&#10;  C 66.73 14.45 63.82 17.10 64.56 20.42&#10;  C 65.31 23.78 70.11 25.59 72.89 27.08&#10;  C 79.30 30.52 78.88 39.04 72.30 41.80&#10;  Q 67.08 43.98 60.60 41.37&#10;  Q 60.16 41.19 60.06 40.74&#10;  Q 59.36 37.52 59.46 33.87&#10;  Q 59.47 33.28 60.06 33.32&#10;  L 60.95 33.38&#10;  Q 61.47 33.41 61.58 33.92&#10;  C 62.51 38.36 65.58 41.99 70.30 40.07&#10;  Q 72.23 39.28 72.77 37.12&#10;  C 74.16 31.51 67.00 29.41 63.53 27.18&#10;  C 58.21 23.73 59.24 16.29 64.84 13.91&#10;  Q 69.44 11.95 75.31 14.24&#10;  Q 75.69 14.38 75.71 14.79&#10;  L 76.06 20.27&#10;  Q 76.10 20.84 75.59 21.10&#10;  Q 75.25 21.27 74.86 21.28&#10;  Q 74.26 21.29 74.08 20.71&#10;  Z"/>
<path fill="#002b58" d="&#10;  M 13.91 15.96&#10;  Q 13.05 16.24 12.32 16.71&#10;  Q 11.58 17.18 11.48 16.31&#10;  Q 11.37 15.30 11.61 14.44&#10;  Q 11.77 13.81 12.42 13.78&#10;  L 14.67 13.66&#10;  Q 15.41 13.62 15.32 14.36&#10;  Q 15.17 15.55 13.91 15.96&#10;  Z"/>
<circle fill="#002b58" cx="122.64" cy="16.50" r="2.76"/>
<path fill="#002b58" d="&#10;  M 86.25 24.31&#10;  Q 86.24 25.61 87.30 24.87&#10;  C 95.60 19.11 101.21 28.30 98.26 35.54&#10;  Q 95.35 42.70 86.86 42.34&#10;  Q 86.25 42.31 86.25 42.92&#10;  L 86.25 50.07&#10;  Q 86.25 50.78 86.87 51.14&#10;  Q 88.06 51.84 89.49 51.73&#10;  A 0.47 0.47 0.0 0 1 90.00 52.22&#10;  L 89.98 53.01&#10;  Q 89.97 53.50 89.49 53.50&#10;  L 79.73 53.50&#10;  Q 79.21 53.50 79.24 52.98&#10;  L 79.26 52.25&#10;  Q 79.28 51.77 79.77 51.75&#10;  Q 80.82 51.71 81.61 51.06&#10;  Q 82.00 50.74 82.00 50.24&#10;  L 82.00 27.02&#10;  A 0.65 0.64 -88.1 0 0 81.40 26.37&#10;  Q 80.31 26.30 79.55 25.63&#10;  A 0.62 0.62 0.0 0 1 79.78 24.57&#10;  L 85.46 22.85&#10;  Q 86.26 22.61 86.25 23.45&#10;  L 86.25 24.31&#10;  Z&#10;  M 86.84 38.92&#10;  C 89.44 40.64 92.73 39.96 93.95 37.04&#10;  C 95.97 32.17 94.35 22.99 86.76 27.15&#10;  Q 86.25 27.43 86.25 28.00&#10;  L 86.25 37.81&#10;  Q 86.25 38.53 86.84 38.92&#10;  Z"/>
<path fill="#002b58" d="&#10;  M 109.05 26.39&#10;  C 110.29 24.50 112.51 22.04 114.91 23.42&#10;  A 2.50 2.49 28.6 0 1 115.89 26.72&#10;  Q 114.62 29.19 112.45 27.57&#10;  A 1.58 1.57 43.2 0 0 110.50 27.63&#10;  C 107.59 30.06 108.48 34.58 108.53 38.01&#10;  Q 108.57 40.60 111.40 40.22&#10;  Q 111.99 40.14 111.99 40.73&#10;  L 112.00 41.50&#10;  Q 112.01 42.00 111.50 42.00&#10;  L 102.53 42.00&#10;  Q 101.80 42.00 101.68 41.28&#10;  L 101.62 40.95&#10;  A 0.53 0.53 0.0 0 1 102.13 40.34&#10;  C 103.27 40.32 104.50 39.69 104.50 38.40&#10;  Q 104.51 33.26 104.48 28.09&#10;  Q 104.47 26.27 102.60 26.29&#10;  Q 102.00 26.29 102.01 25.69&#10;  L 102.01 25.33&#10;  Q 102.02 24.65 102.68 24.49&#10;  L 108.04 23.13&#10;  A 0.40 0.40 0.0 0 1 108.54 23.53&#10;  L 108.48 26.21&#10;  Q 108.46 27.29 109.05 26.39&#10;  Z"/>
<path fill="#002b58" d="&#10;  M 120.22 39.65&#10;  A 1.81 1.78 -22.9 0 0 120.75 38.38&#10;  Q 120.76 33.38 120.74 27.77&#10;  C 120.73 26.54 119.60 26.06 118.52 26.26&#10;  Q 117.96 26.36 117.99 25.79&#10;  L 118.03 25.06&#10;  Q 118.05 24.65 118.46 24.55&#10;  L 124.22 23.19&#10;  Q 124.79 23.05 124.78 23.64&#10;  Q 124.72 30.40 124.76 37.74&#10;  Q 124.78 40.48 127.54 40.42&#10;  A 0.44 0.44 0.0 0 1 127.98 40.94&#10;  L 127.92 41.25&#10;  Q 127.78 41.99 127.02 41.99&#10;  L 118.46 42.00&#10;  Q 117.66 42.00 117.67 41.21&#10;  L 117.68 40.80&#10;  A 0.53 0.53 0.0 0 1 118.26 40.28&#10;  Q 119.47 40.39 120.22 39.65&#10;  Z"/>
<path fill="#002b58" d="&#10;  M 137.16 25.23&#10;  C 138.60 24.29 140.34 23.18 142.08 23.02&#10;  C 145.97 22.67 148.17 25.70 148.05 29.35&#10;  Q 147.90 33.96 148.03 38.76&#10;  Q 148.05 39.19 148.35 39.49&#10;  Q 149.21 40.34 150.43 40.39&#10;  A 0.48 0.47 -89.4 0 1 150.88 40.86&#10;  L 150.89 41.20&#10;  Q 150.90 41.99 150.10 41.99&#10;  Q 146.30 41.99 142.37 42.01&#10;  Q 141.95 42.01 141.65 41.74&#10;  Q 141.26 41.39 141.37 40.88&#10;  A 0.63 0.63 0.0 0 1 141.88 40.39&#10;  Q 142.88 40.23 143.56 39.54&#10;  Q 143.92 39.17 143.96 38.65&#10;  Q 144.18 35.08 143.83 29.28&#10;  Q 143.61 25.85 140.20 26.22&#10;  Q 140.05 26.23 139.89 26.25&#10;  Q 136.31 26.64 136.44 30.23&#10;  Q 136.58 34.23 136.47 38.37&#10;  C 136.44 39.47 137.23 40.33 138.35 40.36&#10;  A 0.56 0.56 0.0 0 1 138.89 40.96&#10;  L 138.87 41.24&#10;  A 0.81 0.81 0.0 0 1 138.06 42.00&#10;  L 130.28 42.00&#10;  Q 129.56 42.00 129.39 41.29&#10;  L 129.31 40.94&#10;  A 0.44 0.44 0.0 0 1 129.75 40.41&#10;  Q 132.39 40.45 132.46 37.84&#10;  Q 132.64 31.92 132.34 27.76&#10;  Q 132.23 26.13 130.61 26.27&#10;  A 0.56 0.56 0.0 0 1 130.00 25.70&#10;  L 130.02 25.31&#10;  Q 130.04 24.64 130.69 24.48&#10;  L 135.86 23.19&#10;  Q 136.58 23.01 136.54 23.75&#10;  L 136.47 24.84&#10;  Q 136.42 25.71 137.16 25.23&#10;  Z"/>
<path fill="#002b58" d="&#10;  M 161.37 55.00&#10;  L 159.01 55.00&#10;  Q 156.18 54.38 154.57 53.19&#10;  C 150.85 50.42 152.42 46.08 156.04 44.04&#10;  Q 156.68 43.68 156.04 43.34&#10;  Q 153.95 42.20 153.34 40.11&#10;  A 0.77 0.77 0.0 0 1 153.63 39.26&#10;  L 156.75 37.04&#10;  Q 157.31 36.64 156.74 36.27&#10;  Q 152.45 33.44 153.75 28.58&#10;  C 154.97 23.98 160.31 21.95 164.51 23.54&#10;  C 166.70 24.36 169.10 23.87 171.35 23.56&#10;  Q 172.18 23.44 171.88 24.22&#10;  Q 170.95 26.65 168.92 26.51&#10;  Q 168.35 26.47 168.53 27.01&#10;  C 170.37 32.74 166.66 37.34 160.95 37.10&#10;  Q 159.59 37.05 158.87 38.19&#10;  L 158.56 38.67&#10;  Q 157.64 40.13 159.36 40.17&#10;  C 163.50 40.26 170.12 39.32 171.18 44.60&#10;  C 172.35 50.41 166.63 54.34 161.37 55.00&#10;  Z&#10;  M 161.7046 35.0501&#10;  A 5.01 3.43 86.4 0 0 164.8132 29.8346&#10;  A 5.01 3.43 86.4 0 0 161.0754 25.0499&#10;  A 5.01 3.43 86.4 0 0 157.9668 30.2654&#10;  A 5.01 3.43 86.4 0 0 161.7046 35.0501&#10;  Z&#10;  M 167.9033 47.5258&#10;  A 5.66 4.30 -4.4 0 0 161.9301 43.6727&#10;  A 5.66 4.30 -4.4 0 0 156.6167 48.3942&#10;  A 5.66 4.30 -4.4 0 0 162.5899 52.2473&#10;  A 5.66 4.30 -4.4 0 0 167.9033 47.5258&#10;  Z"/>
<path fill="#002b58" d="&#10;  M 177.19 32.99&#10;  C 177.83 38.29 182.79 41.08 187.27 37.24&#10;  Q 187.51 37.04 187.68 37.29&#10;  L 188.43 38.40&#10;  Q 188.59 38.63 188.41 38.86&#10;  C 183.57 44.66 174.91 43.51 173.36 35.73&#10;  Q 172.15 29.62 176.67 25.27&#10;  C 181.40 20.72 189.83 23.64 188.69 30.78&#10;  A 1.11 1.09 2.2 0 1 187.67 31.71&#10;  L 177.75 32.31&#10;  Q 177.11 32.35 177.19 32.99&#10;  Z&#10;  M 177.56 29.13&#10;  Q 177.26 30.12 178.30 30.07&#10;  L 183.38 29.81&#10;  A 1.24 1.23 -7.6 0 0 184.52 28.32&#10;  C 184.18 26.74 182.87 25.02 181.10 25.22&#10;  Q 178.67 25.50 177.56 29.13&#10;  Z"/>
<path fill="#002b58" d="&#10;  M 198.64 26.40&#10;  C 199.88 24.14 202.79 21.45 205.24 24.11&#10;  C 206.40 25.36 205.35 27.34 204.14 28.07&#10;  Q 203.67 28.35 203.18 28.12&#10;  L 201.35 27.28&#10;  Q 200.86 27.05 200.41 27.37&#10;  Q 198.31 28.88 198.11 30.99&#10;  Q 197.82 34.13 198.08 38.29&#10;  A 2.03 2.02 2.1 0 0 199.84 40.17&#10;  L 201.26 40.35&#10;  A 0.76 0.75 89.0 0 1 201.91 40.98&#10;  Q 201.98 41.45 201.61 41.75&#10;  Q 201.29 42.00 200.86 42.00&#10;  Q 196.27 41.99 191.53 42.01&#10;  Q 190.99 42.01 191.00 41.47&#10;  L 191.01 40.80&#10;  A 0.57 0.57 0.0 0 1 191.63 40.25&#10;  C 192.79 40.36 194.02 39.67 194.01 38.39&#10;  Q 193.98 33.24 194.01 28.16&#10;  C 194.02 27.03 193.10 26.22 191.99 26.24&#10;  Q 191.51 26.26 191.50 25.77&#10;  L 191.49 25.12&#10;  Q 191.49 24.69 191.90 24.58&#10;  L 197.27 23.19&#10;  Q 197.97 23.01 197.99 23.73&#10;  L 198.05 26.26&#10;  Q 198.08 27.41 198.64 26.40&#10;  Z"/>
<rect fill="#002b58" x="-0.90" y="-1.71" transform="translate(5.51,24.86) rotate(16.4)" width="1.80" height="3.42" rx="0.63"/>
<rect fill="#ec7404" x="7.75" y="48.75" width="35.50" height="4.50" rx="0.32"/>
</svg>