<svg width="1282" height="722" xmlns="http://www.w3.org/2000/svg" xmlns:xlink="http://www.w3.org/1999/xlink" overflow="hidden"><defs><filter id="fx0" x="-10%" y="-10%" width="120%" height="120%" filterUnits="userSpaceOnUse" primitiveUnits="userSpaceOnUse"><feComponentTransfer color-interpolation-filters="sRGB"><feFuncR type="discrete" tableValues="0 0"/><feFuncG type="discrete" tableValues="0 0"/><feFuncB type="discrete" tableValues="0 0"/><feFuncA type="linear" slope="0.4" intercept="0"/></feComponentTransfer><feGaussianBlur stdDeviation="1.77778 1.77778"/></filter><filter id="fx1" x="-10%" y="-10%" width="120%" height="120%" filterUnits="userSpaceOnUse" primitiveUnits="userSpaceOnUse"><feComponentTransfer color-interpolation-filters="sRGB"><feFuncR type="discrete" tableValues="0 0"/><feFuncG type="discrete" tableValues="0 0"/><feFuncB type="discrete" tableValues="0 0"/><feFuncA type="linear" slope="0.4" intercept="0"/></feComponentTransfer><feGaussianBlur stdDeviation="1.77778 1.77778"/></filter><filter id="fx2" x="-10%" y="-10%" width="120%" height="120%" filterUnits="userSpaceOnUse" primitiveUnits="userSpaceOnUse"><feComponentTransfer color-interpolation-filters="sRGB"><feFuncR type="discrete" tableValues="0 0"/><feFuncG type="discrete" tableValues="0 0"/><feFuncB type="discrete" tableValues="0 0"/><feFuncA type="linear" slope="0.4" intercept="0"/></feComponentTransfer><feGaussianBlur stdDeviation="1.77778 1.77778"/></filter><filter id="fx3" x="-10%" y="-10%" width="120%" height="120%" filterUnits="userSpaceOnUse" primitiveUnits="userSpaceOnUse"><feComponentTransfer color-interpolation-filters="sRGB"><feFuncR type="discrete" tableValues="0 0"/><feFuncG type="discrete" tableValues="0 0"/><feFuncB type="discrete" tableValues="0 0"/><feFuncA type="linear" slope="0.431373" intercept="0"/></feComponentTransfer><feGaussianBlur stdDeviation="1.33333 1.33333"/></filter><filter id="fx4" x="-10%" y="-10%" width="120%" height="120%" filterUnits="userSpaceOnUse" primitiveUnits="userSpaceOnUse"><feComponentTransfer color-interpolation-filters="sRGB"><feFuncR type="discrete" tableValues="0 0"/><feFuncG type="discrete" tableValues="0 0"/><feFuncB type="discrete" tableValues="0 0"/><feFuncA type="linear" slope="0.431373" intercept="0"/></feComponentTransfer><feGaussianBlur stdDeviation="1.33333 1.33333"/></filter><filter id="fx5" x="-10%" y="-10%" width="120%" height="120%" filterUnits="userSpaceOnUse" primitiveUnits="userSpaceOnUse"><feComponentTransfer color-interpolation-filters="sRGB"><feFuncR type="discrete" tableValues="0 0"/><feFuncG type="discrete" tableValues="0 0"/><feFuncB type="discrete" tableValues="0 0"/><feFuncA type="linear" slope="0.431373" intercept="0"/></feComponentTransfer><feGaussianBlur stdDeviation="1.33333 1.33333"/></filter><filter id="fx6" x="-10%" y="-10%" width="120%" height="120%" filterUnits="userSpaceOnUse" primitiveUnits="userSpaceOnUse"><feComponentTransfer color-interpolation-filters="sRGB"><feFuncR type="discrete" tableValues="0 0"/><feFuncG type="discrete" tableValues="0 0"/><feFuncB type="discrete" tableValues="0 0"/><feFuncA type="linear" slope="0.431373" intercept="0"/></feComponentTransfer><feGaussianBlur stdDeviation="1.33333 1.33333"/></filter><filter id="fx7" x="-10%" y="-10%" width="120%" height="120%" filterUnits="userSpaceOnUse" primitiveUnits="userSpaceOnUse"><feComponentTransfer color-interpolation-filters="sRGB"><feFuncR type="discrete" tableValues="0 0"/><feFuncG type="discrete" tableValues="0 0"/><feFuncB type="discrete" tableValues="0 0"/><feFuncA type="linear" slope="0.431373" intercept="0"/></feComponentTransfer><feGaussianBlur stdDeviation="1.33333 1.33333"/></filter><filter id="fx8" x="-10%" y="-10%" width="120%" height="120%" filterUnits="userSpaceOnUse" primitiveUnits="userSpaceOnUse"><feComponentTransfer color-interpolation-filters="sRGB"><feFuncR type="discrete" tableValues="0 0"/><feFuncG type="discrete" tableValues="0 0"/><feFuncB type="discrete" tableValues="0 0"/><feFuncA type="linear" slope="0.431373" intercept="0"/></feComponentTransfer><feGaussianBlur stdDeviation="1.33333 1.33333"/></filter><filter id="fx9" x="-10%" y="-10%" width="120%" height="120%" filterUnits="userSpaceOnUse" primitiveUnits="userSpaceOnUse"><feComponentTransfer color-interpolation-filters="sRGB"><feFuncR type="discrete" tableValues="0 0"/><feFuncG type="discrete" tableValues="0 0"/><feFuncB type="discrete" tableValues="0 0"/><feFuncA type="linear" slope="0.431373" intercept="0"/></feComponentTransfer><feGaussianBlur stdDeviation="1.33333 1.33333"/></filter><filter id="fx10" x="-10%" y="-10%" width="120%" height="120%" filterUnits="userSpaceOnUse" primitiveUnits="userSpaceOnUse"><feComponentTransfer color-interpolation-filters="sRGB"><feFuncR type="discrete" tableValues="0 0"/><feFuncG type="discrete" tableValues="0 0"/><feFuncB type="discrete" tableValues="0 0"/><feFuncA type="linear" slope="0.431373" intercept="0"/></feComponentTransfer><feGaussianBlur stdDeviation="1.33333 1.33333"/></filter><filter id="fx11" x="-10%" y="-10%" width="120%" height="120%" filterUnits="userSpaceOnUse" primitiveUnits="userSpaceOnUse"><feComponentTransfer color-interpolation-filters="sRGB"><feFuncR type="discrete" tableValues="0 0"/><feFuncG type="discrete" tableValues="0 0"/><feFuncB type="discrete" tableValues="0 0"/><feFuncA type="linear" slope="0.431373" intercept="0"/></feComponentTransfer><feGaussianBlur stdDeviation="1.33333 1.33333"/></filter><filter id="fx12" x="-10%" y="-10%" width="120%" height="120%" filterUnits="userSpaceOnUse" primitiveUnits="userSpaceOnUse"><feComponentTransfer color-interpolation-filters="sRGB"><feFuncR type="discrete" tableValues="0 0"/><feFuncG type="discrete" tableValues="0 0"/><feFuncB type="discrete" tableValues="0 0"/><feFuncA type="linear" slope="0.431373" intercept="0"/></feComponentTransfer><feGaussianBlur stdDeviation="1.33333 1.33333"/></filter><filter id="fx13" x="-10%" y="-10%" width="120%" height="120%" filterUnits="userSpaceOnUse" primitiveUnits="userSpaceOnUse"><feComponentTransfer color-interpolation-filters="sRGB"><feFuncR type="discrete" tableValues="0 0"/><feFuncG type="discrete" tableValues="0 0"/><feFuncB type="discrete" tableValues="0 0"/><feFuncA type="linear" slope="0.431373" intercept="0"/></feComponentTransfer><feGaussianBlur stdDeviation="1.33333 1.33333"/></filter><filter id="fx14" x="-10%" y="-10%" width="120%" height="120%" filterUnits="userSpaceOnUse" primitiveUnits="userSpaceOnUse"><feComponentTransfer color-interpolation-filters="sRGB"><feFuncR type="discrete" tableValues="0 0"/><feFuncG type="discrete" tableValues="0 0"/><feFuncB type="discrete" tableValues="0 0"/><feFuncA type="linear" slope="0.431373" intercept="0"/></feComponentTransfer><feGaussianBlur stdDeviation="1.33333 1.33333"/></filter><filter id="fx15" x="-10%" y="-10%" width="120%" height="120%" filterUnits="userSpaceOnUse" primitiveUnits="userSpaceOnUse"><feComponentTransfer color-interpolation-filters="sRGB"><feFuncR type="discrete" tableValues="0 0"/><feFuncG type="discrete" tableValues="0 0"/><feFuncB type="discrete" tableValues="0 0"/><feFuncA type="linear" slope="0.431373" intercept="0"/></feComponentTransfer><feGaussianBlur stdDeviation="1.33333 1.33333"/></filter><filter id="fx16" x="-10%" y="-10%" width="120%" height="120%" filterUnits="userSpaceOnUse" primitiveUnits="userSpaceOnUse"><feComponentTransfer color-interpolation-filters="sRGB"><feFuncR type="discrete" tableValues="0 0"/><feFuncG type="discrete" tableValues="0 0"/><feFuncB type="discrete" tableValues="0 0"/><feFuncA type="linear" slope="0.431373" intercept="0"/></feComponentTransfer><feGaussianBlur stdDeviation="1.33333 1.33333"/></filter><filter id="fx17" x="-10%" y="-10%" width="120%" height="120%" filterUnits="userSpaceOnUse" primitiveUnits="userSpaceOnUse"><feComponentTransfer color-interpolation-filters="sRGB"><feFuncR type="discrete" tableValues="0 0"/><feFuncG type="discrete" tableValues="0 0"/><feFuncB type="discrete" tableValues="0 0"/><feFuncA type="linear" slope="0.431373" intercept="0"/></feComponentTransfer><feGaussianBlur stdDeviation="1.33333 1.33333"/></filter><filter id="fx18" x="-10%" y="-10%" width="120%" height="120%" filterUnits="userSpaceOnUse" primitiveUnits="userSpaceOnUse"><feComponentTransfer color-interpolation-filters="sRGB"><feFuncR type="discrete" tableValues="0 0"/><feFuncG type="discrete" tableValues="0 0"/><feFuncB type="discrete" tableValues="0 0"/><feFuncA type="linear" slope="0.431373" intercept="0"/></feComponentTransfer><feGaussianBlur stdDeviation="1.33333 1.33333"/></filter><filter id="fx19" x="-10%" y="-10%" width="120%" height="120%" filterUnits="userSpaceOnUse" primitiveUnits="userSpaceOnUse"><feComponentTransfer color-interpolation-filters="sRGB"><feFuncR type="discrete" tableValues="0 0"/><feFuncG type="discrete" tableValues="0 0"/><feFuncB type="discrete" tableValues="0 0"/><feFuncA type="linear" slope="0.431373" intercept="0"/></feComponentTransfer><feGaussianBlur stdDeviation="1.33333 1.33333"/></filter><filter id="fx20" x="-10%" y="-10%" width="120%" height="120%" filterUnits="userSpaceOnUse" primitiveUnits="userSpaceOnUse"><feComponentTransfer color-interpolation-filters="sRGB"><feFuncR type="discrete" tableValues="0 0"/><feFuncG type="discrete" tableValues="0 0"/><feFuncB type="discrete" tableValues="0 0"/><feFuncA type="linear" slope="0.431373" intercept="0"/></feComponentTransfer><feGaussianBlur stdDeviation="1.33333 1.33333"/></filter><filter id="fx21" x="-10%" y="-10%" width="120%" height="120%" filterUnits="userSpaceOnUse" primitiveUnits="userSpaceOnUse"><feComponentTransfer color-interpolation-filters="sRGB"><feFuncR type="discrete" tableValues="0 0"/><feFuncG type="discrete" tableValues="0 0"/><feFuncB type="discrete" tableValues="0 0"/><feFuncA type="linear" slope="0.431373" intercept="0"/></feComponentTransfer><feGaussianBlur stdDeviation="1.33333 1.33333"/></filter><filter id="fx22" x="-10%" y="-10%" width="120%" height="120%" filterUnits="userSpaceOnUse" primitiveUnits="userSpaceOnUse"><feComponentTransfer color-interpolation-filters="sRGB"><feFuncR type="discrete" tableValues="0 0"/><feFuncG type="discrete" tableValues="0 0"/><feFuncB type="discrete" tableValues="0 0"/><feFuncA type="linear" slope="0.431373" intercept="0"/></feComponentTransfer><feGaussianBlur stdDeviation="1.33333 1.33333"/></filter><filter id="fx23" x="-10%" y="-10%" width="120%" height="120%" filterUnits="userSpaceOnUse" primitiveUnits="userSpaceOnUse"><feComponentTransfer color-interpolation-filters="sRGB"><feFuncR type="discrete" tableValues="0 0"/><feFuncG type="discrete" tableValues="0 0"/><feFuncB type="discrete" tableValues="0 0"/><feFuncA type="linear" slope="0.431373" intercept="0"/></feComponentTransfer><feGaussianBlur stdDeviation="0.893433 0.893433"/></filter><clipPath id="clip24"><path d="M640.5 297.5C633.873 297.5 628.5 302.873 628.5 309.5 628.5 316.127 633.873 321.5 640.5 321.5 647.127 321.5 652.5 316.127 652.5 309.5 652.5 302.873 647.127 297.5 640.5 297.5ZM-0.999981-0.999994 1281-0.999994 1281 721-0.999981 721Z" fill-rule="evenodd" clip-rule="evenodd"/></clipPath><clipPath id="clip25"><rect x="35" y="28" width="758" height="46"/></clipPath></defs><g transform="translate(1 1)"><rect x="0" y="0" width="1280" height="720" fill="#4472D2"/><g clip-path="url(#clip24)"><g filter="url(#fx0)" transform="translate(624 293)"><g><path d="M7.32849 19.3285C7.32849 12.7011 12.7011 7.32849 19.3285 7.32849 25.9559 7.32849 31.3285 12.7011 31.3285 19.3285 31.3285 25.9559 25.9559 31.3285 19.3285 31.3285 12.7011 31.3285 7.32849 25.9559 7.32849 19.3285Z" stroke="#F6F9FF" stroke-miterlimit="8" fill="#F6F9FF" fill-rule="evenodd"/></g></g></g><path d="M628.5 309.5C628.5 302.873 633.873 297.5 640.5 297.5 647.128 297.5 652.5 302.873 652.5 309.5 652.5 316.127 647.128 321.5 640.5 321.5 633.873 321.5 628.5 316.127 628.5 309.5Z" stroke="#F6F9FF" stroke-width="1.33333" stroke-miterlimit="8" fill="#F6F9FF" fill-rule="evenodd"/><g filter="url(#fx1)" transform="translate(420 88)"><g><path d="M210.023 80.2545 72.0236 55.5367 79.1554 49.0553C111.207 22.6054 151.006 5.20776 194.639 0.776746L210.023 0ZM299.787 113.43 299.52 113.188C282.189 99.0537 262.113 89.9672 241.254 85.9288L222.705 84.1511 222.705 2.7131ZM307.182 115.143 227.081 0.089494 236.707 0.549264C278.074 4.50891 318.519 20.3481 352.506 48.0665L363.933 58.395ZM128.373 118.071 70.7847 60.4858 203.583 84.2718 203.223 84.29C180.973 86.5494 160.352 94.319 142.746 106.213ZM0 204.392 0.459793 194.766C4.41964 153.401 20.2596 112.958 47.9793 78.9729L58.3083 67.5458 115.06 124.294ZM347.724 204.671 347.706 204.311C345.446 182.062 337.676 161.442 325.782 143.837L313.923 129.465 371.511 71.8796ZM84.0657 208.767 2.62373 208.767 113.346 131.689 113.104 131.957C98.9691 149.286 89.8821 169.361 85.8435 190.219ZM432 211.111 351.742 211.111 376.461 73.1184 382.942 80.2499C409.394 112.3 426.792 152.097 431.223 195.728ZM318.654 303.311 318.896 303.043C333.031 285.714 342.118 265.639 346.156 244.781L347.934 226.233 429.376 226.233ZM55.5395 361.882 49.0577 354.75C22.6065 322.7 5.20801 282.903 0.776784 239.272L0 223.889 80.2584 223.889ZM60.4887 363.12 84.2759 230.329 84.2942 230.689C86.5537 252.938 94.3236 273.558 106.218 291.163L118.077 305.535ZM373.692 367.454 316.94 310.706 432 230.608 431.54 240.234C427.58 281.599 411.74 322.042 384.021 356.027ZM361.215 374.514 228.417 350.728 228.777 350.71C251.027 348.451 271.648 340.681 289.254 328.787L303.627 316.929ZM209.295 432.287 132.213 321.57 132.48 321.812C149.811 335.946 169.887 345.033 190.746 349.071L209.295 350.849ZM204.919 434.91 195.293 434.451C153.926 430.491 113.481 414.652 79.4941 386.934L68.0665 376.605 124.818 319.857ZM221.977 435 221.977 354.746 359.976 379.463 352.845 385.945C320.793 412.395 280.994 429.792 237.361 434.223Z" fill="#F6F9FF" fill-rule="evenodd" transform="matrix(-1 0 0 1 438.828 6.82843)"/></g></g><path d="M210.023 80.2545 72.0236 55.5367 79.1554 49.0553C111.207 22.6054 151.006 5.20776 194.639 0.776746L210.023 0ZM299.787 113.43 299.52 113.188C282.189 99.0537 262.113 89.9672 241.254 85.9288L222.705 84.1511 222.705 2.7131ZM307.182 115.143 227.081 0.089494 236.707 0.549264C278.074 4.50891 318.519 20.3481 352.506 48.0665L363.933 58.395ZM128.373 118.071 70.7847 60.4858 203.583 84.2718 203.223 84.29C180.973 86.5494 160.352 94.319 142.746 106.213ZM0 204.392 0.459793 194.766C4.41964 153.401 20.2596 112.958 47.9793 78.9729L58.3083 67.5458 115.06 124.294ZM347.724 204.671 347.706 204.311C345.446 182.062 337.676 161.442 325.782 143.837L313.923 129.465 371.511 71.8796ZM84.0657 208.767 2.62373 208.767 113.346 131.689 113.104 131.957C98.9691 149.286 89.8821 169.361 85.8435 190.219ZM432 211.111 351.742 211.111 376.461 73.1184 382.942 80.2499C409.394 112.3 426.792 152.097 431.223 195.728ZM318.654 303.311 318.896 303.043C333.031 285.714 342.118 265.639 346.156 244.781L347.934 226.233 429.376 226.233ZM55.5395 361.882 49.0577 354.75C22.6065 322.7 5.20801 282.903 0.776784 239.272L0 223.889 80.2584 223.889ZM60.4887 363.12 84.2759 230.329 84.2942 230.689C86.5537 252.938 94.3236 273.558 106.218 291.163L118.077 305.535ZM373.692 367.454 316.94 310.706 432 230.608 431.54 240.234C427.58 281.599 411.74 322.042 384.021 356.027ZM361.215 374.514 228.417 350.728 228.777 350.71C251.027 348.451 271.648 340.681 289.254 328.787L303.627 316.929ZM209.295 432.287 132.213 321.57 132.48 321.812C149.811 335.946 169.887 345.033 190.746 349.071L209.295 350.849ZM204.919 434.91 195.293 434.451C153.926 430.491 113.481 414.652 79.4941 386.934L68.0665 376.605 124.818 319.857ZM221.977 435 221.977 354.746 359.976 379.463 352.845 385.945C320.793 412.395 280.994 429.792 237.361 434.223Z" fill="#F6F9FF" fill-rule="evenodd" transform="matrix(-1 0 0 1 856 92)"/><g filter="url(#fx2)" transform="translate(508 192)"><g><path d="M78.6611 152.338 88.9941 153.838C95.617 154.602 102.517 155.205 109.637 155.631L114.12 155.763 116.476 159.587C120.404 165.551 124.375 171.236 128.347 176.601L134.81 184.816 126.079 195.618C103.777 221.183 83.2326 234.59 72.3285 228.283 61.4244 221.975 62.7411 197.447 73.6892 165.315ZM190.985 152.311 195.967 165.315C206.915 197.447 208.232 221.975 197.328 228.283 185.879 234.905 163.801 219.793 140.22 191.693L134.81 184.816 139.608 178.88C144.146 172.855 148.691 166.404 153.181 159.587L155.537 155.763 160.02 155.631C168.158 155.144 176.007 154.426 183.484 153.501ZM78.6713 87.3462 81.393 94.4495C84.3325 101.399 87.6363 108.569 91.2841 115.872L93.4118 119.829 91.2844 123.785C87.6366 131.088 84.3326 138.257 81.3933 145.207L78.6611 152.338 70.0114 151.082C33.9303 144.673 9.82843 133.074 9.82843 119.829 9.82843 107.214 31.6895 96.0926 64.9397 89.5253ZM190.996 87.319 199.645 88.5747C235.727 94.9841 259.828 106.584 259.828 119.829 259.828 132.443 237.967 143.565 204.717 150.132L190.985 152.311 188.263 145.207C185.324 138.257 182.02 131.088 178.372 123.785L176.245 119.829 178.372 115.872C182.02 108.569 185.324 101.399 188.264 94.4495ZM134.828 83.284 155.537 83.8943 166.418 101.556 176.245 119.829 166.418 138.101 155.537 155.763 134.828 156.373 114.12 155.763 103.238 138.101 93.4118 119.829 103.238 101.556 114.12 83.8943ZM79.9643 9.8951C92.9649 11.0437 112.497 26.9364 132.814 52.0658L134.895 54.7814 130.049 60.7768C125.511 66.8021 120.966 73.2533 116.476 80.07L114.12 83.8943 109.637 84.0265C101.499 84.5133 93.6501 85.2313 86.1728 86.1559L78.6713 87.3462 73.6889 74.3423C62.7408 42.2096 61.4241 17.6814 72.3282 11.3743 74.509 10.1128 77.0755 9.63992 79.9643 9.8951ZM189.692 9.8951C192.581 9.63992 195.148 10.1128 197.328 11.3743 208.233 17.6814 206.916 42.2096 195.968 74.3423L190.996 87.319 180.663 85.8189C174.04 85.0554 167.14 84.4524 160.02 84.0265L155.537 83.8943 153.18 80.07C149.813 74.9575 146.415 70.0506 143.012 65.3747L134.895 54.7814 143.578 44.039C161.42 23.5867 178.136 10.916 189.692 9.8951Z" stroke="#F6F9FF" stroke-width="6" stroke-miterlimit="8" fill="none" fill-rule="evenodd"/></g></g><path d="M583.833 341.51 594.166 343.01C600.789 343.773 607.688 344.376 614.808 344.802L619.292 344.934 621.648 348.758C625.576 354.723 629.547 360.408 633.518 365.772L639.982 373.988 631.25 384.789C608.948 410.355 588.404 423.761 577.5 417.454 566.596 411.147 567.913 386.619 578.861 354.486ZM696.157 341.483 701.139 354.486C712.087 386.619 713.404 411.147 702.5 417.454 691.05 424.077 668.973 408.965 645.392 380.865L639.982 373.988 644.78 368.052C649.318 362.026 653.863 355.575 658.352 348.758L660.708 344.934 665.192 344.802C673.329 344.316 681.178 343.598 688.656 342.673ZM583.843 276.518 586.565 283.621C589.504 290.571 592.808 297.74 596.456 305.044L598.583 309 596.456 312.956C592.808 320.26 589.504 327.429 586.565 334.379L583.833 341.51 575.183 340.254C539.102 333.845 515 322.245 515 309 515 296.386 536.861 285.264 570.111 278.697ZM696.167 276.491 704.817 277.746C740.898 284.156 765 295.755 765 309 765 321.615 743.139 332.736 709.889 339.303L696.157 341.483 693.435 334.379C690.496 327.429 687.192 320.26 683.544 312.956L681.416 309 683.544 305.044C687.192 297.74 690.496 290.571 693.435 283.621ZM640 272.456 660.708 273.066 671.59 290.728 681.416 309 671.59 327.272 660.708 344.934 640 345.545 619.292 344.934 608.41 327.272 598.583 309 608.41 290.728 619.292 273.066ZM585.136 199.067C598.136 200.215 617.668 216.108 637.986 241.237L640.066 243.953 635.22 249.948C630.682 255.974 626.137 262.425 621.648 269.242L619.292 273.066 614.808 273.198C606.671 273.685 598.822 274.403 591.344 275.327L583.843 276.518 578.861 263.514C567.912 231.381 566.596 206.853 577.5 200.546 579.681 199.284 582.247 198.811 585.136 199.067ZM694.864 199.067C697.753 198.811 700.319 199.284 702.5 200.546 713.404 206.853 712.087 231.381 701.139 263.514L696.167 276.491 685.834 274.99C679.211 274.227 672.312 273.624 665.192 273.198L660.708 273.066 658.352 269.242C654.985 264.129 651.586 259.222 648.183 254.546L640.066 243.953 648.75 233.211C666.591 212.758 683.308 200.088 694.864 199.067Z" stroke="#F6F9FF" stroke-width="6" stroke-miterlimit="8" fill="none" fill-rule="evenodd"/><g filter="url(#fx3)" transform="translate(443 100)"><g><path d="M5.17836 15.6463 15.8671 5.45935 18.7322 8.46556 12.3857 14.5141 14.7142 16.9572 20.1349 11.791 22.8272 14.6158 17.4065 19.7821 22.8547 25.4987 18.5124 29.6371Z" fill="#F6F9FF" fill-rule="evenodd"/></g></g><path d="M445.35 112.818 456.039 102.631 458.904 105.637 452.557 111.686 454.886 114.129 460.306 108.963 462.999 111.787 457.578 116.954 463.026 122.67 458.684 126.809Z" fill="#F6F9FF" fill-rule="evenodd"/><text fill="#000000" fill-opacity="0" font-family="Arial,Arial_MSFontService,sans-serif" font-size="24.1778" x="445.35" y="123.786">F</text><g filter="url(#fx4)" transform="translate(457 86)"><g><path d="M4.99728 16.6329 9.61193 12.8627 17.0708 21.9922C17.7375 22.8083 18.4847 23.2609 19.3124 23.3501 20.14 23.4393 20.9554 23.1559 21.7585 22.4997 22.5548 21.8491 22.9946 21.1128 23.0777 20.2907 23.1608 19.4687 22.8635 18.6428 22.1857 17.8132L14.7268 8.68378 19.3415 4.91357 26.6269 13.8307C27.3492 14.7149 27.8935 15.6624 28.2597 16.6732 28.6259 17.684 28.755 18.7241 28.6469 19.7934 28.5389 20.8628 28.2588 21.7806 27.8066 22.5469 27.1805 23.6142 26.2379 24.6623 24.9787 25.691 24.2505 26.286 23.4141 26.8842 22.4698 27.4856 21.5254 28.087 20.6403 28.4727 19.8145 28.6427 18.9887 28.8127 18.108 28.8149 17.1725 28.6492 16.237 28.4835 15.439 28.177 14.7786 27.7299 13.7148 27.0112 12.8828 26.2846 12.2826 25.55Z" fill="#F6F9FF" fill-rule="evenodd"/></g></g><path d="M459.169 99.8045 463.784 96.0343 471.242 105.164C471.909 105.98 472.656 106.433 473.484 106.522 474.312 106.611 475.127 106.327 475.93 105.671 476.726 105.021 477.166 104.284 477.249 103.462 477.332 102.64 477.035 101.814 476.357 100.985L468.898 91.8554 473.513 88.0851 480.798 97.0023C481.521 97.8864 482.065 98.8339 482.431 99.8447 482.797 100.856 482.927 101.896 482.818 102.965 482.71 104.034 482.43 104.952 481.978 105.719 481.352 106.786 480.409 107.834 479.15 108.863 478.422 109.458 477.586 110.056 476.641 110.657 475.697 111.259 474.812 111.644 473.986 111.814 473.16 111.984 472.28 111.986 471.344 111.821 470.409 111.655 469.611 111.349 468.95 110.901 467.886 110.183 467.054 109.456 466.454 108.722Z" fill="#F6F9FF" fill-rule="evenodd"/><text fill="#000000" fill-opacity="0" font-family="Arial,Arial_MSFontService,sans-serif" font-size="23.8583" x="459.169" y="108.961">U</text><g filter="url(#fx5)" transform="translate(475 73)"><g><path d="M5.31946 14.9537 9.92067 11.8028 21.9666 16.5134 15.9251 7.691 20.5698 4.51032 31.4899 20.4568 26.8451 23.6375 14.8775 18.9712 20.8734 27.7269 16.2395 30.9002Z" fill="#F6F9FF" fill-rule="evenodd"/></g></g><path d="M477.491 85.1252 482.092 81.9743 494.138 86.685 488.097 77.8626 492.741 74.6819 503.661 90.6284 499.017 93.8091 487.049 89.1428 493.045 97.8985 488.411 101.072Z" fill="#F6F9FF" fill-rule="evenodd"/><text fill="#000000" fill-opacity="0" font-family="Arial,Arial_MSFontService,sans-serif" font-size="26.3898" x="477.491" y="97.773">N</text><g filter="url(#fx6)" transform="translate(495 64)"><g><path d="M12.1429 11.7689 17.3976 20.9288 18.6669 20.2006C19.7495 19.5796 20.4506 19.0178 20.7703 18.5153 21.0899 18.0127 21.2077 17.3879 21.1236 16.6407 21.0395 15.8935 20.6126 14.8491 19.8429 13.5073 18.8239 11.731 17.8366 10.6812 16.8811 10.3579 15.9256 10.0347 14.7769 10.2579 13.4352 11.0276ZM4.78467 10.944 12.4808 6.52906C13.9979 5.65875 15.3415 5.16157 16.5116 5.03751 17.6817 4.91345 18.7925 5.06149 19.8441 5.48161 20.8957 5.90174 21.8518 6.54386 22.7123 7.408 23.5728 8.27214 24.331 9.27598 24.987 10.4195 26.0148 12.2111 26.6079 13.7175 26.7664 14.9388 26.9248 16.16 26.8333 17.3119 26.4917 18.3945 26.1501 19.477 25.6273 20.3672 24.9231 21.065 23.9621 22.0216 23.0204 22.7644 22.0979 23.2936L14.4018 27.7086Z" fill="#F6F9FF" fill-rule="evenodd"/></g></g><path d="M504.315 72.9405 509.569 82.1004 510.839 81.3722C511.921 80.7512 512.622 80.1894 512.942 79.6868 513.261 79.1843 513.379 78.5594 513.295 77.8123 513.211 77.0651 512.784 76.0206 512.014 74.6789 510.995 72.9025 510.008 71.8528 509.053 71.5295 508.097 71.2062 506.948 71.4295 505.607 72.1992ZM496.956 72.1156 504.652 67.7006C506.169 66.8303 507.513 66.3331 508.683 66.2091 509.853 66.085 510.964 66.2331 512.016 66.6532 513.067 67.0733 514.023 67.7154 514.884 68.5796 515.744 69.4437 516.503 70.4476 517.159 71.5911 518.186 73.3827 518.779 74.8891 518.938 76.1104 519.096 77.3316 519.005 78.4835 518.663 79.566 518.322 80.6486 517.799 81.5388 517.095 82.2365 516.134 83.1931 515.192 83.936 514.269 84.4652L506.573 88.8801Z" fill="#F6F9FF" fill-rule="evenodd"/><text fill="#000000" fill-opacity="0" font-family="Arial,Arial_MSFontService,sans-serif" font-size="22.7135" x="496.956" y="86.0409">D</text><g filter="url(#fx7)" transform="translate(518 55)"><g><path d="M9.5838 10.7107 10.661 17.8917 14.494 16.0691ZM4.55711 7.55363 10.4402 4.75614 25.2987 19.0916 19.6508 21.7773 17.4075 19.3113 11.2842 22.223 11.8036 25.5088 6.29665 28.1274Z" fill="#F6F9FF" fill-rule="evenodd"/></g></g><path d="M524.755 62.8823 525.833 70.0633 529.666 68.2406ZM519.729 59.7252 525.612 56.9277 540.47 71.2632 534.822 73.9489 532.579 71.4829 526.456 74.3946 526.975 77.6804 521.468 80.299Z" fill="#F6F9FF" fill-rule="evenodd"/><text fill="#000000" fill-opacity="0" font-family="Arial,Arial_MSFontService,sans-serif" font-size="23.3713" x="519.729" y="77.3776">A</text><g filter="url(#fx8)" transform="translate(533 43)"><g><path d="M4.61934 12.5325 11.9817 9.79696 18.9168 19.7655 17.64 7.6946 24.9979 4.96072 31.7294 23.0777 27.1445 24.7813 22.0109 10.9649 23.6118 26.0938 19.4618 27.6358 10.8021 15.1296 15.9357 28.946 11.3508 30.6495Z" fill="#F6F9FF" fill-rule="evenodd"/></g></g><path d="M534.791 52.7041 542.153 49.9685 549.088 59.937 547.812 47.8662 555.169 45.1323 561.901 63.2493 557.316 64.9528 552.182 51.1365 553.783 66.2654 549.633 67.8074 540.974 55.3012 546.107 69.1175 541.522 70.8211Z" fill="#F6F9FF" fill-rule="evenodd"/><text fill="#000000" fill-opacity="0" font-family="Arial,Arial_MSFontService,sans-serif" font-size="25.6888" x="534.791" y="67.61">M</text><g filter="url(#fx9)" transform="translate(558 37)"><g><path d="M4.59875 9.62379 20.0247 5.35821 21.1245 9.33542 11.4674 12.0058 12.2861 14.9665 21.2443 12.4893 22.2949 16.2887 13.3367 18.7658 14.3521 22.438 24.2888 19.6904 25.4553 23.909 9.74977 28.2519Z" fill="#F6F9FF" fill-rule="evenodd"/></g></g><path d="M559.77 43.7954 575.196 39.5298 576.296 43.507 566.639 46.1774 567.458 49.138 576.416 46.6609 577.466 50.4602 568.508 52.9374 569.524 56.6096 579.46 53.8619 580.627 58.0806 564.921 62.4235Z" fill="#F6F9FF" fill-rule="evenodd"/><text fill="#000000" fill-opacity="0" font-family="Arial,Arial_MSFontService,sans-serif" font-size="22.8937" x="559.77" y="59.5617">E</text><g filter="url(#fx10)" transform="translate(578 33)"><g><path d="M4.50603 8.27887 9.98314 7.22985 19.142 16.3627 17.1306 5.86091 22.6595 4.80197 26.2951 23.7841 20.7662 24.843 11.6614 15.782 13.6576 26.2045 8.14165 27.261Z" fill="#F6F9FF" fill-rule="evenodd"/></g></g><path d="M579.678 38.4504 585.155 37.4014 594.314 46.5343 592.302 36.0325 597.831 34.9735 601.467 53.9557 595.938 55.0146 586.833 45.9536 588.829 56.3761 583.313 57.4326Z" fill="#F6F9FF" fill-rule="evenodd"/><text fill="#000000" fill-opacity="0" font-family="Arial,Arial_MSFontService,sans-serif" font-size="22.459" x="579.678" y="54.6252">N</text><g filter="url(#fx11)" transform="translate(599 30)"><g><path d="M5.0844 7.33139 23.1245 5.30247 23.6579 10.045 17.6052 10.7258 19.2319 25.1893 13.2971 25.8567 11.6704 11.3932 5.61778 12.0739Z" fill="#F6F9FF" fill-rule="evenodd"/></g></g><path d="M601.256 34.503 619.296 32.474 619.829 37.2166 613.777 37.8973 615.403 52.3608 609.469 53.0283 607.842 38.5648 601.789 39.2455Z" fill="#F6F9FF" fill-rule="evenodd"/><text fill="#000000" fill-opacity="0" font-family="Arial,Arial_MSFontService,sans-serif" font-size="20.5543" x="601.256" y="50.459">T</text><g filter="url(#fx12)" transform="translate(618 30)"><g><path d="M14.6847 9.91055 12.8362 16.9327 17.0775 16.7733ZM11.3149 5.02393 17.8247 4.7792 25.8082 23.8199 19.5586 24.0548 18.4725 20.903 11.697 21.1577 10.8755 24.3813 4.782 24.6103Z" fill="#F6F9FF" fill-rule="evenodd"/></g></g><path d="M629.856 37.0821 628.008 44.1043 632.249 43.9448ZM626.487 32.1955 632.996 31.9508 640.98 50.9914 634.73 51.2264 633.644 48.0745 626.869 48.3293 626.047 51.5528 619.954 51.7819Z" fill="#F6F9FF" fill-rule="evenodd"/><text fill="#000000" fill-opacity="0" font-family="Arial,Arial_MSFontService,sans-serif" font-size="19.8311" x="619.954" y="49.303">A</text><g filter="url(#fx13)" transform="translate(640 30)"><g><path d="M5.7847 4.64861 11.7527 4.8711 11.21 19.4289 20.5243 19.7761 20.347 24.5321 5.06467 23.9623Z" fill="#F6F9FF" fill-rule="evenodd"/></g></g><path d="M642.956 31.8202 648.924 32.0427 648.382 46.6004 657.696 46.9477 657.519 51.7037 642.236 51.1339Z" fill="#F6F9FF" fill-rule="evenodd"/><text fill="#000000" fill-opacity="0" font-family="Arial,Arial_MSFontService,sans-serif" font-size="19.8835" x="642.236" y="49.2182">L</text><g filter="url(#fx14)" transform="translate(667 32)"><g><path d="M15.5735 9.90071C14.3827 9.72262 13.3635 10.0012 12.5159 10.7365 11.6683 11.4717 11.099 12.8129 10.8078 14.76 10.5192 16.6897 10.6704 18.1298 11.2614 19.0802 11.8525 20.0306 12.7652 20.5981 13.9995 20.7827 15.2686 20.9725 16.3126 20.7065 17.1314 19.9847 17.9503 19.2629 18.5197 17.8329 18.8394 15.6945 19.1085 13.8952 18.9422 12.5262 18.3406 11.5875 17.7389 10.6489 16.8166 10.0866 15.5735 9.90071ZM16.2554 5.43042C19.4368 5.9062 21.7603 7.12681 23.226 9.09225 24.6917 11.0577 25.1944 13.579 24.7342 16.6561 24.4001 18.89 23.7502 20.6657 22.7845 21.9832 21.8188 23.3006 20.5658 24.2508 19.0257 24.8336 17.4855 25.4164 15.655 25.5492 13.5341 25.232 11.3783 24.9097 9.64557 24.2995 8.33575 23.4016 7.02591 22.5036 6.04318 21.2458 5.38754 19.6281 4.7319 18.0104 4.57111 16.0846 4.90521 13.8506 5.37189 10.7301 6.60446 8.43054 8.60291 6.95205 10.6014 5.47356 13.1522 4.96635 16.2554 5.43042Z" fill="#F6F9FF" fill-rule="evenodd"/></g></g><path d="M679.745 39.0723C678.554 38.8942 677.535 39.1728 676.688 39.9081 675.84 40.6433 675.271 41.9845 674.979 43.9316 674.691 45.8613 674.842 47.3014 675.433 48.2518 676.024 49.2022 676.937 49.7697 678.171 49.9543 679.44 50.1441 680.484 49.8781 681.303 49.1563 682.122 48.4345 682.691 47.0044 683.011 44.8661 683.28 43.0668 683.114 41.6978 682.512 40.7591 681.91 39.8205 680.988 39.2582 679.745 39.0723ZM680.427 34.602C683.608 35.0778 685.932 36.2984 687.398 38.2638 688.863 40.2293 689.366 42.7505 688.906 45.8276 688.572 48.0616 687.922 49.8373 686.956 51.1548 685.99 52.4722 684.737 53.4223 683.197 54.0052 681.657 54.588 679.827 54.7208 677.706 54.4036 675.55 54.0812 673.817 53.4711 672.507 52.5731 671.198 51.6752 670.215 50.4174 669.559 48.7997 668.903 47.182 668.743 45.2562 669.077 43.0222 669.543 39.9016 670.776 37.6021 672.774 36.1236 674.773 34.6451 677.324 34.1379 680.427 34.602Z" fill="#F6F9FF" fill-rule="evenodd"/><text fill="#000000" fill-opacity="0" font-family="Arial,Arial_MSFontService,sans-serif" font-size="20.1356" x="668.908" y="52.0543">O</text><g filter="url(#fx15)" transform="translate(688 35)"><g><path d="M9.66385 5.22933 24.0518 8.54774 23.1184 12.5943 14.5756 10.624 13.8171 13.9127 21.1139 15.5956 20.2368 19.3981 12.9401 17.7152 11.1654 25.4102 5.32028 24.0621Z" fill="#F6F9FF" fill-rule="evenodd"/></g></g><path d="M694.835 37.4009 709.223 40.7193 708.29 44.7659 699.747 42.7956 698.989 46.0843 706.285 47.7672 705.408 51.5697 698.112 49.8868 696.337 57.5817 690.492 56.2336Z" fill="#F6F9FF" fill-rule="evenodd"/><text fill="#000000" fill-opacity="0" font-family="Arial,Arial_MSFontService,sans-serif" font-size="20.1808" x="690.492" y="55.0591">F</text><g filter="url(#fx16)" transform="translate(713 42)"><g><path d="M16.0013 10.8114 14.6007 14.8885 15.9847 15.364C17.0736 15.7381 17.9033 15.8117 18.4738 15.5848 19.0442 15.358 19.4308 14.9495 19.6336 14.3593 19.8306 13.7857 19.8065 13.2338 19.5612 12.7035 19.3159 12.1731 18.6654 11.7266 17.6098 11.3639ZM11.6047 5.14689 20.9934 8.37227C23.0382 9.07474 24.4026 10.0871 25.0868 11.4095 25.7709 12.7318 25.8046 14.2907 25.1878 16.0862 24.5539 17.9315 23.5036 19.183 22.037 19.8409 20.5703 20.4987 18.6982 20.4364 16.4207 19.6539L13.3285 18.5916 10.9984 25.3744 5.32526 23.4255Z" fill="#F6F9FF" fill-rule="evenodd"/></g></g><path d="M726.173 49.983 724.772 54.0601 726.156 54.5356C727.245 54.9097 728.075 54.9833 728.645 54.7564 729.216 54.5295 729.602 54.121 729.805 53.5309 730.002 52.9573 729.978 52.4054 729.733 51.875 729.487 51.3447 728.837 50.8982 727.781 50.5355ZM721.776 44.3185 731.165 47.5438C733.21 48.2463 734.574 49.2587 735.258 50.5811 735.943 51.9034 735.976 53.4623 735.359 55.2577 734.725 57.1031 733.675 58.3546 732.208 59.0124 730.742 59.6702 728.87 59.6079 726.592 58.8255L723.5 57.7632 721.17 64.546 715.497 62.5971Z" fill="#F6F9FF" fill-rule="evenodd"/><text fill="#000000" fill-opacity="0" font-family="Arial,Arial_MSFontService,sans-serif" font-size="20.2275" x="715.497" y="62.0176">P</text><g filter="url(#fx17)" transform="translate(731 49)"><g><path d="M13.0375 4.98382 18.5122 7.37014 15.8098 13.57 21.7921 16.1775 24.4945 9.9777 29.9934 12.3745 22.2708 30.0918 16.7719 27.6949 19.8957 20.5283 13.9135 17.9207 10.7896 25.0874 5.31494 22.7011Z" fill="#F6F9FF" fill-rule="evenodd"/></g></g><path d="M741.209 51.1554 746.684 53.5417 743.981 59.7415 749.964 62.3491 752.666 56.1493 758.165 58.5461 750.442 76.2634 744.943 73.8665 748.067 66.6998 742.085 64.0923 738.961 71.2589 733.487 68.8726Z" fill="#F6F9FF" fill-rule="evenodd"/><text fill="#000000" fill-opacity="0" font-family="Arial,Arial_MSFontService,sans-serif" font-size="25.108" x="733.487" y="73.1249">H</text><g filter="url(#fx18)" transform="translate(756 58)"><g><path d="M7.62589 4.63616 13.4744 7.767 13.8302 15.353 20.3474 11.4463 26.1645 14.5603 14.2383 20.9165 10.4179 28.053 5.14111 25.2282 8.96143 18.0917Z" fill="#F6F9FF" fill-rule="evenodd"/></g></g><path d="M760.797 59.8077 766.646 62.9386 767.002 70.5246 773.519 66.6178 779.336 69.7319 767.41 76.0881 763.589 83.2246 758.313 80.3998 762.133 73.2633Z" fill="#F6F9FF" fill-rule="evenodd"/><text fill="#000000" fill-opacity="0" font-family="Arial,Arial_MSFontService,sans-serif" font-size="23.4169" x="758.313" y="80.2975">Y</text><g filter="url(#fx19)" transform="translate(770 70)"><g><path d="M20.3048 7.43483C22.3889 8.75992 23.7316 10.1578 24.3328 11.6284 24.934 13.099 24.8009 14.7459 23.9334 16.569L19.006 13.8267C19.3468 13.0123 19.4212 12.3097 19.2292 11.7189 19.0371 11.1282 18.5851 10.6064 17.8731 10.1537 17.2872 9.7812 16.7669 9.62485 16.3122 9.68469 15.8576 9.74454 15.5171 9.95246 15.2907 10.3085 15.1257 10.5681 15.0995 10.8795 15.2122 11.2428 15.3128 11.6088 15.7492 12.1674 16.5213 12.9187 18.4223 14.794 19.6949 16.2775 20.3391 17.3692 20.9833 18.461 21.2937 19.5045 21.2701 20.4998 21.2466 21.4951 20.9519 22.4378 20.386 23.3278 19.7211 24.3736 18.8188 25.1539 17.6791 25.6687 16.5395 26.1835 15.3055 26.3388 13.9771 26.1348 12.6487 25.9307 11.1946 25.3265 9.61481 24.3221 6.84088 22.5584 5.25943 20.803 4.87045 19.056 4.48148 17.3089 4.73996 15.5673 5.6459 13.8311L10.6319 16.5794C10.2406 17.4242 10.0747 18.1519 10.1343 18.7626 10.2338 19.7528 10.7656 20.5544 11.7298 21.1675 12.4493 21.6249 13.111 21.8087 13.7149 21.7188 14.3189 21.6289 14.7623 21.3614 15.0453 20.9164 15.314 20.4936 15.3691 19.9975 15.2105 19.4279 15.0518 18.8584 14.3919 17.9962 13.2307 16.8412 11.3364 14.939 10.18 13.2769 9.76144 11.8547 9.33551 10.4278 9.52811 9.07653 10.3392 7.80083 10.8721 6.96272 11.6183 6.3254 12.5781 5.88888 13.5378 5.45236 14.6409 5.33091 15.8874 5.52455 17.1339 5.71818 18.6063 6.35494 20.3048 7.43483Z" fill="#F6F9FF" fill-rule="evenodd"/></g></g><path d="M787.476 74.6064C789.561 75.9315 790.903 77.3294 791.504 78.8 792.106 80.2706 791.972 81.9175 791.105 83.7405L786.178 80.9983C786.518 80.1839 786.593 79.4813 786.401 78.8905 786.209 78.2997 785.757 77.778 785.045 77.3253 784.459 76.9528 783.938 76.7964 783.484 76.8563 783.029 76.9161 782.689 77.124 782.462 77.48 782.297 77.7396 782.271 78.0511 782.384 78.4144 782.484 78.7804 782.921 79.339 783.693 80.0903 785.594 81.9655 786.867 83.449 787.511 84.5408 788.155 85.6326 788.465 86.6761 788.442 87.6714 788.418 88.6667 788.123 89.6094 787.558 90.4994 786.893 91.5452 785.99 92.3255 784.851 92.8403 783.711 93.355 782.477 93.5104 781.149 93.3064 779.82 93.1023 778.366 92.4981 776.786 91.4936 774.012 89.73 772.431 87.9746 772.042 86.2275 771.653 84.4804 771.911 82.7388 772.818 81.0027L777.803 83.751C777.412 84.5958 777.246 85.3235 777.306 85.9342 777.405 86.9244 777.937 87.726 778.901 88.3391 779.621 88.7965 780.283 88.9802 780.886 88.8903 781.49 88.8004 781.934 88.533 782.217 88.088 782.486 87.6652 782.541 87.1691 782.382 86.5995 782.223 86.03 781.563 85.1677 780.402 84.0128 778.508 82.1106 777.352 80.4484 776.933 79.0263 776.507 77.5994 776.7 76.2481 777.511 74.9724 778.044 74.1343 778.79 73.497 779.75 73.0605 780.709 72.6239 781.812 72.5025 783.059 72.6961 784.305 72.8898 785.778 73.5265 787.476 74.6064Z" fill="#F6F9FF" fill-rule="evenodd"/><text fill="#000000" fill-opacity="0" font-family="Arial,Arial_MSFontService,sans-serif" font-size="20.7864" x="771.867" y="90.795">S</text><g filter="url(#fx20)" transform="translate(784 80)"><g><path d="M16.5529 4.67167 21.4127 8.16552 10.1308 23.8581 5.27106 20.3643Z" fill="#F6F9FF" fill-rule="evenodd"/></g></g><path d="M797.724 81.8432 802.584 85.3371 791.302 101.03 786.443 97.5358Z" fill="#F6F9FF" fill-rule="evenodd"/><text fill="#000000" fill-opacity="0" font-family="Arial,Arial_MSFontService,sans-serif" font-size="19.1864" x="786.443" y="98.6314">I</text><g filter="url(#fx21)" transform="translate(795 89)"><g><path d="M21.734 7.55168C23.6229 9.08771 24.7972 10.6771 25.2569 12.3197 25.7166 13.9623 25.5658 15.7881 24.8044 17.7971L19.9727 15.3803C20.201 14.807 20.3227 14.3509 20.3378 14.0119 20.367 13.4466 20.2718 12.916 20.052 12.4201 19.8322 11.9242 19.4905 11.4877 19.0268 11.1106 17.9767 10.2566 16.8286 10.0246 15.5826 10.4145 14.6503 10.6973 13.6386 11.5095 12.5476 12.8511 11.1961 14.513 10.5221 15.8573 10.5254 16.884 10.5288 17.9107 10.9873 18.7956 11.9011 19.5387 12.7875 20.2596 13.6599 20.5555 14.5182 20.4265 15.3764 20.2975 16.2932 19.8422 17.2686 19.0607L20.3311 23.5903C19.1323 24.5073 17.9291 25.1092 16.7216 25.396 15.5142 25.6828 14.3177 25.6671 13.1322 25.3487 11.9467 25.0304 10.6823 24.325 9.33893 23.2326 7.7092 21.9073 6.57037 20.5878 5.92245 19.2741 5.27451 17.9604 5.06039 16.4023 5.28009 14.5998 5.49976 12.7973 6.36606 10.9659 7.87897 9.10546 9.89603 6.62508 12.106 5.25526 14.5089 4.99602 16.9117 4.73677 19.3201 5.58866 21.734 7.55168Z" fill="#F6F9FF" fill-rule="evenodd"/></g></g><path d="M813.906 93.7233C815.794 95.2593 816.969 96.8486 817.428 98.4913 817.888 100.134 817.737 101.96 816.976 103.969L812.144 101.552C812.373 100.979 812.494 100.522 812.509 100.184 812.539 99.6182 812.443 99.0876 812.224 98.5917 812.004 98.0957 811.662 97.6593 811.198 97.2822 810.148 96.4282 809 96.1962 807.754 96.586 806.822 96.8688 805.81 97.681 804.719 99.0227 803.368 100.685 802.694 102.029 802.697 103.056 802.7 104.082 803.159 104.967 804.073 105.71 804.959 106.431 805.831 106.727 806.69 106.598 807.548 106.469 808.465 106.014 809.44 105.232L812.503 109.762C811.304 110.679 810.101 111.281 808.893 111.568 807.686 111.854 806.489 111.839 805.304 111.52 804.118 111.202 802.854 110.497 801.51 109.404 799.881 108.079 798.742 106.759 798.094 105.446 797.446 104.132 797.232 102.574 797.452 100.771 797.671 98.9689 798.538 97.1374 800.051 95.277 802.068 92.7966 804.278 91.4268 806.68 91.1676 809.083 90.9083 811.492 91.7602 813.906 93.7233Z" fill="#F6F9FF" fill-rule="evenodd"/><text fill="#000000" fill-opacity="0" font-family="Arial,Arial_MSFontService,sans-serif" font-size="20.6493" x="797.368" y="109.19">C</text><g filter="url(#fx22)" transform="translate(810 102)"><g><path d="M22.2369 8.22327C24.0283 9.92339 25.078 11.5528 25.3861 13.1114 25.6942 14.67 25.2478 16.2608 24.0468 17.8837L19.7367 14.2476C20.2273 13.5136 20.435 12.8383 20.3598 12.2216 20.2846 11.605 19.941 11.0063 19.329 10.4255 18.8253 9.94752 18.3447 9.69431 17.887 9.66587 17.4293 9.63742 17.0553 9.7762 16.7649 10.0822 16.5531 10.3053 16.4677 10.606 16.5087 10.9841 16.5372 11.3626 16.8584 11.9946 17.4721 12.88 18.9783 15.0849 19.9429 16.7849 20.3658 17.9799 20.7887 19.1749 20.8932 20.2586 20.6793 21.231 20.4653 22.2033 19.9954 23.072 19.2693 23.837 18.4162 24.7359 17.3811 25.3287 16.1638 25.6154 14.9466 25.9021 13.7057 25.818 12.4411 25.363 11.1765 24.908 9.8652 24.0362 8.50729 22.7475 6.12302 20.4847 4.90747 18.4587 4.86069 16.6694 4.8139 14.8802 5.40155 13.2204 6.62357 11.6902L10.9901 15.3435C10.4441 16.0976 10.1418 16.78 10.0831 17.3908 9.99091 18.3817 10.3592 19.2704 11.188 20.057 11.8063 20.6439 12.4205 20.9511 13.0305 20.9786 13.6405 21.0062 14.127 20.8288 14.49 20.4462 14.8349 20.0829 14.984 19.6065 14.9376 19.0171 14.8911 18.4277 14.4087 17.4549 13.4904 16.0988 11.996 13.8687 11.1797 12.0156 11.0417 10.5396 10.8973 9.05751 11.3454 7.76821 12.386 6.67169 13.0697 5.95131 13.9243 5.46891 14.95 5.2245 15.9756 4.98009 17.0815 5.07241 18.2677 5.50145 19.4539 5.93049 20.777 6.83776 22.2369 8.22327Z" fill="#F6F9FF" fill-rule="evenodd"/></g></g><path d="M829.408 107.395C831.2 109.095 832.25 110.724 832.558 112.283 832.866 113.842 832.419 115.432 831.218 117.055L826.908 113.419C827.399 112.685 827.607 112.01 827.531 111.393 827.456 110.777 827.113 110.178 826.501 109.597 825.997 109.119 825.516 108.866 825.059 108.837 824.601 108.809 824.227 108.948 823.936 109.254 823.725 109.477 823.639 109.778 823.68 110.156 823.709 110.534 824.03 111.166 824.644 112.052 826.15 114.256 827.114 115.956 827.537 117.152 827.96 118.347 828.065 119.43 827.851 120.403 827.637 121.375 827.167 122.244 826.441 123.009 825.588 123.907 824.553 124.5 823.335 124.787 822.118 125.074 820.877 124.99 819.613 124.535 818.348 124.08 817.037 123.208 815.679 121.919 813.295 119.656 812.079 117.63 812.032 115.841 811.985 114.052 812.573 112.392 813.795 110.862L818.162 114.515C817.616 115.269 817.313 115.952 817.255 116.562 817.162 117.553 817.531 118.442 818.359 119.229 818.978 119.815 819.592 120.123 820.202 120.15 820.812 120.178 821.299 120 821.662 119.618 822.006 119.254 822.156 118.778 822.109 118.189 822.063 117.599 821.58 116.626 820.662 115.27 819.168 113.04 818.351 111.187 818.213 109.711 818.069 108.229 818.517 106.94 819.558 105.843 820.241 105.123 821.096 104.64 822.122 104.396 823.147 104.152 824.253 104.244 825.439 104.673 826.625 105.102 827.949 106.009 829.408 107.395Z" fill="#F6F9FF" fill-rule="evenodd"/><text fill="#000000" fill-opacity="0" font-family="Arial,Arial_MSFontService,sans-serif" font-size="20.6902" x="812.03" y="122.367">S</text><g clip-path="url(#clip25)" filter="url(#fx23)" transform="translate(228 529)"><g><path d="M29.1396-15.5273 39.4136-12.4219C38.7235-9.54069 37.6366-7.13395 36.1528-5.20166 34.6691-3.26937 32.8274-1.81152 30.6277-0.828125 28.428 0.155273 25.6287 0.646973 22.23 0.646973 18.1066 0.646973 14.738 0.047849 12.1243-1.1504 9.5105-2.34865 7.25472-4.45636 5.35693-7.47355 3.45915-10.4907 2.51025-14.3528 2.51025-19.0598 2.51025-25.3354 4.17944-30.1586 7.51782-33.5294 10.8562-36.9001 15.5791-38.5854 21.6865-38.5854 26.4655-38.5854 30.2222-37.6193 32.9568-35.687 35.6913-33.7547 37.7228-30.7873 39.0513-26.7847L28.6997-24.4814C28.3374-25.6374 27.9578-26.4827 27.561-27.0176 26.9054-27.9147 26.1032-28.6048 25.1543-29.0879 24.2054-29.571 23.1444-29.8125 21.9712-29.8125 19.3143-29.8125 17.2785-28.744 15.8638-26.6072 14.7941-25.0218 14.2593-22.5319 14.2593-19.1375 14.2593-14.9327 14.8976-12.0505 16.1743-10.4911 17.451-8.93159 19.2453-8.15186 21.5571-8.15186 23.8-8.15186 25.495-8.78158 26.6423-10.041 27.7896-11.3005 28.6221-13.1292 29.1396-15.5273ZM68.706-6.2627 55.3966-6.2627 53.5474 0 41.5776 0 55.8369-37.9385 68.6243-37.9385 82.8804 0 70.6041 0ZM66.2742-14.4663 62.0867-28.1045 57.9428-14.4663ZM86.8818-37.9385 98.605-37.9385 98.605-9.34229 116.901-9.34229 116.901 0 86.8818 0ZM145.706-6.2627 132.397-6.2627 130.547 0 118.578 0 132.837-37.9385 145.624-37.9385 159.88 0 147.604 0ZM143.274-14.4663 139.087-28.1045 134.943-14.4663ZM161.837-12.5513 172.991-13.25C173.233-11.4385 173.724-10.0583 174.466-9.10938 175.674-7.57389 177.399-6.80615 179.642-6.80615 181.316-6.80615 182.605-7.19865 183.511-7.98364 184.417-8.76864 184.87-9.67871 184.87-10.7139 184.87-11.6973 184.438-12.5771 183.576-13.3535 182.713-14.1299 180.712-14.8631 177.572-15.5532 172.43-16.7091 168.764-18.2446 166.573-20.1597 164.365-22.0747 163.261-24.5159 163.261-27.4834 163.261-29.4329 163.826-31.2747 164.956-33.0085 166.086-34.7424 167.785-36.1054 170.054-37.0974 172.323-38.0894 175.432-38.5854 179.383-38.5854 184.231-38.5854 187.928-37.684 190.472-35.8811 193.017-34.0782 194.531-31.21 195.014-27.2764L183.964-26.6294C183.671-28.3374 183.054-29.5796 182.114-30.356 181.173-31.1323 179.875-31.5205 178.219-31.5205 176.856-31.5205 175.829-31.2315 175.139-30.6536 174.449-30.0756 174.104-29.3726 174.104-28.5444 174.104-27.9406 174.389-27.3971 174.958-26.9141 175.51-26.4137 176.821-25.9479 178.892-25.5166 184.016-24.4124 187.686-23.2953 189.903-22.1653 192.12-21.0352 193.733-19.6335 194.742-17.96 195.752-16.2865 196.256-14.4145 196.256-12.3442 196.256-9.91162 195.583-7.66878 194.238-5.61572 192.892-3.56266 191.012-2.00562 188.596-0.94458 186.181 0.116455 183.136 0.646973 179.461 0.646973 173.008 0.646973 168.54-0.595215 166.056-3.07959 163.571-5.56396 162.165-8.72119 161.837-12.5513ZM200.337-12.5513 211.491-13.25C211.733-11.4385 212.224-10.0583 212.966-9.10938 214.174-7.57389 215.899-6.80615 218.142-6.80615 219.816-6.80615 221.105-7.19865 222.011-7.98364 222.917-8.76864 223.37-9.67871 223.37-10.7139 223.37-11.6973 222.938-12.5771 222.076-13.3535 221.213-14.1299 219.212-14.8631 216.072-15.5532 210.93-16.7091 207.264-18.2446 205.073-20.1597 202.865-22.0747 201.761-24.5159 201.761-27.4834 201.761-29.4329 202.326-31.2747 203.456-33.0085 204.586-34.7424 206.285-36.1054 208.554-37.0974 210.823-38.0894 213.932-38.5854 217.883-38.5854 222.731-38.5854 226.428-37.684 228.972-35.8811 231.517-34.0782 233.031-31.21 233.514-27.2764L222.464-26.6294C222.171-28.3374 221.554-29.5796 220.614-30.356 219.673-31.1323 218.375-31.5205 216.719-31.5205 215.356-31.5205 214.329-31.2315 213.639-30.6536 212.949-30.0756 212.604-29.3726 212.604-28.5444 212.604-27.9406 212.889-27.3971 213.458-26.9141 214.01-26.4137 215.321-25.9479 217.392-25.5166 222.516-24.4124 226.186-23.2953 228.403-22.1653 230.62-21.0352 232.233-19.6335 233.242-17.96 234.252-16.2865 234.756-14.4145 234.756-12.3442 234.756-9.91162 234.083-7.66878 232.738-5.61572 231.392-3.56266 229.512-2.00562 227.096-0.94458 224.681 0.116455 221.636 0.646973 217.961 0.646973 211.508 0.646973 207.04-0.595215 204.556-3.07959 202.071-5.56396 200.665-8.72119 200.337-12.5513ZM241.348-37.9385 253.097-37.9385 253.097 0 241.348 0ZM286.973-15.5273 297.247-12.4219C296.557-9.54069 295.47-7.13395 293.986-5.20166 292.502-3.26937 290.661-1.81152 288.461-0.828125 286.261 0.155273 283.462 0.646973 280.063 0.646973 275.94 0.646973 272.571 0.047849 269.958-1.1504 267.344-2.34865 265.088-4.45636 263.19-7.47355 261.292-10.4907 260.344-14.3528 260.344-19.0598 260.344-25.3354 262.013-30.1586 265.351-33.5294 268.69-36.9001 273.412-38.5854 279.52-38.5854 284.299-38.5854 288.056-37.6193 290.79-35.687 293.525-33.7547 295.556-30.7873 296.885-26.7847L286.533-24.4814C286.171-25.6374 285.791-26.4827 285.394-27.0176 284.739-27.9147 283.937-28.6048 282.988-29.0879 282.039-29.571 280.978-29.8125 279.805-29.8125 277.148-29.8125 275.112-28.744 273.697-26.6072 272.627-25.0218 272.093-22.5319 272.093-19.1375 272.093-14.9327 272.731-12.0505 274.008-10.4911 275.284-8.93159 277.079-8.15186 279.39-8.15186 281.633-8.15186 283.328-8.78158 284.476-10.041 285.623-11.3005 286.455-13.1292 286.973-15.5273ZM326.539-6.2627 313.23-6.2627 311.381 0 299.411 0 313.67-37.9385 326.458-37.9385 340.714 0 328.437 0ZM324.108-14.4663 319.92-28.1045 315.776-14.4663ZM344.715-37.9385 356.438-37.9385 356.438-9.34229 374.735-9.34229 374.735 0 344.715 0ZM397.919-37.9385 413.336-37.9385 419.282-14.8545 425.185-37.9385 440.593-37.9385 440.593 0 430.992 0 430.992-28.9326 423.595 0 414.904 0 407.52-28.9326 407.52 0 397.919 0ZM448.356-37.9385 479.773-37.9385 479.773-29.8384 460.105-29.8384 460.105-23.8086 478.35-23.8086 478.35-16.0708 460.105-16.0708 460.105-8.5918 480.342-8.5918 480.342 0 448.356 0ZM512.14-15.5273 522.414-12.4219C521.723-9.54069 520.637-7.13395 519.153-5.20166 517.669-3.26937 515.827-1.81152 513.628-0.828125 511.428 0.155273 508.629 0.646973 505.23 0.646973 501.107 0.646973 497.738 0.047849 495.124-1.1504 492.511-2.34865 490.255-4.45636 488.357-7.47355 486.459-10.4907 485.51-14.3528 485.51-19.0598 485.51-25.3354 487.179-30.1586 490.518-33.5294 493.856-36.9001 498.579-38.5854 504.687-38.5854 509.466-38.5854 513.222-37.6193 515.957-35.687 518.691-33.7547 520.723-30.7873 522.051-26.7847L511.7-24.4814C511.337-25.6374 510.958-26.4827 510.561-27.0176 509.905-27.9147 509.103-28.6048 508.154-29.0879 507.205-29.571 506.144-29.8125 504.971-29.8125 502.314-29.8125 500.279-28.744 498.864-26.6072 497.794-25.0218 497.259-22.5319 497.259-19.1375 497.259-14.9327 497.898-12.0505 499.174-10.4911 500.451-8.93159 502.245-8.15186 504.557-8.15186 506.8-8.15186 508.495-8.78158 509.642-10.041 510.79-11.3005 511.622-13.1292 512.14-15.5273ZM528.434-37.9385 540.157-37.9385 540.157-24.6626 552.967-24.6626 552.967-37.9385 564.742-37.9385 564.742 0 552.967 0 552.967-15.3462 540.157-15.3462 540.157 0 528.434 0ZM596.206-6.2627 582.897-6.2627 581.047 0 569.078 0 583.337-37.9385 596.124-37.9385 610.38 0 598.104 0ZM593.774-14.4663 589.587-28.1045 585.443-14.4663ZM614.459-37.9385 625.406-37.9385 639.691-16.9491 639.691-37.9385 650.742-37.9385 650.742 0 639.691 0 625.484-20.8309 625.484 0 614.459 0ZM659.348-37.9385 671.097-37.9385 671.097 0 659.348 0ZM704.973-15.5273 715.247-12.4219C714.557-9.54069 713.47-7.13395 711.986-5.20166 710.502-3.26937 708.661-1.81152 706.461-0.828125 704.261 0.155273 701.462 0.646973 698.063 0.646973 693.94 0.646973 690.571 0.047849 687.958-1.1504 685.344-2.34865 683.088-4.45636 681.19-7.47355 679.292-10.4907 678.344-14.3528 678.344-19.0598 678.344-25.3354 680.013-30.1586 683.351-33.5294 686.689-36.9001 691.412-38.5854 697.52-38.5854 702.299-38.5854 706.056-37.6193 708.79-35.687 711.525-33.7547 713.556-30.7873 714.885-26.7847L704.533-24.4814C704.171-25.6374 703.791-26.4827 703.394-27.0176 702.739-27.9147 701.936-28.6048 700.988-29.0879 700.039-29.571 698.978-29.8125 697.805-29.8125 695.148-29.8125 693.112-28.744 691.697-26.6072 690.627-25.0218 690.093-22.5319 690.093-19.1375 690.093-14.9327 690.731-12.0505 692.008-10.4911 693.284-8.93159 695.079-8.15186 697.39-8.15186 699.633-8.15186 701.328-8.78158 702.476-10.041 703.623-11.3005 704.455-13.1292 704.973-15.5273ZM719.171-12.5513 730.325-13.25C730.566-11.4385 731.058-10.0583 731.8-9.10938 733.007-7.57389 734.733-6.80615 736.975-6.80615 738.649-6.80615 739.939-7.19865 740.844-7.98364 741.75-8.76864 742.203-9.67871 742.203-10.7139 742.203-11.6973 741.772-12.5771 740.909-13.3535 740.046-14.1299 738.045-14.8631 734.905-15.5532 729.764-16.7091 726.098-18.2446 723.907-20.1597 721.698-22.0747 720.594-24.5159 720.594-27.4834 720.594-29.4329 721.159-31.2747 722.289-33.0085 723.419-34.7424 725.119-36.1054 727.387-37.0974 729.656-38.0894 732.766-38.5854 736.717-38.5854 741.565-38.5854 745.261-37.684 747.806-35.8811 750.35-34.0782 751.864-31.21 752.347-27.2764L741.297-26.6294C741.004-28.3374 740.387-29.5796 739.447-30.356 738.507-31.1323 737.208-31.5205 735.552-31.5205 734.189-31.5205 733.163-31.2315 732.472-30.6536 731.782-30.0756 731.437-29.3726 731.437-28.5444 731.437-27.9406 731.722-27.3971 732.291-26.9141 732.843-26.4137 734.155-25.9479 736.225-25.5166 741.349-24.4124 745.019-23.2953 747.236-22.1653 749.453-21.0352 751.066-19.6335 752.076-17.96 753.085-16.2865 753.59-14.4145 753.59-12.3442 753.59-9.91162 752.917-7.66878 751.571-5.61572 750.225-3.56266 748.345-2.00562 745.93-0.94458 743.514 0.116455 740.469 0.646973 736.794 0.646973 730.342 0.646973 725.873-0.595215 723.389-3.07959 720.905-5.56396 719.498-8.72119 719.171-12.5513Z" fill="#F6F9FF" transform="translate(35.9781 70)"/></g></g><text fill="#F6F9FF" font-family="Arial Black,Arial Black_MSFontService,sans-serif" font-weight="900" font-size="53" transform="translate(262.083 597)">CALASSICAL MECHANICS</text></g></svg>